G04 #@! TF.GenerationSoftware,KiCad,Pcbnew,(5.1.4)-1*
G04 #@! TF.CreationDate,2022-03-15T15:20:23+00:00*
G04 #@! TF.ProjectId,3Pi_IRComms_v2,3350695f-4952-4436-9f6d-6d735f76322e,rev?*
G04 #@! TF.SameCoordinates,Original*
G04 #@! TF.FileFunction,Legend,Top*
G04 #@! TF.FilePolarity,Positive*
%FSLAX46Y46*%
G04 Gerber Fmt 4.6, Leading zero omitted, Abs format (unit mm)*
G04 Created by KiCad (PCBNEW (5.1.4)-1) date 2022-03-15 15:20:23*
%MOMM*%
%LPD*%
G04 APERTURE LIST*
%ADD10C,0.120000*%
%ADD11C,0.300000*%
%ADD12C,0.127000*%
%ADD13C,0.150000*%
G04 APERTURE END LIST*
D10*
X114240000Y-101720000D02*
X114240000Y-68700000D01*
X132020000Y-68700000D02*
X132020000Y-101720000D01*
X114240000Y-68700000D02*
X132020000Y-68700000D01*
X135116312Y-91440000D02*
G75*
G03X135116312Y-91440000I-30103822J0D01*
G01*
X132020000Y-101720000D02*
X114240000Y-101720000D01*
D11*
X93580000Y-88308571D02*
X93580000Y-86808571D01*
X94151428Y-86808571D01*
X94294285Y-86880000D01*
X94365714Y-86951428D01*
X94437142Y-87094285D01*
X94437142Y-87308571D01*
X94365714Y-87451428D01*
X94294285Y-87522857D01*
X94151428Y-87594285D01*
X93580000Y-87594285D01*
X95722857Y-88308571D02*
X95722857Y-87522857D01*
X95651428Y-87380000D01*
X95508571Y-87308571D01*
X95222857Y-87308571D01*
X95080000Y-87380000D01*
X95722857Y-88237142D02*
X95580000Y-88308571D01*
X95222857Y-88308571D01*
X95080000Y-88237142D01*
X95008571Y-88094285D01*
X95008571Y-87951428D01*
X95080000Y-87808571D01*
X95222857Y-87737142D01*
X95580000Y-87737142D01*
X95722857Y-87665714D01*
X97080000Y-87308571D02*
X97080000Y-88308571D01*
X96437142Y-87308571D02*
X96437142Y-88094285D01*
X96508571Y-88237142D01*
X96651428Y-88308571D01*
X96865714Y-88308571D01*
X97008571Y-88237142D01*
X97080000Y-88165714D01*
X98008571Y-88308571D02*
X97865714Y-88237142D01*
X97794285Y-88094285D01*
X97794285Y-86808571D01*
X100008571Y-86808571D02*
X100294285Y-86808571D01*
X100437142Y-86880000D01*
X100580000Y-87022857D01*
X100651428Y-87308571D01*
X100651428Y-87808571D01*
X100580000Y-88094285D01*
X100437142Y-88237142D01*
X100294285Y-88308571D01*
X100008571Y-88308571D01*
X99865714Y-88237142D01*
X99722857Y-88094285D01*
X99651428Y-87808571D01*
X99651428Y-87308571D01*
X99722857Y-87022857D01*
X99865714Y-86880000D01*
X100008571Y-86808571D01*
X101365714Y-86808571D02*
X101222857Y-87094285D01*
X102008571Y-88308571D02*
X102008571Y-86808571D01*
X102365714Y-86808571D01*
X102580000Y-86880000D01*
X102722857Y-87022857D01*
X102794285Y-87165714D01*
X102865714Y-87451428D01*
X102865714Y-87665714D01*
X102794285Y-87951428D01*
X102722857Y-88094285D01*
X102580000Y-88237142D01*
X102365714Y-88308571D01*
X102008571Y-88308571D01*
X103722857Y-88308571D02*
X103580000Y-88237142D01*
X103508571Y-88165714D01*
X103437142Y-88022857D01*
X103437142Y-87594285D01*
X103508571Y-87451428D01*
X103580000Y-87380000D01*
X103722857Y-87308571D01*
X103937142Y-87308571D01*
X104080000Y-87380000D01*
X104151428Y-87451428D01*
X104222857Y-87594285D01*
X104222857Y-88022857D01*
X104151428Y-88165714D01*
X104080000Y-88237142D01*
X103937142Y-88308571D01*
X103722857Y-88308571D01*
X104722857Y-87308571D02*
X105008571Y-88308571D01*
X105294285Y-87594285D01*
X105580000Y-88308571D01*
X105865714Y-87308571D01*
X107080000Y-88308571D02*
X107080000Y-86808571D01*
X107080000Y-88237142D02*
X106937142Y-88308571D01*
X106651428Y-88308571D01*
X106508571Y-88237142D01*
X106437142Y-88165714D01*
X106365714Y-88022857D01*
X106365714Y-87594285D01*
X106437142Y-87451428D01*
X106508571Y-87380000D01*
X106651428Y-87308571D01*
X106937142Y-87308571D01*
X107080000Y-87380000D01*
D10*
X95310000Y-81220000D02*
X95310000Y-82550000D01*
X93980000Y-81220000D02*
X95310000Y-81220000D01*
X92710000Y-81220000D02*
X92710000Y-83880000D01*
X92710000Y-83880000D02*
X90110000Y-83880000D01*
X92710000Y-81220000D02*
X90110000Y-81220000D01*
X90110000Y-81220000D02*
X90110000Y-83880000D01*
X133290000Y-91380000D02*
X134620000Y-91380000D01*
X133290000Y-92710000D02*
X133290000Y-91380000D01*
X133290000Y-93980000D02*
X135950000Y-93980000D01*
X135950000Y-93980000D02*
X135950000Y-96580000D01*
X133290000Y-93980000D02*
X133290000Y-96580000D01*
X133290000Y-96580000D02*
X135950000Y-96580000D01*
X85030000Y-81220000D02*
X86360000Y-81220000D01*
X85030000Y-82550000D02*
X85030000Y-81220000D01*
X85030000Y-83820000D02*
X87690000Y-83820000D01*
X87690000Y-83820000D02*
X87690000Y-86420000D01*
X85030000Y-83820000D02*
X85030000Y-86420000D01*
X85030000Y-86420000D02*
X87690000Y-86420000D01*
X81208737Y-70532253D02*
X82284729Y-71314007D01*
X80426982Y-71608246D02*
X81208737Y-70532253D01*
X79680495Y-72635697D02*
X81832480Y-74199206D01*
X81832480Y-74199206D02*
X80304239Y-76302650D01*
X79680495Y-72635697D02*
X78152253Y-74739141D01*
X78152253Y-74739141D02*
X80304239Y-76302650D01*
X95190000Y-108220000D02*
G75*
G02X95190000Y-110220000I0J-1000000D01*
G01*
X95190000Y-110220000D02*
X95190000Y-111870000D01*
X95190000Y-111870000D02*
X113090000Y-111870000D01*
X113090000Y-111870000D02*
X113090000Y-106570000D01*
X113090000Y-106570000D02*
X95190000Y-106570000D01*
X95190000Y-106570000D02*
X95190000Y-108220000D01*
X95130000Y-114360000D02*
X113150000Y-114360000D01*
X113150000Y-114360000D02*
X113150000Y-104080000D01*
X113150000Y-104080000D02*
X95130000Y-104080000D01*
X95130000Y-104080000D02*
X95130000Y-114360000D01*
X86600000Y-95870000D02*
X87800000Y-95870000D01*
X86600000Y-95870000D02*
X86600000Y-95410000D01*
X90260000Y-95790000D02*
X90260000Y-92710000D01*
X86600000Y-90210000D02*
G75*
G03X86600000Y-95410000I1100000J-2600000D01*
G01*
X86600000Y-90210000D02*
X86600000Y-89990000D01*
X95310000Y-96460000D02*
X95310000Y-97790000D01*
X93980000Y-96460000D02*
X95310000Y-96460000D01*
X92710000Y-96460000D02*
X92710000Y-99120000D01*
X92710000Y-99120000D02*
X90110000Y-99120000D01*
X92710000Y-96460000D02*
X90110000Y-96460000D01*
X90110000Y-96460000D02*
X90110000Y-99120000D01*
X99000000Y-64710000D02*
X100330000Y-64710000D01*
X99000000Y-66040000D02*
X99000000Y-64710000D01*
X99000000Y-67310000D02*
X101660000Y-67310000D01*
X101660000Y-67310000D02*
X101660000Y-72450000D01*
X99000000Y-67310000D02*
X99000000Y-72450000D01*
X99000000Y-72450000D02*
X101660000Y-72450000D01*
X79422253Y-110195762D02*
X80498246Y-109414007D01*
X80204007Y-111271754D02*
X79422253Y-110195762D01*
X80950495Y-112299206D02*
X83102480Y-110735697D01*
X83102480Y-110735697D02*
X84630722Y-112839141D01*
X80950495Y-112299206D02*
X82478736Y-114402650D01*
X82478736Y-114402650D02*
X84630722Y-112839141D01*
X105350000Y-64710000D02*
X106680000Y-64710000D01*
X105350000Y-66040000D02*
X105350000Y-64710000D01*
X105350000Y-67310000D02*
X108010000Y-67310000D01*
X108010000Y-67310000D02*
X108010000Y-72450000D01*
X105350000Y-67310000D02*
X105350000Y-72450000D01*
X105350000Y-72450000D02*
X108010000Y-72450000D01*
X85150000Y-95310000D02*
X83820000Y-95310000D01*
X85150000Y-93980000D02*
X85150000Y-95310000D01*
X85150000Y-92710000D02*
X82490000Y-92710000D01*
X82490000Y-92710000D02*
X82490000Y-90110000D01*
X85150000Y-92710000D02*
X85150000Y-90110000D01*
X85150000Y-90110000D02*
X82490000Y-90110000D01*
X118515898Y-62646087D02*
X118104905Y-63910993D01*
X117250993Y-62235095D02*
X118515898Y-62646087D01*
X116043151Y-61842643D02*
X115221166Y-64372454D01*
X115221166Y-64372454D02*
X112748419Y-63569009D01*
X116043151Y-61842643D02*
X113570404Y-61039199D01*
X113570404Y-61039199D02*
X112748419Y-63569009D01*
X112176087Y-122325898D02*
X111765095Y-121060993D01*
X113440993Y-121914905D02*
X112176087Y-122325898D01*
X114648834Y-121522454D02*
X113826849Y-118992643D01*
X113826849Y-118992643D02*
X116299596Y-118189199D01*
X114648834Y-121522454D02*
X117121581Y-120719009D01*
X117121581Y-120719009D02*
X116299596Y-118189199D01*
X95310000Y-93920000D02*
X95310000Y-95250000D01*
X93980000Y-93920000D02*
X95310000Y-93920000D01*
X92710000Y-93920000D02*
X92710000Y-96580000D01*
X92710000Y-96580000D02*
X90110000Y-96580000D01*
X92710000Y-93920000D02*
X90110000Y-93920000D01*
X90110000Y-93920000D02*
X90110000Y-96580000D01*
D12*
X122943257Y-72346457D02*
X123030342Y-72375485D01*
X123059371Y-72404514D01*
X123088400Y-72462571D01*
X123088400Y-72549657D01*
X123059371Y-72607714D01*
X123030342Y-72636742D01*
X122972285Y-72665771D01*
X122740057Y-72665771D01*
X122740057Y-72056171D01*
X122943257Y-72056171D01*
X123001314Y-72085200D01*
X123030342Y-72114228D01*
X123059371Y-72172285D01*
X123059371Y-72230342D01*
X123030342Y-72288400D01*
X123001314Y-72317428D01*
X122943257Y-72346457D01*
X122740057Y-72346457D01*
X123668971Y-72665771D02*
X123320628Y-72665771D01*
X123494800Y-72665771D02*
X123494800Y-72056171D01*
X123436742Y-72143257D01*
X123378685Y-72201314D01*
X123320628Y-72230342D01*
X118980857Y-101193600D02*
X119271142Y-101193600D01*
X118922800Y-101367771D02*
X119126000Y-100758171D01*
X119329200Y-101367771D01*
X119880742Y-101367771D02*
X119677542Y-101077485D01*
X119532400Y-101367771D02*
X119532400Y-100758171D01*
X119764628Y-100758171D01*
X119822685Y-100787200D01*
X119851714Y-100816228D01*
X119880742Y-100874285D01*
X119880742Y-100961371D01*
X119851714Y-101019428D01*
X119822685Y-101048457D01*
X119764628Y-101077485D01*
X119532400Y-101077485D01*
X120142000Y-101367771D02*
X120142000Y-100758171D01*
X120287142Y-100758171D01*
X120374228Y-100787200D01*
X120432285Y-100845257D01*
X120461314Y-100903314D01*
X120490342Y-101019428D01*
X120490342Y-101106514D01*
X120461314Y-101222628D01*
X120432285Y-101280685D01*
X120374228Y-101338742D01*
X120287142Y-101367771D01*
X120142000Y-101367771D01*
X120751600Y-100758171D02*
X120751600Y-101251657D01*
X120780628Y-101309714D01*
X120809657Y-101338742D01*
X120867714Y-101367771D01*
X120983828Y-101367771D01*
X121041885Y-101338742D01*
X121070914Y-101309714D01*
X121099942Y-101251657D01*
X121099942Y-100758171D01*
X121390228Y-101367771D02*
X121390228Y-100758171D01*
X121680514Y-101367771D02*
X121680514Y-100758171D01*
X122028857Y-101367771D01*
X122028857Y-100758171D01*
X122435257Y-100758171D02*
X122551371Y-100758171D01*
X122609428Y-100787200D01*
X122667485Y-100845257D01*
X122696514Y-100961371D01*
X122696514Y-101164571D01*
X122667485Y-101280685D01*
X122609428Y-101338742D01*
X122551371Y-101367771D01*
X122435257Y-101367771D01*
X122377200Y-101338742D01*
X122319142Y-101280685D01*
X122290114Y-101164571D01*
X122290114Y-100961371D01*
X122319142Y-100845257D01*
X122377200Y-100787200D01*
X122435257Y-100758171D01*
X122812628Y-101425828D02*
X123277085Y-101425828D01*
X123422228Y-101367771D02*
X123422228Y-100758171D01*
X123654457Y-100758171D01*
X123712514Y-100787200D01*
X123741542Y-100816228D01*
X123770571Y-100874285D01*
X123770571Y-100961371D01*
X123741542Y-101019428D01*
X123712514Y-101048457D01*
X123654457Y-101077485D01*
X123422228Y-101077485D01*
X124380171Y-101367771D02*
X124176971Y-101077485D01*
X124031828Y-101367771D02*
X124031828Y-100758171D01*
X124264057Y-100758171D01*
X124322114Y-100787200D01*
X124351142Y-100816228D01*
X124380171Y-100874285D01*
X124380171Y-100961371D01*
X124351142Y-101019428D01*
X124322114Y-101048457D01*
X124264057Y-101077485D01*
X124031828Y-101077485D01*
X124757542Y-100758171D02*
X124873657Y-100758171D01*
X124931714Y-100787200D01*
X124989771Y-100845257D01*
X125018800Y-100961371D01*
X125018800Y-101164571D01*
X124989771Y-101280685D01*
X124931714Y-101338742D01*
X124873657Y-101367771D01*
X124757542Y-101367771D01*
X124699485Y-101338742D01*
X124641428Y-101280685D01*
X124612400Y-101164571D01*
X124612400Y-100961371D01*
X124641428Y-100845257D01*
X124699485Y-100787200D01*
X124757542Y-100758171D01*
X125134914Y-101425828D02*
X125599371Y-101425828D01*
X125744514Y-101367771D02*
X125744514Y-100758171D01*
X125947714Y-101193600D01*
X126150914Y-100758171D01*
X126150914Y-101367771D01*
X126441200Y-101367771D02*
X126441200Y-100758171D01*
X126731485Y-101367771D02*
X126731485Y-100758171D01*
X127079828Y-101367771D01*
X127079828Y-100758171D01*
X127370114Y-101367771D02*
X127370114Y-100758171D01*
D13*
X95762380Y-85692857D02*
X95762380Y-85073809D01*
X96143333Y-85407142D01*
X96143333Y-85264285D01*
X96190952Y-85169047D01*
X96238571Y-85121428D01*
X96333809Y-85073809D01*
X96571904Y-85073809D01*
X96667142Y-85121428D01*
X96714761Y-85169047D01*
X96762380Y-85264285D01*
X96762380Y-85550000D01*
X96714761Y-85645238D01*
X96667142Y-85692857D01*
X96762380Y-84645238D02*
X95762380Y-84645238D01*
X95762380Y-84264285D01*
X95810000Y-84169047D01*
X95857619Y-84121428D01*
X95952857Y-84073809D01*
X96095714Y-84073809D01*
X96190952Y-84121428D01*
X96238571Y-84169047D01*
X96286190Y-84264285D01*
X96286190Y-84645238D01*
X96762380Y-83645238D02*
X95762380Y-83645238D01*
X96857619Y-83407142D02*
X96857619Y-82645238D01*
X96762380Y-82407142D02*
X95762380Y-82407142D01*
X95857619Y-81978571D02*
X95810000Y-81930952D01*
X95762380Y-81835714D01*
X95762380Y-81597619D01*
X95810000Y-81502380D01*
X95857619Y-81454761D01*
X95952857Y-81407142D01*
X96048095Y-81407142D01*
X96190952Y-81454761D01*
X96762380Y-82026190D01*
X96762380Y-81407142D01*
X96667142Y-80407142D02*
X96714761Y-80454761D01*
X96762380Y-80597619D01*
X96762380Y-80692857D01*
X96714761Y-80835714D01*
X96619523Y-80930952D01*
X96524285Y-80978571D01*
X96333809Y-81026190D01*
X96190952Y-81026190D01*
X96000476Y-80978571D01*
X95905238Y-80930952D01*
X95810000Y-80835714D01*
X95762380Y-80692857D01*
X95762380Y-80597619D01*
X95810000Y-80454761D01*
X95857619Y-80407142D01*
X96762380Y-79454761D02*
X96762380Y-80026190D01*
X96762380Y-79740476D02*
X95762380Y-79740476D01*
X95905238Y-79835714D01*
X96000476Y-79930952D01*
X96048095Y-80026190D01*
X131905714Y-90832380D02*
X131905714Y-89832380D01*
X132953333Y-90832380D02*
X132620000Y-90356190D01*
X132381904Y-90832380D02*
X132381904Y-89832380D01*
X132762857Y-89832380D01*
X132858095Y-89880000D01*
X132905714Y-89927619D01*
X132953333Y-90022857D01*
X132953333Y-90165714D01*
X132905714Y-90260952D01*
X132858095Y-90308571D01*
X132762857Y-90356190D01*
X132381904Y-90356190D01*
X133143809Y-90927619D02*
X133905714Y-90927619D01*
X134620000Y-90832380D02*
X134143809Y-90832380D01*
X134143809Y-89832380D01*
X134953333Y-90308571D02*
X135286666Y-90308571D01*
X135429523Y-90832380D02*
X134953333Y-90832380D01*
X134953333Y-89832380D01*
X135429523Y-89832380D01*
X135858095Y-90832380D02*
X135858095Y-89832380D01*
X136096190Y-89832380D01*
X136239047Y-89880000D01*
X136334285Y-89975238D01*
X136381904Y-90070476D01*
X136429523Y-90260952D01*
X136429523Y-90403809D01*
X136381904Y-90594285D01*
X136334285Y-90689523D01*
X136239047Y-90784761D01*
X136096190Y-90832380D01*
X135858095Y-90832380D01*
X137048571Y-89832380D02*
X137143809Y-89832380D01*
X137239047Y-89880000D01*
X137286666Y-89927619D01*
X137334285Y-90022857D01*
X137381904Y-90213333D01*
X137381904Y-90451428D01*
X137334285Y-90641904D01*
X137286666Y-90737142D01*
X137239047Y-90784761D01*
X137143809Y-90832380D01*
X137048571Y-90832380D01*
X136953333Y-90784761D01*
X136905714Y-90737142D01*
X136858095Y-90641904D01*
X136810476Y-90451428D01*
X136810476Y-90213333D01*
X136858095Y-90022857D01*
X136905714Y-89927619D01*
X136953333Y-89880000D01*
X137048571Y-89832380D01*
X84272380Y-86939047D02*
X83796190Y-87272380D01*
X84272380Y-87510476D02*
X83272380Y-87510476D01*
X83272380Y-87129523D01*
X83320000Y-87034285D01*
X83367619Y-86986666D01*
X83462857Y-86939047D01*
X83605714Y-86939047D01*
X83700952Y-86986666D01*
X83748571Y-87034285D01*
X83796190Y-87129523D01*
X83796190Y-87510476D01*
X83272380Y-86605714D02*
X84272380Y-85939047D01*
X83272380Y-85939047D02*
X84272380Y-86605714D01*
X84367619Y-85796190D02*
X84367619Y-85034285D01*
X83748571Y-84462857D02*
X83796190Y-84320000D01*
X83843809Y-84272380D01*
X83939047Y-84224761D01*
X84081904Y-84224761D01*
X84177142Y-84272380D01*
X84224761Y-84320000D01*
X84272380Y-84415238D01*
X84272380Y-84796190D01*
X83272380Y-84796190D01*
X83272380Y-84462857D01*
X83320000Y-84367619D01*
X83367619Y-84320000D01*
X83462857Y-84272380D01*
X83558095Y-84272380D01*
X83653333Y-84320000D01*
X83700952Y-84367619D01*
X83748571Y-84462857D01*
X83748571Y-84796190D01*
X84272380Y-83796190D02*
X83605714Y-83796190D01*
X83796190Y-83796190D02*
X83700952Y-83748571D01*
X83653333Y-83700952D01*
X83605714Y-83605714D01*
X83605714Y-83510476D01*
X84224761Y-82796190D02*
X84272380Y-82891428D01*
X84272380Y-83081904D01*
X84224761Y-83177142D01*
X84129523Y-83224761D01*
X83748571Y-83224761D01*
X83653333Y-83177142D01*
X83605714Y-83081904D01*
X83605714Y-82891428D01*
X83653333Y-82796190D01*
X83748571Y-82748571D01*
X83843809Y-82748571D01*
X83939047Y-83224761D01*
X84272380Y-81891428D02*
X83748571Y-81891428D01*
X83653333Y-81939047D01*
X83605714Y-82034285D01*
X83605714Y-82224761D01*
X83653333Y-82320000D01*
X84224761Y-81891428D02*
X84272380Y-81986666D01*
X84272380Y-82224761D01*
X84224761Y-82320000D01*
X84129523Y-82367619D01*
X84034285Y-82367619D01*
X83939047Y-82320000D01*
X83891428Y-82224761D01*
X83891428Y-81986666D01*
X83843809Y-81891428D01*
X84272380Y-81415238D02*
X83272380Y-81415238D01*
X83891428Y-81320000D02*
X84272380Y-81034285D01*
X83605714Y-81034285D02*
X83986666Y-81415238D01*
X84272380Y-80081904D02*
X84272380Y-80653333D01*
X84272380Y-80367619D02*
X83272380Y-80367619D01*
X83415238Y-80462857D01*
X83510476Y-80558095D01*
X83558095Y-80653333D01*
X80410708Y-69275556D02*
X80998494Y-68466539D01*
X81258250Y-69891331D02*
X81268475Y-69310157D01*
X80795955Y-69555454D02*
X81383740Y-68746437D01*
X81691937Y-68970355D01*
X81740996Y-69064859D01*
X81751531Y-69131374D01*
X81734076Y-69236413D01*
X81650107Y-69351987D01*
X81555603Y-69401046D01*
X81489088Y-69411581D01*
X81384049Y-69394126D01*
X81075852Y-69170208D01*
X81356369Y-70080340D02*
X81972763Y-70528176D01*
X82606612Y-70870973D02*
X82221365Y-70591076D01*
X82809151Y-69782059D01*
X83184171Y-70643131D02*
X83453844Y-70839059D01*
X83261530Y-71346800D02*
X82876284Y-71066902D01*
X83464069Y-70257885D01*
X83849315Y-70537783D01*
X83608252Y-71598708D02*
X84196037Y-70789691D01*
X84388660Y-70929639D01*
X84476244Y-71052133D01*
X84497314Y-71185162D01*
X84479859Y-71290201D01*
X84406424Y-71472289D01*
X84322455Y-71587863D01*
X84171971Y-71713972D01*
X84077467Y-71763031D01*
X83944438Y-71784101D01*
X83800875Y-71738656D01*
X83608252Y-71598708D01*
X84910550Y-71426535D02*
X84977064Y-71416000D01*
X85082103Y-71433455D01*
X85274726Y-71573404D01*
X85323786Y-71667908D01*
X85334321Y-71734423D01*
X85316866Y-71839462D01*
X85260886Y-71916511D01*
X85138392Y-72004095D01*
X84340219Y-72130513D01*
X84841040Y-72494380D01*
X90376666Y-90622380D02*
X90376666Y-89622380D01*
X91424285Y-90622380D02*
X91090952Y-90146190D01*
X90852857Y-90622380D02*
X90852857Y-89622380D01*
X91233809Y-89622380D01*
X91329047Y-89670000D01*
X91376666Y-89717619D01*
X91424285Y-89812857D01*
X91424285Y-89955714D01*
X91376666Y-90050952D01*
X91329047Y-90098571D01*
X91233809Y-90146190D01*
X90852857Y-90146190D01*
X91614761Y-90717619D02*
X92376666Y-90717619D01*
X93186190Y-90622380D02*
X92852857Y-90146190D01*
X92614761Y-90622380D02*
X92614761Y-89622380D01*
X92995714Y-89622380D01*
X93090952Y-89670000D01*
X93138571Y-89717619D01*
X93186190Y-89812857D01*
X93186190Y-89955714D01*
X93138571Y-90050952D01*
X93090952Y-90098571D01*
X92995714Y-90146190D01*
X92614761Y-90146190D01*
X93519523Y-89622380D02*
X94186190Y-90622380D01*
X94186190Y-89622380D02*
X93519523Y-90622380D01*
X95090952Y-90622380D02*
X94519523Y-90622380D01*
X94805238Y-90622380D02*
X94805238Y-89622380D01*
X94710000Y-89765238D01*
X94614761Y-89860476D01*
X94519523Y-89908095D01*
X89257619Y-99782380D02*
X89876666Y-99782380D01*
X89543333Y-100163333D01*
X89686190Y-100163333D01*
X89781428Y-100210952D01*
X89829047Y-100258571D01*
X89876666Y-100353809D01*
X89876666Y-100591904D01*
X89829047Y-100687142D01*
X89781428Y-100734761D01*
X89686190Y-100782380D01*
X89400476Y-100782380D01*
X89305238Y-100734761D01*
X89257619Y-100687142D01*
X90305238Y-100782380D02*
X90305238Y-99782380D01*
X90686190Y-99782380D01*
X90781428Y-99830000D01*
X90829047Y-99877619D01*
X90876666Y-99972857D01*
X90876666Y-100115714D01*
X90829047Y-100210952D01*
X90781428Y-100258571D01*
X90686190Y-100306190D01*
X90305238Y-100306190D01*
X91305238Y-100782380D02*
X91305238Y-99782380D01*
X91543333Y-100877619D02*
X92305238Y-100877619D01*
X93067142Y-99830000D02*
X92971904Y-99782380D01*
X92829047Y-99782380D01*
X92686190Y-99830000D01*
X92590952Y-99925238D01*
X92543333Y-100020476D01*
X92495714Y-100210952D01*
X92495714Y-100353809D01*
X92543333Y-100544285D01*
X92590952Y-100639523D01*
X92686190Y-100734761D01*
X92829047Y-100782380D01*
X92924285Y-100782380D01*
X93067142Y-100734761D01*
X93114761Y-100687142D01*
X93114761Y-100353809D01*
X92924285Y-100353809D01*
X93543333Y-100782380D02*
X93543333Y-99782380D01*
X94114761Y-100782380D01*
X94114761Y-99782380D01*
X94590952Y-100782380D02*
X94590952Y-99782380D01*
X94829047Y-99782380D01*
X94971904Y-99830000D01*
X95067142Y-99925238D01*
X95114761Y-100020476D01*
X95162380Y-100210952D01*
X95162380Y-100353809D01*
X95114761Y-100544285D01*
X95067142Y-100639523D01*
X94971904Y-100734761D01*
X94829047Y-100782380D01*
X94590952Y-100782380D01*
X96114761Y-100782380D02*
X95543333Y-100782380D01*
X95829047Y-100782380D02*
X95829047Y-99782380D01*
X95733809Y-99925238D01*
X95638571Y-100020476D01*
X95543333Y-100068095D01*
X77980459Y-110566390D02*
X77392674Y-109757373D01*
X78828001Y-109950615D02*
X78278431Y-109761298D01*
X78365705Y-110286493D02*
X77777920Y-109477476D01*
X78086117Y-109253558D01*
X78191156Y-109236103D01*
X78257670Y-109246637D01*
X78352175Y-109295697D01*
X78436144Y-109411271D01*
X78453599Y-109516310D01*
X78443064Y-109582824D01*
X78394004Y-109677328D01*
X78085808Y-109901247D01*
X79038079Y-109915706D02*
X79654473Y-109467869D01*
X80176362Y-108970973D02*
X79791116Y-109250871D01*
X79203331Y-108441854D01*
X80138147Y-108351274D02*
X80407820Y-108155346D01*
X80831281Y-108495147D02*
X80446035Y-108775045D01*
X79858249Y-107966028D01*
X80243496Y-107686130D01*
X81178002Y-108243239D02*
X80590217Y-107434222D01*
X80782840Y-107294273D01*
X80926404Y-107248829D01*
X81059433Y-107269898D01*
X81153937Y-107318958D01*
X81304421Y-107445067D01*
X81388390Y-107560640D01*
X81461824Y-107742729D01*
X81479279Y-107847768D01*
X81458210Y-107980796D01*
X81370626Y-108103290D01*
X81178002Y-108243239D01*
X81322185Y-106902417D02*
X81823005Y-106538549D01*
X81777251Y-107042675D01*
X81892825Y-106958706D01*
X81997864Y-106941251D01*
X82064378Y-106951785D01*
X82158882Y-107000845D01*
X82298831Y-107193468D01*
X82316286Y-107298507D01*
X82305751Y-107365021D01*
X82256692Y-107459526D01*
X82025544Y-107627464D01*
X81920505Y-107644919D01*
X81853991Y-107634384D01*
X81113333Y-91892380D02*
X80780000Y-91416190D01*
X80541904Y-91892380D02*
X80541904Y-90892380D01*
X80922857Y-90892380D01*
X81018095Y-90940000D01*
X81065714Y-90987619D01*
X81113333Y-91082857D01*
X81113333Y-91225714D01*
X81065714Y-91320952D01*
X81018095Y-91368571D01*
X80922857Y-91416190D01*
X80541904Y-91416190D01*
X82065714Y-91892380D02*
X81494285Y-91892380D01*
X81780000Y-91892380D02*
X81780000Y-90892380D01*
X81684761Y-91035238D01*
X81589523Y-91130476D01*
X81494285Y-91178095D01*
X118647441Y-66941242D02*
X117696384Y-66632225D01*
X118971173Y-65944897D02*
X118415283Y-66114765D01*
X118794592Y-66488358D02*
X117843535Y-66179341D01*
X117961256Y-65817034D01*
X118035975Y-65741172D01*
X118095978Y-65710599D01*
X118201270Y-65694740D01*
X118337135Y-65738886D01*
X118412997Y-65813604D01*
X118443570Y-65873608D01*
X118459429Y-65978900D01*
X118341708Y-66341207D01*
X119120610Y-65793174D02*
X119356052Y-65068559D01*
X119486201Y-64359803D02*
X119339050Y-64812687D01*
X118387994Y-64503670D01*
X119091035Y-63880918D02*
X119194040Y-63563899D01*
X119736358Y-63589900D02*
X119589207Y-64042784D01*
X118638151Y-63733767D01*
X118785301Y-63280883D01*
X119868794Y-63182304D02*
X118917737Y-62873287D01*
X118991313Y-62646845D01*
X119080746Y-62525695D01*
X119200753Y-62464549D01*
X119306045Y-62448690D01*
X119501914Y-62462262D01*
X119637779Y-62506408D01*
X119804218Y-62610556D01*
X119880080Y-62685275D01*
X119941226Y-62805282D01*
X119942369Y-62955862D01*
X119868794Y-63182304D01*
X120339677Y-61733075D02*
X120163096Y-62276536D01*
X120251386Y-62004806D02*
X119300330Y-61695789D01*
X119406765Y-61830511D01*
X119467911Y-61950518D01*
X119483770Y-62055810D01*
X109545037Y-118928364D02*
X110496094Y-118619347D01*
X109868769Y-119924709D02*
X110218648Y-119460539D01*
X109692188Y-119381248D02*
X110643245Y-119072231D01*
X110760965Y-119434538D01*
X110745107Y-119539830D01*
X110714534Y-119599833D01*
X110638672Y-119674552D01*
X110502807Y-119718697D01*
X110397515Y-119702839D01*
X110337512Y-119672266D01*
X110262793Y-119596404D01*
X110145072Y-119234097D01*
X109837053Y-120135293D02*
X110072494Y-120859907D01*
X110383798Y-121509803D02*
X110236647Y-121056919D01*
X111187703Y-120747902D01*
X110984976Y-121664956D02*
X111087981Y-121981975D01*
X110633954Y-122279706D02*
X110486803Y-121826822D01*
X111437860Y-121517805D01*
X111585011Y-121970689D01*
X110766390Y-122687301D02*
X111717447Y-122378284D01*
X111791022Y-122604726D01*
X111789879Y-122755307D01*
X111728732Y-122875314D01*
X111652871Y-122950032D01*
X111486432Y-123054181D01*
X111350567Y-123098326D01*
X111154698Y-123111898D01*
X111049406Y-123096040D01*
X110929399Y-123034894D01*
X110839966Y-122913743D01*
X110766390Y-122687301D01*
X111841881Y-123839942D02*
X111207843Y-124045954D01*
X112130612Y-123495779D02*
X111377711Y-123490064D01*
X111569007Y-124078813D01*
X89876666Y-97242380D02*
X90495714Y-97242380D01*
X90162380Y-97623333D01*
X90305238Y-97623333D01*
X90400476Y-97670952D01*
X90448095Y-97718571D01*
X90495714Y-97813809D01*
X90495714Y-98051904D01*
X90448095Y-98147142D01*
X90400476Y-98194761D01*
X90305238Y-98242380D01*
X90019523Y-98242380D01*
X89924285Y-98194761D01*
X89876666Y-98147142D01*
X90924285Y-98242380D02*
X90924285Y-97242380D01*
X91305238Y-97242380D01*
X91400476Y-97290000D01*
X91448095Y-97337619D01*
X91495714Y-97432857D01*
X91495714Y-97575714D01*
X91448095Y-97670952D01*
X91400476Y-97718571D01*
X91305238Y-97766190D01*
X90924285Y-97766190D01*
X91924285Y-98242380D02*
X91924285Y-97242380D01*
X92162380Y-98337619D02*
X92924285Y-98337619D01*
X93638571Y-97242380D02*
X93162380Y-97242380D01*
X93114761Y-97718571D01*
X93162380Y-97670952D01*
X93257619Y-97623333D01*
X93495714Y-97623333D01*
X93590952Y-97670952D01*
X93638571Y-97718571D01*
X93686190Y-97813809D01*
X93686190Y-98051904D01*
X93638571Y-98147142D01*
X93590952Y-98194761D01*
X93495714Y-98242380D01*
X93257619Y-98242380D01*
X93162380Y-98194761D01*
X93114761Y-98147142D01*
X93971904Y-97242380D02*
X94305238Y-98242380D01*
X94638571Y-97242380D01*
X95495714Y-98242380D02*
X94924285Y-98242380D01*
X95210000Y-98242380D02*
X95210000Y-97242380D01*
X95114761Y-97385238D01*
X95019523Y-97480476D01*
X94924285Y-97528095D01*
M02*
