M48
INCH,TZ
T1C0.0157
T2C0.0315
T3C0.0354
T4C0.0394
%
G90
G05
T1
X30500Y-42000
X34500Y-41000
X37000Y-26000
X40000Y-47000
X41000Y-33000
X50500Y-42500
T2
X38000Y-41500
X38000Y-44500
X39000Y-41500
X39000Y-44500
X40000Y-41500
X40000Y-44500
X41000Y-41500
X41000Y-44500
X42000Y-41500
X42000Y-44500
X43000Y-41500
X43000Y-44500
X44000Y-41500
X44000Y-44500
T3
X35000Y-35500
X35000Y-36500
X35000Y-37500
T4
X31500Y-29309
X32088Y-28500
X31000Y-38500
X32000Y-38500
X39500Y-26000
X39500Y-27000
X39500Y-28000
X53000Y-36500
X53000Y-37500
X45476Y-33547
X45476Y-34547
X33000Y-36000
X33000Y-37000
X45476Y-28547
X45476Y-29547
X51476Y-31547
X36000Y-32500
X37000Y-32500
X42000Y-26000
X42000Y-27000
X42000Y-28000
X44500Y-47500
X45451Y-47191
X36000Y-37500
X37000Y-37500
X45476Y-34547
X34000Y-32500
X34000Y-33500
X51476Y-29547
X45049Y-24691
X46000Y-25000
X32000Y-43500
X32588Y-44309
X45476Y-31547
X45476Y-32547
T0
M30
