G04 #@! TF.GenerationSoftware,KiCad,Pcbnew,(5.1.4)-1*
G04 #@! TF.CreationDate,2022-03-15T15:20:23+00:00*
G04 #@! TF.ProjectId,3Pi_IRComms_v2,3350695f-4952-4436-9f6d-6d735f76322e,rev?*
G04 #@! TF.SameCoordinates,Original*
G04 #@! TF.FileFunction,Soldermask,Bot*
G04 #@! TF.FilePolarity,Negative*
%FSLAX46Y46*%
G04 Gerber Fmt 4.6, Leading zero omitted, Abs format (unit mm)*
G04 Created by KiCad (PCBNEW (5.1.4)-1) date 2022-03-15 15:20:23*
%MOMM*%
%LPD*%
G04 APERTURE LIST*
%ADD10C,0.150000*%
G04 APERTURE END LIST*
D10*
G36*
X114165326Y-121228478D02*
G01*
X112451522Y-121785326D01*
X111894674Y-120071522D01*
X113608478Y-119514674D01*
X114165326Y-121228478D01*
X114165326Y-121228478D01*
G37*
G36*
X115556127Y-118970616D02*
G01*
X115622311Y-118977134D01*
X115792150Y-119028654D01*
X115948675Y-119112319D01*
X115984413Y-119141649D01*
X116085870Y-119224911D01*
X116169132Y-119326368D01*
X116198462Y-119362106D01*
X116282127Y-119518631D01*
X116333647Y-119688470D01*
X116351043Y-119865097D01*
X116333647Y-120041724D01*
X116282127Y-120211563D01*
X116198462Y-120368088D01*
X116169132Y-120403826D01*
X116085870Y-120505283D01*
X115984413Y-120588545D01*
X115948675Y-120617875D01*
X115792150Y-120701540D01*
X115622311Y-120753060D01*
X115556127Y-120759578D01*
X115489944Y-120766097D01*
X115401424Y-120766097D01*
X115335241Y-120759578D01*
X115269057Y-120753060D01*
X115099218Y-120701540D01*
X114942693Y-120617875D01*
X114906955Y-120588545D01*
X114805498Y-120505283D01*
X114722236Y-120403826D01*
X114692906Y-120368088D01*
X114609241Y-120211563D01*
X114557721Y-120041724D01*
X114540325Y-119865097D01*
X114557721Y-119688470D01*
X114609241Y-119518631D01*
X114692906Y-119362106D01*
X114722236Y-119326368D01*
X114805498Y-119224911D01*
X114906955Y-119141649D01*
X114942693Y-119112319D01*
X115099218Y-119028654D01*
X115269057Y-118977134D01*
X115335241Y-118970616D01*
X115401424Y-118964097D01*
X115489944Y-118964097D01*
X115556127Y-118970616D01*
X115556127Y-118970616D01*
G37*
G36*
X122144549Y-114441116D02*
G01*
X122255734Y-114463232D01*
X122465203Y-114549997D01*
X122653720Y-114675960D01*
X122814040Y-114836280D01*
X122940003Y-115024797D01*
X123026768Y-115234266D01*
X123071000Y-115456636D01*
X123071000Y-115683364D01*
X123026768Y-115905734D01*
X122940003Y-116115203D01*
X122814040Y-116303720D01*
X122653720Y-116464040D01*
X122465203Y-116590003D01*
X122255734Y-116676768D01*
X122144549Y-116698884D01*
X122033365Y-116721000D01*
X121806635Y-116721000D01*
X121695451Y-116698884D01*
X121584266Y-116676768D01*
X121374797Y-116590003D01*
X121186280Y-116464040D01*
X121025960Y-116303720D01*
X120899997Y-116115203D01*
X120813232Y-115905734D01*
X120769000Y-115683364D01*
X120769000Y-115456636D01*
X120813232Y-115234266D01*
X120899997Y-115024797D01*
X121025960Y-114836280D01*
X121186280Y-114675960D01*
X121374797Y-114549997D01*
X121584266Y-114463232D01*
X121695451Y-114441116D01*
X121806635Y-114419000D01*
X122033365Y-114419000D01*
X122144549Y-114441116D01*
X122144549Y-114441116D01*
G37*
G36*
X104306823Y-112191313D02*
G01*
X104467242Y-112239976D01*
X104599906Y-112310886D01*
X104615078Y-112318996D01*
X104744659Y-112425341D01*
X104851004Y-112554922D01*
X104851005Y-112554924D01*
X104930024Y-112702758D01*
X104930025Y-112702761D01*
X104939083Y-112732620D01*
X104978687Y-112863177D01*
X104995117Y-113030000D01*
X104978687Y-113196823D01*
X104930024Y-113357242D01*
X104859114Y-113489906D01*
X104851004Y-113505078D01*
X104744659Y-113634659D01*
X104615078Y-113741004D01*
X104615076Y-113741005D01*
X104467242Y-113820024D01*
X104306823Y-113868687D01*
X104181804Y-113881000D01*
X104098196Y-113881000D01*
X103973177Y-113868687D01*
X103812758Y-113820024D01*
X103664924Y-113741005D01*
X103664922Y-113741004D01*
X103535341Y-113634659D01*
X103428996Y-113505078D01*
X103420886Y-113489906D01*
X103349976Y-113357242D01*
X103301313Y-113196823D01*
X103284883Y-113030000D01*
X103301313Y-112863177D01*
X103340917Y-112732620D01*
X103349975Y-112702761D01*
X103349976Y-112702758D01*
X103428995Y-112554924D01*
X103428996Y-112554922D01*
X103535341Y-112425341D01*
X103664922Y-112318996D01*
X103680094Y-112310886D01*
X103812758Y-112239976D01*
X103973177Y-112191313D01*
X104098196Y-112179000D01*
X104181804Y-112179000D01*
X104306823Y-112191313D01*
X104306823Y-112191313D01*
G37*
G36*
X111926823Y-112191313D02*
G01*
X112087242Y-112239976D01*
X112219906Y-112310886D01*
X112235078Y-112318996D01*
X112364659Y-112425341D01*
X112471004Y-112554922D01*
X112471005Y-112554924D01*
X112550024Y-112702758D01*
X112550025Y-112702761D01*
X112559083Y-112732620D01*
X112598687Y-112863177D01*
X112615117Y-113030000D01*
X112598687Y-113196823D01*
X112550024Y-113357242D01*
X112479114Y-113489906D01*
X112471004Y-113505078D01*
X112364659Y-113634659D01*
X112235078Y-113741004D01*
X112235076Y-113741005D01*
X112087242Y-113820024D01*
X111926823Y-113868687D01*
X111801804Y-113881000D01*
X111718196Y-113881000D01*
X111593177Y-113868687D01*
X111432758Y-113820024D01*
X111284924Y-113741005D01*
X111284922Y-113741004D01*
X111155341Y-113634659D01*
X111048996Y-113505078D01*
X111040886Y-113489906D01*
X110969976Y-113357242D01*
X110921313Y-113196823D01*
X110904883Y-113030000D01*
X110921313Y-112863177D01*
X110960917Y-112732620D01*
X110969975Y-112702761D01*
X110969976Y-112702758D01*
X111048995Y-112554924D01*
X111048996Y-112554922D01*
X111155341Y-112425341D01*
X111284922Y-112318996D01*
X111300094Y-112310886D01*
X111432758Y-112239976D01*
X111593177Y-112191313D01*
X111718196Y-112179000D01*
X111801804Y-112179000D01*
X111926823Y-112191313D01*
X111926823Y-112191313D01*
G37*
G36*
X109386823Y-112191313D02*
G01*
X109547242Y-112239976D01*
X109679906Y-112310886D01*
X109695078Y-112318996D01*
X109824659Y-112425341D01*
X109931004Y-112554922D01*
X109931005Y-112554924D01*
X110010024Y-112702758D01*
X110010025Y-112702761D01*
X110019083Y-112732620D01*
X110058687Y-112863177D01*
X110075117Y-113030000D01*
X110058687Y-113196823D01*
X110010024Y-113357242D01*
X109939114Y-113489906D01*
X109931004Y-113505078D01*
X109824659Y-113634659D01*
X109695078Y-113741004D01*
X109695076Y-113741005D01*
X109547242Y-113820024D01*
X109386823Y-113868687D01*
X109261804Y-113881000D01*
X109178196Y-113881000D01*
X109053177Y-113868687D01*
X108892758Y-113820024D01*
X108744924Y-113741005D01*
X108744922Y-113741004D01*
X108615341Y-113634659D01*
X108508996Y-113505078D01*
X108500886Y-113489906D01*
X108429976Y-113357242D01*
X108381313Y-113196823D01*
X108364883Y-113030000D01*
X108381313Y-112863177D01*
X108420917Y-112732620D01*
X108429975Y-112702761D01*
X108429976Y-112702758D01*
X108508995Y-112554924D01*
X108508996Y-112554922D01*
X108615341Y-112425341D01*
X108744922Y-112318996D01*
X108760094Y-112310886D01*
X108892758Y-112239976D01*
X109053177Y-112191313D01*
X109178196Y-112179000D01*
X109261804Y-112179000D01*
X109386823Y-112191313D01*
X109386823Y-112191313D01*
G37*
G36*
X106846823Y-112191313D02*
G01*
X107007242Y-112239976D01*
X107139906Y-112310886D01*
X107155078Y-112318996D01*
X107284659Y-112425341D01*
X107391004Y-112554922D01*
X107391005Y-112554924D01*
X107470024Y-112702758D01*
X107470025Y-112702761D01*
X107479083Y-112732620D01*
X107518687Y-112863177D01*
X107535117Y-113030000D01*
X107518687Y-113196823D01*
X107470024Y-113357242D01*
X107399114Y-113489906D01*
X107391004Y-113505078D01*
X107284659Y-113634659D01*
X107155078Y-113741004D01*
X107155076Y-113741005D01*
X107007242Y-113820024D01*
X106846823Y-113868687D01*
X106721804Y-113881000D01*
X106638196Y-113881000D01*
X106513177Y-113868687D01*
X106352758Y-113820024D01*
X106204924Y-113741005D01*
X106204922Y-113741004D01*
X106075341Y-113634659D01*
X105968996Y-113505078D01*
X105960886Y-113489906D01*
X105889976Y-113357242D01*
X105841313Y-113196823D01*
X105824883Y-113030000D01*
X105841313Y-112863177D01*
X105880917Y-112732620D01*
X105889975Y-112702761D01*
X105889976Y-112702758D01*
X105968995Y-112554924D01*
X105968996Y-112554922D01*
X106075341Y-112425341D01*
X106204922Y-112318996D01*
X106220094Y-112310886D01*
X106352758Y-112239976D01*
X106513177Y-112191313D01*
X106638196Y-112179000D01*
X106721804Y-112179000D01*
X106846823Y-112191313D01*
X106846823Y-112191313D01*
G37*
G36*
X101766823Y-112191313D02*
G01*
X101927242Y-112239976D01*
X102059906Y-112310886D01*
X102075078Y-112318996D01*
X102204659Y-112425341D01*
X102311004Y-112554922D01*
X102311005Y-112554924D01*
X102390024Y-112702758D01*
X102390025Y-112702761D01*
X102399083Y-112732620D01*
X102438687Y-112863177D01*
X102455117Y-113030000D01*
X102438687Y-113196823D01*
X102390024Y-113357242D01*
X102319114Y-113489906D01*
X102311004Y-113505078D01*
X102204659Y-113634659D01*
X102075078Y-113741004D01*
X102075076Y-113741005D01*
X101927242Y-113820024D01*
X101766823Y-113868687D01*
X101641804Y-113881000D01*
X101558196Y-113881000D01*
X101433177Y-113868687D01*
X101272758Y-113820024D01*
X101124924Y-113741005D01*
X101124922Y-113741004D01*
X100995341Y-113634659D01*
X100888996Y-113505078D01*
X100880886Y-113489906D01*
X100809976Y-113357242D01*
X100761313Y-113196823D01*
X100744883Y-113030000D01*
X100761313Y-112863177D01*
X100800917Y-112732620D01*
X100809975Y-112702761D01*
X100809976Y-112702758D01*
X100888995Y-112554924D01*
X100888996Y-112554922D01*
X100995341Y-112425341D01*
X101124922Y-112318996D01*
X101140094Y-112310886D01*
X101272758Y-112239976D01*
X101433177Y-112191313D01*
X101558196Y-112179000D01*
X101641804Y-112179000D01*
X101766823Y-112191313D01*
X101766823Y-112191313D01*
G37*
G36*
X99226823Y-112191313D02*
G01*
X99387242Y-112239976D01*
X99519906Y-112310886D01*
X99535078Y-112318996D01*
X99664659Y-112425341D01*
X99771004Y-112554922D01*
X99771005Y-112554924D01*
X99850024Y-112702758D01*
X99850025Y-112702761D01*
X99859083Y-112732620D01*
X99898687Y-112863177D01*
X99915117Y-113030000D01*
X99898687Y-113196823D01*
X99850024Y-113357242D01*
X99779114Y-113489906D01*
X99771004Y-113505078D01*
X99664659Y-113634659D01*
X99535078Y-113741004D01*
X99535076Y-113741005D01*
X99387242Y-113820024D01*
X99226823Y-113868687D01*
X99101804Y-113881000D01*
X99018196Y-113881000D01*
X98893177Y-113868687D01*
X98732758Y-113820024D01*
X98584924Y-113741005D01*
X98584922Y-113741004D01*
X98455341Y-113634659D01*
X98348996Y-113505078D01*
X98340886Y-113489906D01*
X98269976Y-113357242D01*
X98221313Y-113196823D01*
X98204883Y-113030000D01*
X98221313Y-112863177D01*
X98260917Y-112732620D01*
X98269975Y-112702761D01*
X98269976Y-112702758D01*
X98348995Y-112554924D01*
X98348996Y-112554922D01*
X98455341Y-112425341D01*
X98584922Y-112318996D01*
X98600094Y-112310886D01*
X98732758Y-112239976D01*
X98893177Y-112191313D01*
X99018196Y-112179000D01*
X99101804Y-112179000D01*
X99226823Y-112191313D01*
X99226823Y-112191313D01*
G37*
G36*
X97371000Y-113881000D02*
G01*
X95669000Y-113881000D01*
X95669000Y-112179000D01*
X97371000Y-112179000D01*
X97371000Y-113881000D01*
X97371000Y-113881000D01*
G37*
G36*
X82883417Y-111650421D02*
G01*
X82949602Y-111656940D01*
X83119441Y-111708460D01*
X83275966Y-111792125D01*
X83311704Y-111821455D01*
X83413161Y-111904717D01*
X83496423Y-112006174D01*
X83525753Y-112041912D01*
X83609418Y-112198437D01*
X83660938Y-112368276D01*
X83678334Y-112544903D01*
X83660938Y-112721530D01*
X83609418Y-112891369D01*
X83525753Y-113047894D01*
X83496423Y-113083632D01*
X83413161Y-113185089D01*
X83311704Y-113268351D01*
X83275966Y-113297681D01*
X83119441Y-113381346D01*
X82949602Y-113432866D01*
X82883418Y-113439384D01*
X82817235Y-113445903D01*
X82728715Y-113445903D01*
X82662532Y-113439384D01*
X82596348Y-113432866D01*
X82426509Y-113381346D01*
X82269984Y-113297681D01*
X82234246Y-113268351D01*
X82132789Y-113185089D01*
X82049527Y-113083632D01*
X82020197Y-113047894D01*
X81936532Y-112891369D01*
X81885012Y-112721530D01*
X81867616Y-112544903D01*
X81885012Y-112368276D01*
X81936532Y-112198437D01*
X82020197Y-112041912D01*
X82049527Y-112006174D01*
X82132789Y-111904717D01*
X82234246Y-111821455D01*
X82269984Y-111792125D01*
X82426509Y-111708460D01*
X82596348Y-111656940D01*
X82662533Y-111650421D01*
X82728715Y-111643903D01*
X82817235Y-111643903D01*
X82883417Y-111650421D01*
X82883417Y-111650421D01*
G37*
G36*
X82538519Y-110689330D02*
G01*
X81080670Y-111748519D01*
X80021481Y-110290670D01*
X81479330Y-109231481D01*
X82538519Y-110689330D01*
X82538519Y-110689330D01*
G37*
G36*
X101766823Y-104571313D02*
G01*
X101927242Y-104619976D01*
X102059906Y-104690886D01*
X102075078Y-104698996D01*
X102204659Y-104805341D01*
X102311004Y-104934922D01*
X102311005Y-104934924D01*
X102390024Y-105082758D01*
X102438687Y-105243177D01*
X102455117Y-105410000D01*
X102438687Y-105576823D01*
X102390024Y-105737242D01*
X102319114Y-105869906D01*
X102311004Y-105885078D01*
X102204659Y-106014659D01*
X102075078Y-106121004D01*
X102075076Y-106121005D01*
X101927242Y-106200024D01*
X101766823Y-106248687D01*
X101641804Y-106261000D01*
X101558196Y-106261000D01*
X101433177Y-106248687D01*
X101272758Y-106200024D01*
X101124924Y-106121005D01*
X101124922Y-106121004D01*
X100995341Y-106014659D01*
X100888996Y-105885078D01*
X100880886Y-105869906D01*
X100809976Y-105737242D01*
X100761313Y-105576823D01*
X100744883Y-105410000D01*
X100761313Y-105243177D01*
X100809976Y-105082758D01*
X100888995Y-104934924D01*
X100888996Y-104934922D01*
X100995341Y-104805341D01*
X101124922Y-104698996D01*
X101140094Y-104690886D01*
X101272758Y-104619976D01*
X101433177Y-104571313D01*
X101558196Y-104559000D01*
X101641804Y-104559000D01*
X101766823Y-104571313D01*
X101766823Y-104571313D01*
G37*
G36*
X99226823Y-104571313D02*
G01*
X99387242Y-104619976D01*
X99519906Y-104690886D01*
X99535078Y-104698996D01*
X99664659Y-104805341D01*
X99771004Y-104934922D01*
X99771005Y-104934924D01*
X99850024Y-105082758D01*
X99898687Y-105243177D01*
X99915117Y-105410000D01*
X99898687Y-105576823D01*
X99850024Y-105737242D01*
X99779114Y-105869906D01*
X99771004Y-105885078D01*
X99664659Y-106014659D01*
X99535078Y-106121004D01*
X99535076Y-106121005D01*
X99387242Y-106200024D01*
X99226823Y-106248687D01*
X99101804Y-106261000D01*
X99018196Y-106261000D01*
X98893177Y-106248687D01*
X98732758Y-106200024D01*
X98584924Y-106121005D01*
X98584922Y-106121004D01*
X98455341Y-106014659D01*
X98348996Y-105885078D01*
X98340886Y-105869906D01*
X98269976Y-105737242D01*
X98221313Y-105576823D01*
X98204883Y-105410000D01*
X98221313Y-105243177D01*
X98269976Y-105082758D01*
X98348995Y-104934924D01*
X98348996Y-104934922D01*
X98455341Y-104805341D01*
X98584922Y-104698996D01*
X98600094Y-104690886D01*
X98732758Y-104619976D01*
X98893177Y-104571313D01*
X99018196Y-104559000D01*
X99101804Y-104559000D01*
X99226823Y-104571313D01*
X99226823Y-104571313D01*
G37*
G36*
X111926823Y-104571313D02*
G01*
X112087242Y-104619976D01*
X112219906Y-104690886D01*
X112235078Y-104698996D01*
X112364659Y-104805341D01*
X112471004Y-104934922D01*
X112471005Y-104934924D01*
X112550024Y-105082758D01*
X112598687Y-105243177D01*
X112615117Y-105410000D01*
X112598687Y-105576823D01*
X112550024Y-105737242D01*
X112479114Y-105869906D01*
X112471004Y-105885078D01*
X112364659Y-106014659D01*
X112235078Y-106121004D01*
X112235076Y-106121005D01*
X112087242Y-106200024D01*
X111926823Y-106248687D01*
X111801804Y-106261000D01*
X111718196Y-106261000D01*
X111593177Y-106248687D01*
X111432758Y-106200024D01*
X111284924Y-106121005D01*
X111284922Y-106121004D01*
X111155341Y-106014659D01*
X111048996Y-105885078D01*
X111040886Y-105869906D01*
X110969976Y-105737242D01*
X110921313Y-105576823D01*
X110904883Y-105410000D01*
X110921313Y-105243177D01*
X110969976Y-105082758D01*
X111048995Y-104934924D01*
X111048996Y-104934922D01*
X111155341Y-104805341D01*
X111284922Y-104698996D01*
X111300094Y-104690886D01*
X111432758Y-104619976D01*
X111593177Y-104571313D01*
X111718196Y-104559000D01*
X111801804Y-104559000D01*
X111926823Y-104571313D01*
X111926823Y-104571313D01*
G37*
G36*
X96686823Y-104571313D02*
G01*
X96847242Y-104619976D01*
X96979906Y-104690886D01*
X96995078Y-104698996D01*
X97124659Y-104805341D01*
X97231004Y-104934922D01*
X97231005Y-104934924D01*
X97310024Y-105082758D01*
X97358687Y-105243177D01*
X97375117Y-105410000D01*
X97358687Y-105576823D01*
X97310024Y-105737242D01*
X97239114Y-105869906D01*
X97231004Y-105885078D01*
X97124659Y-106014659D01*
X96995078Y-106121004D01*
X96995076Y-106121005D01*
X96847242Y-106200024D01*
X96686823Y-106248687D01*
X96561804Y-106261000D01*
X96478196Y-106261000D01*
X96353177Y-106248687D01*
X96192758Y-106200024D01*
X96044924Y-106121005D01*
X96044922Y-106121004D01*
X95915341Y-106014659D01*
X95808996Y-105885078D01*
X95800886Y-105869906D01*
X95729976Y-105737242D01*
X95681313Y-105576823D01*
X95664883Y-105410000D01*
X95681313Y-105243177D01*
X95729976Y-105082758D01*
X95808995Y-104934924D01*
X95808996Y-104934922D01*
X95915341Y-104805341D01*
X96044922Y-104698996D01*
X96060094Y-104690886D01*
X96192758Y-104619976D01*
X96353177Y-104571313D01*
X96478196Y-104559000D01*
X96561804Y-104559000D01*
X96686823Y-104571313D01*
X96686823Y-104571313D01*
G37*
G36*
X109386823Y-104571313D02*
G01*
X109547242Y-104619976D01*
X109679906Y-104690886D01*
X109695078Y-104698996D01*
X109824659Y-104805341D01*
X109931004Y-104934922D01*
X109931005Y-104934924D01*
X110010024Y-105082758D01*
X110058687Y-105243177D01*
X110075117Y-105410000D01*
X110058687Y-105576823D01*
X110010024Y-105737242D01*
X109939114Y-105869906D01*
X109931004Y-105885078D01*
X109824659Y-106014659D01*
X109695078Y-106121004D01*
X109695076Y-106121005D01*
X109547242Y-106200024D01*
X109386823Y-106248687D01*
X109261804Y-106261000D01*
X109178196Y-106261000D01*
X109053177Y-106248687D01*
X108892758Y-106200024D01*
X108744924Y-106121005D01*
X108744922Y-106121004D01*
X108615341Y-106014659D01*
X108508996Y-105885078D01*
X108500886Y-105869906D01*
X108429976Y-105737242D01*
X108381313Y-105576823D01*
X108364883Y-105410000D01*
X108381313Y-105243177D01*
X108429976Y-105082758D01*
X108508995Y-104934924D01*
X108508996Y-104934922D01*
X108615341Y-104805341D01*
X108744922Y-104698996D01*
X108760094Y-104690886D01*
X108892758Y-104619976D01*
X109053177Y-104571313D01*
X109178196Y-104559000D01*
X109261804Y-104559000D01*
X109386823Y-104571313D01*
X109386823Y-104571313D01*
G37*
G36*
X104306823Y-104571313D02*
G01*
X104467242Y-104619976D01*
X104599906Y-104690886D01*
X104615078Y-104698996D01*
X104744659Y-104805341D01*
X104851004Y-104934922D01*
X104851005Y-104934924D01*
X104930024Y-105082758D01*
X104978687Y-105243177D01*
X104995117Y-105410000D01*
X104978687Y-105576823D01*
X104930024Y-105737242D01*
X104859114Y-105869906D01*
X104851004Y-105885078D01*
X104744659Y-106014659D01*
X104615078Y-106121004D01*
X104615076Y-106121005D01*
X104467242Y-106200024D01*
X104306823Y-106248687D01*
X104181804Y-106261000D01*
X104098196Y-106261000D01*
X103973177Y-106248687D01*
X103812758Y-106200024D01*
X103664924Y-106121005D01*
X103664922Y-106121004D01*
X103535341Y-106014659D01*
X103428996Y-105885078D01*
X103420886Y-105869906D01*
X103349976Y-105737242D01*
X103301313Y-105576823D01*
X103284883Y-105410000D01*
X103301313Y-105243177D01*
X103349976Y-105082758D01*
X103428995Y-104934924D01*
X103428996Y-104934922D01*
X103535341Y-104805341D01*
X103664922Y-104698996D01*
X103680094Y-104690886D01*
X103812758Y-104619976D01*
X103973177Y-104571313D01*
X104098196Y-104559000D01*
X104181804Y-104559000D01*
X104306823Y-104571313D01*
X104306823Y-104571313D01*
G37*
G36*
X106846823Y-104571313D02*
G01*
X107007242Y-104619976D01*
X107139906Y-104690886D01*
X107155078Y-104698996D01*
X107284659Y-104805341D01*
X107391004Y-104934922D01*
X107391005Y-104934924D01*
X107470024Y-105082758D01*
X107518687Y-105243177D01*
X107535117Y-105410000D01*
X107518687Y-105576823D01*
X107470024Y-105737242D01*
X107399114Y-105869906D01*
X107391004Y-105885078D01*
X107284659Y-106014659D01*
X107155078Y-106121004D01*
X107155076Y-106121005D01*
X107007242Y-106200024D01*
X106846823Y-106248687D01*
X106721804Y-106261000D01*
X106638196Y-106261000D01*
X106513177Y-106248687D01*
X106352758Y-106200024D01*
X106204924Y-106121005D01*
X106204922Y-106121004D01*
X106075341Y-106014659D01*
X105968996Y-105885078D01*
X105960886Y-105869906D01*
X105889976Y-105737242D01*
X105841313Y-105576823D01*
X105824883Y-105410000D01*
X105841313Y-105243177D01*
X105889976Y-105082758D01*
X105968995Y-104934924D01*
X105968996Y-104934922D01*
X106075341Y-104805341D01*
X106204922Y-104698996D01*
X106220094Y-104690886D01*
X106352758Y-104619976D01*
X106513177Y-104571313D01*
X106638196Y-104559000D01*
X106721804Y-104559000D01*
X106846823Y-104571313D01*
X106846823Y-104571313D01*
G37*
G36*
X115873765Y-99328620D02*
G01*
X116063288Y-99407123D01*
X116233854Y-99521092D01*
X116378908Y-99666146D01*
X116492877Y-99836712D01*
X116571380Y-100026235D01*
X116611400Y-100227431D01*
X116611400Y-100432569D01*
X116571380Y-100633765D01*
X116492877Y-100823288D01*
X116378908Y-100993854D01*
X116233854Y-101138908D01*
X116063288Y-101252877D01*
X116063287Y-101252878D01*
X116063286Y-101252878D01*
X115873765Y-101331380D01*
X115672570Y-101371400D01*
X115467430Y-101371400D01*
X115266235Y-101331380D01*
X115076714Y-101252878D01*
X115076713Y-101252878D01*
X115076712Y-101252877D01*
X114906146Y-101138908D01*
X114761092Y-100993854D01*
X114647123Y-100823288D01*
X114568620Y-100633765D01*
X114528600Y-100432569D01*
X114528600Y-100227431D01*
X114568620Y-100026235D01*
X114647123Y-99836712D01*
X114761092Y-99666146D01*
X114906146Y-99521092D01*
X115076712Y-99407123D01*
X115266235Y-99328620D01*
X115467430Y-99288600D01*
X115672570Y-99288600D01*
X115873765Y-99328620D01*
X115873765Y-99328620D01*
G37*
G36*
X131113765Y-99328620D02*
G01*
X131303288Y-99407123D01*
X131473854Y-99521092D01*
X131618908Y-99666146D01*
X131732877Y-99836712D01*
X131811380Y-100026235D01*
X131851400Y-100227431D01*
X131851400Y-100432569D01*
X131811380Y-100633765D01*
X131732877Y-100823288D01*
X131618908Y-100993854D01*
X131473854Y-101138908D01*
X131303288Y-101252877D01*
X131303287Y-101252878D01*
X131303286Y-101252878D01*
X131113765Y-101331380D01*
X130912570Y-101371400D01*
X130707430Y-101371400D01*
X130506235Y-101331380D01*
X130316714Y-101252878D01*
X130316713Y-101252878D01*
X130316712Y-101252877D01*
X130146146Y-101138908D01*
X130001092Y-100993854D01*
X129887123Y-100823288D01*
X129808620Y-100633765D01*
X129768600Y-100432569D01*
X129768600Y-100227431D01*
X129808620Y-100026235D01*
X129887123Y-99836712D01*
X130001092Y-99666146D01*
X130146146Y-99521092D01*
X130316712Y-99407123D01*
X130506235Y-99328620D01*
X130707430Y-99288600D01*
X130912570Y-99288600D01*
X131113765Y-99328620D01*
X131113765Y-99328620D01*
G37*
G36*
X115873765Y-96788620D02*
G01*
X116063288Y-96867123D01*
X116233854Y-96981092D01*
X116378908Y-97126146D01*
X116486395Y-97287011D01*
X116492878Y-97296714D01*
X116571380Y-97486235D01*
X116611400Y-97687430D01*
X116611400Y-97892570D01*
X116596669Y-97966627D01*
X116571380Y-98093765D01*
X116492877Y-98283288D01*
X116378908Y-98453854D01*
X116233854Y-98598908D01*
X116063288Y-98712877D01*
X116063287Y-98712878D01*
X116063286Y-98712878D01*
X115873765Y-98791380D01*
X115672570Y-98831400D01*
X115467430Y-98831400D01*
X115266235Y-98791380D01*
X115076714Y-98712878D01*
X115076713Y-98712878D01*
X115076712Y-98712877D01*
X114906146Y-98598908D01*
X114761092Y-98453854D01*
X114647123Y-98283288D01*
X114568620Y-98093765D01*
X114543331Y-97966627D01*
X114528600Y-97892570D01*
X114528600Y-97687430D01*
X114568620Y-97486235D01*
X114647122Y-97296714D01*
X114653605Y-97287011D01*
X114761092Y-97126146D01*
X114906146Y-96981092D01*
X115076712Y-96867123D01*
X115266235Y-96788620D01*
X115467430Y-96748600D01*
X115672570Y-96748600D01*
X115873765Y-96788620D01*
X115873765Y-96788620D01*
G37*
G36*
X131113765Y-96788620D02*
G01*
X131303288Y-96867123D01*
X131473854Y-96981092D01*
X131618908Y-97126146D01*
X131726395Y-97287011D01*
X131732878Y-97296714D01*
X131811380Y-97486235D01*
X131851400Y-97687430D01*
X131851400Y-97892570D01*
X131836669Y-97966627D01*
X131811380Y-98093765D01*
X131732877Y-98283288D01*
X131618908Y-98453854D01*
X131473854Y-98598908D01*
X131303288Y-98712877D01*
X131303287Y-98712878D01*
X131303286Y-98712878D01*
X131113765Y-98791380D01*
X130912570Y-98831400D01*
X130707430Y-98831400D01*
X130506235Y-98791380D01*
X130316714Y-98712878D01*
X130316713Y-98712878D01*
X130316712Y-98712877D01*
X130146146Y-98598908D01*
X130001092Y-98453854D01*
X129887123Y-98283288D01*
X129808620Y-98093765D01*
X129783331Y-97966627D01*
X129768600Y-97892570D01*
X129768600Y-97687430D01*
X129808620Y-97486235D01*
X129887122Y-97296714D01*
X129893605Y-97287011D01*
X130001092Y-97126146D01*
X130146146Y-96981092D01*
X130316712Y-96867123D01*
X130506235Y-96788620D01*
X130707430Y-96748600D01*
X130912570Y-96748600D01*
X131113765Y-96788620D01*
X131113765Y-96788620D01*
G37*
G36*
X94881000Y-98691000D02*
G01*
X93079000Y-98691000D01*
X93079000Y-96889000D01*
X94881000Y-96889000D01*
X94881000Y-98691000D01*
X94881000Y-98691000D01*
G37*
G36*
X91550442Y-96895518D02*
G01*
X91616627Y-96902037D01*
X91786466Y-96953557D01*
X91942991Y-97037222D01*
X91978729Y-97066552D01*
X92080186Y-97149814D01*
X92163448Y-97251271D01*
X92192778Y-97287009D01*
X92276443Y-97443534D01*
X92327963Y-97613373D01*
X92345359Y-97790000D01*
X92327963Y-97966627D01*
X92276443Y-98136466D01*
X92192778Y-98292991D01*
X92163448Y-98328729D01*
X92080186Y-98430186D01*
X91978729Y-98513448D01*
X91942991Y-98542778D01*
X91786466Y-98626443D01*
X91616627Y-98677963D01*
X91550442Y-98684482D01*
X91484260Y-98691000D01*
X91395740Y-98691000D01*
X91329558Y-98684482D01*
X91263373Y-98677963D01*
X91093534Y-98626443D01*
X90937009Y-98542778D01*
X90901271Y-98513448D01*
X90799814Y-98430186D01*
X90716552Y-98328729D01*
X90687222Y-98292991D01*
X90603557Y-98136466D01*
X90552037Y-97966627D01*
X90534641Y-97790000D01*
X90552037Y-97613373D01*
X90603557Y-97443534D01*
X90687222Y-97287009D01*
X90716552Y-97251271D01*
X90799814Y-97149814D01*
X90901271Y-97066552D01*
X90937009Y-97037222D01*
X91093534Y-96953557D01*
X91263373Y-96902037D01*
X91329558Y-96895518D01*
X91395740Y-96889000D01*
X91484260Y-96889000D01*
X91550442Y-96895518D01*
X91550442Y-96895518D01*
G37*
G36*
X115873765Y-94248620D02*
G01*
X116063288Y-94327123D01*
X116233854Y-94441092D01*
X116378908Y-94586146D01*
X116486395Y-94747011D01*
X116492878Y-94756714D01*
X116571380Y-94946235D01*
X116611400Y-95147430D01*
X116611400Y-95352570D01*
X116571380Y-95553765D01*
X116510615Y-95700466D01*
X116492877Y-95743288D01*
X116378908Y-95913854D01*
X116233854Y-96058908D01*
X116063288Y-96172877D01*
X116063287Y-96172878D01*
X116063286Y-96172878D01*
X115873765Y-96251380D01*
X115672570Y-96291400D01*
X115467430Y-96291400D01*
X115266235Y-96251380D01*
X115076714Y-96172878D01*
X115076713Y-96172878D01*
X115076712Y-96172877D01*
X114906146Y-96058908D01*
X114761092Y-95913854D01*
X114647123Y-95743288D01*
X114629386Y-95700466D01*
X114568620Y-95553765D01*
X114528600Y-95352570D01*
X114528600Y-95147430D01*
X114568620Y-94946235D01*
X114647122Y-94756714D01*
X114653605Y-94747011D01*
X114761092Y-94586146D01*
X114906146Y-94441092D01*
X115076712Y-94327123D01*
X115266235Y-94248620D01*
X115467430Y-94208600D01*
X115672570Y-94208600D01*
X115873765Y-94248620D01*
X115873765Y-94248620D01*
G37*
G36*
X131113765Y-94248620D02*
G01*
X131303288Y-94327123D01*
X131473854Y-94441092D01*
X131618908Y-94586146D01*
X131726395Y-94747011D01*
X131732878Y-94756714D01*
X131811380Y-94946235D01*
X131851400Y-95147430D01*
X131851400Y-95352570D01*
X131811380Y-95553765D01*
X131750615Y-95700466D01*
X131732877Y-95743288D01*
X131618908Y-95913854D01*
X131473854Y-96058908D01*
X131303288Y-96172877D01*
X131303287Y-96172878D01*
X131303286Y-96172878D01*
X131113765Y-96251380D01*
X130912570Y-96291400D01*
X130707430Y-96291400D01*
X130506235Y-96251380D01*
X130316714Y-96172878D01*
X130316713Y-96172878D01*
X130316712Y-96172877D01*
X130146146Y-96058908D01*
X130001092Y-95913854D01*
X129887123Y-95743288D01*
X129869386Y-95700466D01*
X129808620Y-95553765D01*
X129768600Y-95352570D01*
X129768600Y-95147430D01*
X129808620Y-94946235D01*
X129887122Y-94756714D01*
X129893605Y-94747011D01*
X130001092Y-94586146D01*
X130146146Y-94441092D01*
X130316712Y-94327123D01*
X130506235Y-94248620D01*
X130707430Y-94208600D01*
X130912570Y-94208600D01*
X131113765Y-94248620D01*
X131113765Y-94248620D01*
G37*
G36*
X89177395Y-94335546D02*
G01*
X89350466Y-94407234D01*
X89401138Y-94441092D01*
X89506227Y-94511310D01*
X89638690Y-94643773D01*
X89638691Y-94643775D01*
X89742766Y-94799534D01*
X89814454Y-94972605D01*
X89851000Y-95156333D01*
X89851000Y-95343667D01*
X89814454Y-95527395D01*
X89742766Y-95700466D01*
X89714153Y-95743288D01*
X89638690Y-95856227D01*
X89506227Y-95988690D01*
X89485141Y-96002779D01*
X89350466Y-96092766D01*
X89177395Y-96164454D01*
X88993667Y-96201000D01*
X88806333Y-96201000D01*
X88622605Y-96164454D01*
X88449534Y-96092766D01*
X88314859Y-96002779D01*
X88293773Y-95988690D01*
X88161310Y-95856227D01*
X88085847Y-95743288D01*
X88057234Y-95700466D01*
X87985546Y-95527395D01*
X87949000Y-95343667D01*
X87949000Y-95156333D01*
X87985546Y-94972605D01*
X88057234Y-94799534D01*
X88161309Y-94643775D01*
X88161310Y-94643773D01*
X88293773Y-94511310D01*
X88398862Y-94441092D01*
X88449534Y-94407234D01*
X88622605Y-94335546D01*
X88806333Y-94299000D01*
X88993667Y-94299000D01*
X89177395Y-94335546D01*
X89177395Y-94335546D01*
G37*
G36*
X134730442Y-94355518D02*
G01*
X134796627Y-94362037D01*
X134966466Y-94413557D01*
X135122991Y-94497222D01*
X135140156Y-94511309D01*
X135260186Y-94609814D01*
X135343448Y-94711271D01*
X135372778Y-94747009D01*
X135456443Y-94903534D01*
X135507963Y-95073373D01*
X135525359Y-95250000D01*
X135507963Y-95426627D01*
X135456443Y-95596466D01*
X135372778Y-95752991D01*
X135343448Y-95788729D01*
X135260186Y-95890186D01*
X135158729Y-95973448D01*
X135122991Y-96002778D01*
X134966466Y-96086443D01*
X134796627Y-96137963D01*
X134730443Y-96144481D01*
X134664260Y-96151000D01*
X134575740Y-96151000D01*
X134509558Y-96144482D01*
X134443373Y-96137963D01*
X134273534Y-96086443D01*
X134117009Y-96002778D01*
X134081271Y-95973448D01*
X133979814Y-95890186D01*
X133896552Y-95788729D01*
X133867222Y-95752991D01*
X133783557Y-95596466D01*
X133732037Y-95426627D01*
X133714641Y-95250000D01*
X133732037Y-95073373D01*
X133783557Y-94903534D01*
X133867222Y-94747009D01*
X133896552Y-94711271D01*
X133979814Y-94609814D01*
X134099844Y-94511309D01*
X134117009Y-94497222D01*
X134273534Y-94413557D01*
X134443373Y-94362037D01*
X134509557Y-94355519D01*
X134575740Y-94349000D01*
X134664260Y-94349000D01*
X134730442Y-94355518D01*
X134730442Y-94355518D01*
G37*
G36*
X91550442Y-94355518D02*
G01*
X91616627Y-94362037D01*
X91786466Y-94413557D01*
X91942991Y-94497222D01*
X91960156Y-94511309D01*
X92080186Y-94609814D01*
X92163448Y-94711271D01*
X92192778Y-94747009D01*
X92276443Y-94903534D01*
X92327963Y-95073373D01*
X92345359Y-95250000D01*
X92327963Y-95426627D01*
X92276443Y-95596466D01*
X92192778Y-95752991D01*
X92163448Y-95788729D01*
X92080186Y-95890186D01*
X91978729Y-95973448D01*
X91942991Y-96002778D01*
X91786466Y-96086443D01*
X91616627Y-96137963D01*
X91550442Y-96144482D01*
X91484260Y-96151000D01*
X91395740Y-96151000D01*
X91329558Y-96144482D01*
X91263373Y-96137963D01*
X91093534Y-96086443D01*
X90937009Y-96002778D01*
X90901271Y-95973448D01*
X90799814Y-95890186D01*
X90716552Y-95788729D01*
X90687222Y-95752991D01*
X90603557Y-95596466D01*
X90552037Y-95426627D01*
X90534641Y-95250000D01*
X90552037Y-95073373D01*
X90603557Y-94903534D01*
X90687222Y-94747009D01*
X90716552Y-94711271D01*
X90799814Y-94609814D01*
X90919844Y-94511309D01*
X90937009Y-94497222D01*
X91093534Y-94413557D01*
X91263373Y-94362037D01*
X91329558Y-94355518D01*
X91395740Y-94349000D01*
X91484260Y-94349000D01*
X91550442Y-94355518D01*
X91550442Y-94355518D01*
G37*
G36*
X94881000Y-96151000D02*
G01*
X93079000Y-96151000D01*
X93079000Y-94349000D01*
X94881000Y-94349000D01*
X94881000Y-96151000D01*
X94881000Y-96151000D01*
G37*
G36*
X128256265Y-93136100D02*
G01*
X128418472Y-93203288D01*
X128445788Y-93214603D01*
X128616354Y-93328572D01*
X128761408Y-93473626D01*
X128867817Y-93632878D01*
X128875378Y-93644194D01*
X128953880Y-93833715D01*
X128993900Y-94034910D01*
X128993900Y-94240050D01*
X128953880Y-94441245D01*
X128884057Y-94609814D01*
X128875377Y-94630768D01*
X128761408Y-94801334D01*
X128616354Y-94946388D01*
X128445788Y-95060357D01*
X128445787Y-95060358D01*
X128445786Y-95060358D01*
X128256265Y-95138860D01*
X128055070Y-95178880D01*
X127849930Y-95178880D01*
X127648735Y-95138860D01*
X127459214Y-95060358D01*
X127459213Y-95060358D01*
X127459212Y-95060357D01*
X127288646Y-94946388D01*
X127143592Y-94801334D01*
X127029623Y-94630768D01*
X127020944Y-94609814D01*
X126951120Y-94441245D01*
X126911100Y-94240050D01*
X126911100Y-94034910D01*
X126951120Y-93833715D01*
X127029622Y-93644194D01*
X127037183Y-93632878D01*
X127143592Y-93473626D01*
X127288646Y-93328572D01*
X127459212Y-93214603D01*
X127486529Y-93203288D01*
X127648735Y-93136100D01*
X127849930Y-93096080D01*
X128055070Y-93096080D01*
X128256265Y-93136100D01*
X128256265Y-93136100D01*
G37*
G36*
X84721000Y-94881000D02*
G01*
X82919000Y-94881000D01*
X82919000Y-93079000D01*
X84721000Y-93079000D01*
X84721000Y-94881000D01*
X84721000Y-94881000D01*
G37*
G36*
X115873765Y-91708620D02*
G01*
X116063288Y-91787123D01*
X116233854Y-91901092D01*
X116378908Y-92046146D01*
X116476885Y-92192779D01*
X116492878Y-92216714D01*
X116571380Y-92406235D01*
X116611400Y-92607430D01*
X116611400Y-92812570D01*
X116571380Y-93013765D01*
X116510615Y-93160466D01*
X116492877Y-93203288D01*
X116378908Y-93373854D01*
X116233854Y-93518908D01*
X116063288Y-93632877D01*
X116063287Y-93632878D01*
X116063286Y-93632878D01*
X115873765Y-93711380D01*
X115672570Y-93751400D01*
X115467430Y-93751400D01*
X115266235Y-93711380D01*
X115076714Y-93632878D01*
X115076713Y-93632878D01*
X115076712Y-93632877D01*
X114906146Y-93518908D01*
X114761092Y-93373854D01*
X114647123Y-93203288D01*
X114629386Y-93160466D01*
X114568620Y-93013765D01*
X114528600Y-92812570D01*
X114528600Y-92607430D01*
X114568620Y-92406235D01*
X114647122Y-92216714D01*
X114663115Y-92192779D01*
X114761092Y-92046146D01*
X114906146Y-91901092D01*
X115076712Y-91787123D01*
X115266235Y-91708620D01*
X115467430Y-91668600D01*
X115672570Y-91668600D01*
X115873765Y-91708620D01*
X115873765Y-91708620D01*
G37*
G36*
X131113765Y-91708620D02*
G01*
X131303288Y-91787123D01*
X131473854Y-91901092D01*
X131618908Y-92046146D01*
X131716885Y-92192779D01*
X131732878Y-92216714D01*
X131811380Y-92406235D01*
X131851400Y-92607430D01*
X131851400Y-92812570D01*
X131811380Y-93013765D01*
X131750615Y-93160466D01*
X131732877Y-93203288D01*
X131618908Y-93373854D01*
X131473854Y-93518908D01*
X131303288Y-93632877D01*
X131303287Y-93632878D01*
X131303286Y-93632878D01*
X131113765Y-93711380D01*
X130912570Y-93751400D01*
X130707430Y-93751400D01*
X130506235Y-93711380D01*
X130316714Y-93632878D01*
X130316713Y-93632878D01*
X130316712Y-93632877D01*
X130146146Y-93518908D01*
X130001092Y-93373854D01*
X129887123Y-93203288D01*
X129869386Y-93160466D01*
X129808620Y-93013765D01*
X129768600Y-92812570D01*
X129768600Y-92607430D01*
X129808620Y-92406235D01*
X129887122Y-92216714D01*
X129903115Y-92192779D01*
X130001092Y-92046146D01*
X130146146Y-91901092D01*
X130316712Y-91787123D01*
X130506235Y-91708620D01*
X130707430Y-91668600D01*
X130912570Y-91668600D01*
X131113765Y-91708620D01*
X131113765Y-91708620D01*
G37*
G36*
X89177395Y-91795546D02*
G01*
X89350466Y-91867234D01*
X89401138Y-91901092D01*
X89506227Y-91971310D01*
X89638690Y-92103773D01*
X89638691Y-92103775D01*
X89742766Y-92259534D01*
X89814454Y-92432605D01*
X89851000Y-92616333D01*
X89851000Y-92803667D01*
X89814454Y-92987395D01*
X89742766Y-93160466D01*
X89714153Y-93203288D01*
X89638690Y-93316227D01*
X89506227Y-93448690D01*
X89468907Y-93473626D01*
X89350466Y-93552766D01*
X89177395Y-93624454D01*
X88993667Y-93661000D01*
X88806333Y-93661000D01*
X88622605Y-93624454D01*
X88449534Y-93552766D01*
X88331093Y-93473626D01*
X88293773Y-93448690D01*
X88161310Y-93316227D01*
X88085847Y-93203288D01*
X88057234Y-93160466D01*
X87985546Y-92987395D01*
X87949000Y-92803667D01*
X87949000Y-92616333D01*
X87985546Y-92432605D01*
X88057234Y-92259534D01*
X88161309Y-92103775D01*
X88161310Y-92103773D01*
X88293773Y-91971310D01*
X88398862Y-91901092D01*
X88449534Y-91867234D01*
X88622605Y-91795546D01*
X88806333Y-91759000D01*
X88993667Y-91759000D01*
X89177395Y-91795546D01*
X89177395Y-91795546D01*
G37*
G36*
X135521000Y-93611000D02*
G01*
X133719000Y-93611000D01*
X133719000Y-91809000D01*
X135521000Y-91809000D01*
X135521000Y-93611000D01*
X135521000Y-93611000D01*
G37*
G36*
X128256265Y-90596100D02*
G01*
X128418472Y-90663288D01*
X128445788Y-90674603D01*
X128616354Y-90788572D01*
X128761408Y-90933626D01*
X128875377Y-91104192D01*
X128875378Y-91104194D01*
X128953880Y-91293715D01*
X128993900Y-91494910D01*
X128993900Y-91700050D01*
X128972229Y-91809000D01*
X128953880Y-91901245D01*
X128875377Y-92090768D01*
X128761408Y-92261334D01*
X128616354Y-92406388D01*
X128445788Y-92520357D01*
X128445787Y-92520358D01*
X128445786Y-92520358D01*
X128256265Y-92598860D01*
X128055070Y-92638880D01*
X127849930Y-92638880D01*
X127648735Y-92598860D01*
X127459214Y-92520358D01*
X127459213Y-92520358D01*
X127459212Y-92520357D01*
X127288646Y-92406388D01*
X127143592Y-92261334D01*
X127029623Y-92090768D01*
X126951120Y-91901245D01*
X126932771Y-91809000D01*
X126911100Y-91700050D01*
X126911100Y-91494910D01*
X126951120Y-91293715D01*
X127029622Y-91104194D01*
X127029623Y-91104192D01*
X127143592Y-90933626D01*
X127288646Y-90788572D01*
X127459212Y-90674603D01*
X127486529Y-90663288D01*
X127648735Y-90596100D01*
X127849930Y-90556080D01*
X128055070Y-90556080D01*
X128256265Y-90596100D01*
X128256265Y-90596100D01*
G37*
G36*
X83930443Y-90545519D02*
G01*
X83996627Y-90552037D01*
X84166466Y-90603557D01*
X84322991Y-90687222D01*
X84358729Y-90716552D01*
X84460186Y-90799814D01*
X84508367Y-90858524D01*
X84572778Y-90937009D01*
X84656443Y-91093534D01*
X84707963Y-91263373D01*
X84725359Y-91440000D01*
X84707963Y-91616627D01*
X84656443Y-91786466D01*
X84572778Y-91942991D01*
X84549538Y-91971309D01*
X84460186Y-92080186D01*
X84358729Y-92163448D01*
X84322991Y-92192778D01*
X84322989Y-92192779D01*
X84194737Y-92261332D01*
X84166466Y-92276443D01*
X83996627Y-92327963D01*
X83930443Y-92334481D01*
X83864260Y-92341000D01*
X83775740Y-92341000D01*
X83709557Y-92334481D01*
X83643373Y-92327963D01*
X83473534Y-92276443D01*
X83445264Y-92261332D01*
X83317011Y-92192779D01*
X83317009Y-92192778D01*
X83281271Y-92163448D01*
X83179814Y-92080186D01*
X83090462Y-91971309D01*
X83067222Y-91942991D01*
X82983557Y-91786466D01*
X82932037Y-91616627D01*
X82914641Y-91440000D01*
X82932037Y-91263373D01*
X82983557Y-91093534D01*
X83067222Y-90937009D01*
X83131633Y-90858524D01*
X83179814Y-90799814D01*
X83281271Y-90716552D01*
X83317009Y-90687222D01*
X83473534Y-90603557D01*
X83643373Y-90552037D01*
X83709557Y-90545519D01*
X83775740Y-90539000D01*
X83864260Y-90539000D01*
X83930443Y-90545519D01*
X83930443Y-90545519D01*
G37*
G36*
X131113765Y-89168620D02*
G01*
X131244802Y-89222897D01*
X131303288Y-89247123D01*
X131473854Y-89361092D01*
X131618908Y-89506146D01*
X131618909Y-89506148D01*
X131732878Y-89676714D01*
X131811380Y-89866235D01*
X131851400Y-90067430D01*
X131851400Y-90272570D01*
X131811380Y-90473765D01*
X131757619Y-90603557D01*
X131732877Y-90663288D01*
X131618908Y-90833854D01*
X131473854Y-90978908D01*
X131303288Y-91092877D01*
X131303287Y-91092878D01*
X131303286Y-91092878D01*
X131113765Y-91171380D01*
X130912570Y-91211400D01*
X130707430Y-91211400D01*
X130506235Y-91171380D01*
X130316714Y-91092878D01*
X130316713Y-91092878D01*
X130316712Y-91092877D01*
X130146146Y-90978908D01*
X130001092Y-90833854D01*
X129887123Y-90663288D01*
X129862382Y-90603557D01*
X129808620Y-90473765D01*
X129768600Y-90272570D01*
X129768600Y-90067430D01*
X129808620Y-89866235D01*
X129887122Y-89676714D01*
X130001091Y-89506148D01*
X130001092Y-89506146D01*
X130146146Y-89361092D01*
X130316712Y-89247123D01*
X130375199Y-89222897D01*
X130506235Y-89168620D01*
X130707430Y-89128600D01*
X130912570Y-89128600D01*
X131113765Y-89168620D01*
X131113765Y-89168620D01*
G37*
G36*
X115873765Y-89168620D02*
G01*
X116004802Y-89222897D01*
X116063288Y-89247123D01*
X116233854Y-89361092D01*
X116378908Y-89506146D01*
X116378909Y-89506148D01*
X116492878Y-89676714D01*
X116571380Y-89866235D01*
X116611400Y-90067430D01*
X116611400Y-90272570D01*
X116571380Y-90473765D01*
X116517619Y-90603557D01*
X116492877Y-90663288D01*
X116378908Y-90833854D01*
X116233854Y-90978908D01*
X116063288Y-91092877D01*
X116063287Y-91092878D01*
X116063286Y-91092878D01*
X115873765Y-91171380D01*
X115672570Y-91211400D01*
X115467430Y-91211400D01*
X115266235Y-91171380D01*
X115076714Y-91092878D01*
X115076713Y-91092878D01*
X115076712Y-91092877D01*
X114906146Y-90978908D01*
X114761092Y-90833854D01*
X114647123Y-90663288D01*
X114622382Y-90603557D01*
X114568620Y-90473765D01*
X114528600Y-90272570D01*
X114528600Y-90067430D01*
X114568620Y-89866235D01*
X114647122Y-89676714D01*
X114761091Y-89506148D01*
X114761092Y-89506146D01*
X114906146Y-89361092D01*
X115076712Y-89247123D01*
X115135199Y-89222897D01*
X115266235Y-89168620D01*
X115467430Y-89128600D01*
X115672570Y-89128600D01*
X115873765Y-89168620D01*
X115873765Y-89168620D01*
G37*
G36*
X89712457Y-89222897D02*
G01*
X89744602Y-89232649D01*
X89774230Y-89248485D01*
X89800201Y-89269799D01*
X89821515Y-89295770D01*
X89837351Y-89325398D01*
X89847103Y-89357543D01*
X89851000Y-89397114D01*
X89851000Y-90942886D01*
X89847103Y-90982457D01*
X89837351Y-91014602D01*
X89821515Y-91044230D01*
X89800201Y-91070201D01*
X89774230Y-91091515D01*
X89744602Y-91107351D01*
X89712457Y-91117103D01*
X89672886Y-91121000D01*
X88127114Y-91121000D01*
X88087543Y-91117103D01*
X88055398Y-91107351D01*
X88025770Y-91091515D01*
X87999799Y-91070201D01*
X87978485Y-91044230D01*
X87962649Y-91014602D01*
X87952897Y-90982457D01*
X87949000Y-90942886D01*
X87949000Y-89397114D01*
X87952897Y-89357543D01*
X87962649Y-89325398D01*
X87978485Y-89295770D01*
X87999799Y-89269799D01*
X88025770Y-89248485D01*
X88055398Y-89232649D01*
X88087543Y-89222897D01*
X88127114Y-89219000D01*
X89672886Y-89219000D01*
X89712457Y-89222897D01*
X89712457Y-89222897D01*
G37*
G36*
X131113765Y-86628620D02*
G01*
X131303288Y-86707123D01*
X131473854Y-86821092D01*
X131618908Y-86966146D01*
X131732877Y-87136712D01*
X131811380Y-87326235D01*
X131851400Y-87527431D01*
X131851400Y-87732569D01*
X131811380Y-87933765D01*
X131732877Y-88123288D01*
X131618908Y-88293854D01*
X131473854Y-88438908D01*
X131303288Y-88552877D01*
X131303287Y-88552878D01*
X131303286Y-88552878D01*
X131113765Y-88631380D01*
X130912570Y-88671400D01*
X130707430Y-88671400D01*
X130506235Y-88631380D01*
X130316714Y-88552878D01*
X130316713Y-88552878D01*
X130316712Y-88552877D01*
X130146146Y-88438908D01*
X130001092Y-88293854D01*
X129887123Y-88123288D01*
X129808620Y-87933765D01*
X129768600Y-87732569D01*
X129768600Y-87527431D01*
X129808620Y-87326235D01*
X129887123Y-87136712D01*
X130001092Y-86966146D01*
X130146146Y-86821092D01*
X130316712Y-86707123D01*
X130506235Y-86628620D01*
X130707430Y-86588600D01*
X130912570Y-86588600D01*
X131113765Y-86628620D01*
X131113765Y-86628620D01*
G37*
G36*
X115873765Y-86628620D02*
G01*
X116063288Y-86707123D01*
X116233854Y-86821092D01*
X116378908Y-86966146D01*
X116492877Y-87136712D01*
X116571380Y-87326235D01*
X116611400Y-87527431D01*
X116611400Y-87732569D01*
X116571380Y-87933765D01*
X116492877Y-88123288D01*
X116378908Y-88293854D01*
X116233854Y-88438908D01*
X116063288Y-88552877D01*
X116063287Y-88552878D01*
X116063286Y-88552878D01*
X115873765Y-88631380D01*
X115672570Y-88671400D01*
X115467430Y-88671400D01*
X115266235Y-88631380D01*
X115076714Y-88552878D01*
X115076713Y-88552878D01*
X115076712Y-88552877D01*
X114906146Y-88438908D01*
X114761092Y-88293854D01*
X114647123Y-88123288D01*
X114568620Y-87933765D01*
X114528600Y-87732569D01*
X114528600Y-87527431D01*
X114568620Y-87326235D01*
X114647123Y-87136712D01*
X114761092Y-86966146D01*
X114906146Y-86821092D01*
X115076712Y-86707123D01*
X115266235Y-86628620D01*
X115467430Y-86588600D01*
X115672570Y-86588600D01*
X115873765Y-86628620D01*
X115873765Y-86628620D01*
G37*
G36*
X115873765Y-84088620D02*
G01*
X116035972Y-84155808D01*
X116063288Y-84167123D01*
X116233854Y-84281092D01*
X116378908Y-84426146D01*
X116486395Y-84587011D01*
X116492878Y-84596714D01*
X116571380Y-84786235D01*
X116611400Y-84987430D01*
X116611400Y-85192570D01*
X116596669Y-85266627D01*
X116571380Y-85393765D01*
X116492877Y-85583288D01*
X116378908Y-85753854D01*
X116233854Y-85898908D01*
X116063288Y-86012877D01*
X116063287Y-86012878D01*
X116063286Y-86012878D01*
X115873765Y-86091380D01*
X115672570Y-86131400D01*
X115467430Y-86131400D01*
X115266235Y-86091380D01*
X115076714Y-86012878D01*
X115076713Y-86012878D01*
X115076712Y-86012877D01*
X114906146Y-85898908D01*
X114761092Y-85753854D01*
X114647123Y-85583288D01*
X114568620Y-85393765D01*
X114543331Y-85266627D01*
X114528600Y-85192570D01*
X114528600Y-84987430D01*
X114568620Y-84786235D01*
X114647122Y-84596714D01*
X114653605Y-84587011D01*
X114761092Y-84426146D01*
X114906146Y-84281092D01*
X115076712Y-84167123D01*
X115104029Y-84155808D01*
X115266235Y-84088620D01*
X115467430Y-84048600D01*
X115672570Y-84048600D01*
X115873765Y-84088620D01*
X115873765Y-84088620D01*
G37*
G36*
X131113765Y-84088620D02*
G01*
X131275972Y-84155808D01*
X131303288Y-84167123D01*
X131473854Y-84281092D01*
X131618908Y-84426146D01*
X131726395Y-84587011D01*
X131732878Y-84596714D01*
X131811380Y-84786235D01*
X131851400Y-84987430D01*
X131851400Y-85192570D01*
X131836669Y-85266627D01*
X131811380Y-85393765D01*
X131732877Y-85583288D01*
X131618908Y-85753854D01*
X131473854Y-85898908D01*
X131303288Y-86012877D01*
X131303287Y-86012878D01*
X131303286Y-86012878D01*
X131113765Y-86091380D01*
X130912570Y-86131400D01*
X130707430Y-86131400D01*
X130506235Y-86091380D01*
X130316714Y-86012878D01*
X130316713Y-86012878D01*
X130316712Y-86012877D01*
X130146146Y-85898908D01*
X130001092Y-85753854D01*
X129887123Y-85583288D01*
X129808620Y-85393765D01*
X129783331Y-85266627D01*
X129768600Y-85192570D01*
X129768600Y-84987430D01*
X129808620Y-84786235D01*
X129887122Y-84596714D01*
X129893605Y-84587011D01*
X130001092Y-84426146D01*
X130146146Y-84281092D01*
X130316712Y-84167123D01*
X130344029Y-84155808D01*
X130506235Y-84088620D01*
X130707430Y-84048600D01*
X130912570Y-84048600D01*
X131113765Y-84088620D01*
X131113765Y-84088620D01*
G37*
G36*
X86470442Y-84195518D02*
G01*
X86536627Y-84202037D01*
X86706466Y-84253557D01*
X86862991Y-84337222D01*
X86898729Y-84366552D01*
X87000186Y-84449814D01*
X87083448Y-84551271D01*
X87112778Y-84587009D01*
X87196443Y-84743534D01*
X87247963Y-84913373D01*
X87265359Y-85090000D01*
X87247963Y-85266627D01*
X87196443Y-85436466D01*
X87112778Y-85592991D01*
X87083448Y-85628729D01*
X87000186Y-85730186D01*
X86898729Y-85813448D01*
X86862991Y-85842778D01*
X86706466Y-85926443D01*
X86536627Y-85977963D01*
X86470442Y-85984482D01*
X86404260Y-85991000D01*
X86315740Y-85991000D01*
X86249558Y-85984482D01*
X86183373Y-85977963D01*
X86013534Y-85926443D01*
X85857009Y-85842778D01*
X85821271Y-85813448D01*
X85719814Y-85730186D01*
X85636552Y-85628729D01*
X85607222Y-85592991D01*
X85523557Y-85436466D01*
X85472037Y-85266627D01*
X85454641Y-85090000D01*
X85472037Y-84913373D01*
X85523557Y-84743534D01*
X85607222Y-84587009D01*
X85636552Y-84551271D01*
X85719814Y-84449814D01*
X85821271Y-84366552D01*
X85857009Y-84337222D01*
X86013534Y-84253557D01*
X86183373Y-84202037D01*
X86249558Y-84195518D01*
X86315740Y-84189000D01*
X86404260Y-84189000D01*
X86470442Y-84195518D01*
X86470442Y-84195518D01*
G37*
G36*
X128256265Y-82661140D02*
G01*
X128445788Y-82739643D01*
X128616354Y-82853612D01*
X128761408Y-82998666D01*
X128797707Y-83052991D01*
X128875378Y-83169234D01*
X128893859Y-83213852D01*
X128953880Y-83358755D01*
X128993900Y-83559951D01*
X128993900Y-83765089D01*
X128953880Y-83966285D01*
X128875377Y-84155808D01*
X128761408Y-84326374D01*
X128616354Y-84471428D01*
X128445788Y-84585397D01*
X128445787Y-84585398D01*
X128445786Y-84585398D01*
X128256265Y-84663900D01*
X128055070Y-84703920D01*
X127849930Y-84703920D01*
X127648735Y-84663900D01*
X127459214Y-84585398D01*
X127459213Y-84585398D01*
X127459212Y-84585397D01*
X127288646Y-84471428D01*
X127143592Y-84326374D01*
X127029623Y-84155808D01*
X126951120Y-83966285D01*
X126911100Y-83765089D01*
X126911100Y-83559951D01*
X126951120Y-83358755D01*
X127011141Y-83213852D01*
X127029622Y-83169234D01*
X127107293Y-83052991D01*
X127143592Y-82998666D01*
X127288646Y-82853612D01*
X127459212Y-82739643D01*
X127648735Y-82661140D01*
X127849930Y-82621120D01*
X128055070Y-82621120D01*
X128256265Y-82661140D01*
X128256265Y-82661140D01*
G37*
G36*
X115873765Y-81548620D02*
G01*
X116035972Y-81615808D01*
X116063288Y-81627123D01*
X116233854Y-81741092D01*
X116378908Y-81886146D01*
X116486395Y-82047011D01*
X116492878Y-82056714D01*
X116571380Y-82246235D01*
X116611400Y-82447430D01*
X116611400Y-82652570D01*
X116596669Y-82726627D01*
X116571380Y-82853765D01*
X116492877Y-83043288D01*
X116378908Y-83213854D01*
X116233854Y-83358908D01*
X116063288Y-83472877D01*
X116063287Y-83472878D01*
X116063286Y-83472878D01*
X115873765Y-83551380D01*
X115672570Y-83591400D01*
X115467430Y-83591400D01*
X115266235Y-83551380D01*
X115076714Y-83472878D01*
X115076713Y-83472878D01*
X115076712Y-83472877D01*
X114906146Y-83358908D01*
X114761092Y-83213854D01*
X114647123Y-83043288D01*
X114568620Y-82853765D01*
X114543331Y-82726627D01*
X114528600Y-82652570D01*
X114528600Y-82447430D01*
X114568620Y-82246235D01*
X114647122Y-82056714D01*
X114653605Y-82047011D01*
X114761092Y-81886146D01*
X114906146Y-81741092D01*
X115076712Y-81627123D01*
X115104029Y-81615808D01*
X115266235Y-81548620D01*
X115467430Y-81508600D01*
X115672570Y-81508600D01*
X115873765Y-81548620D01*
X115873765Y-81548620D01*
G37*
G36*
X131113765Y-81548620D02*
G01*
X131275972Y-81615808D01*
X131303288Y-81627123D01*
X131473854Y-81741092D01*
X131618908Y-81886146D01*
X131726395Y-82047011D01*
X131732878Y-82056714D01*
X131811380Y-82246235D01*
X131851400Y-82447430D01*
X131851400Y-82652570D01*
X131836669Y-82726627D01*
X131811380Y-82853765D01*
X131732877Y-83043288D01*
X131618908Y-83213854D01*
X131473854Y-83358908D01*
X131303288Y-83472877D01*
X131303287Y-83472878D01*
X131303286Y-83472878D01*
X131113765Y-83551380D01*
X130912570Y-83591400D01*
X130707430Y-83591400D01*
X130506235Y-83551380D01*
X130316714Y-83472878D01*
X130316713Y-83472878D01*
X130316712Y-83472877D01*
X130146146Y-83358908D01*
X130001092Y-83213854D01*
X129887123Y-83043288D01*
X129808620Y-82853765D01*
X129783331Y-82726627D01*
X129768600Y-82652570D01*
X129768600Y-82447430D01*
X129808620Y-82246235D01*
X129887122Y-82056714D01*
X129893605Y-82047011D01*
X130001092Y-81886146D01*
X130146146Y-81741092D01*
X130316712Y-81627123D01*
X130344029Y-81615808D01*
X130506235Y-81548620D01*
X130707430Y-81508600D01*
X130912570Y-81508600D01*
X131113765Y-81548620D01*
X131113765Y-81548620D01*
G37*
G36*
X94881000Y-83451000D02*
G01*
X93079000Y-83451000D01*
X93079000Y-81649000D01*
X94881000Y-81649000D01*
X94881000Y-83451000D01*
X94881000Y-83451000D01*
G37*
G36*
X91550443Y-81655519D02*
G01*
X91616627Y-81662037D01*
X91786466Y-81713557D01*
X91942991Y-81797222D01*
X91978729Y-81826552D01*
X92080186Y-81909814D01*
X92163448Y-82011271D01*
X92192778Y-82047009D01*
X92276443Y-82203534D01*
X92327963Y-82373373D01*
X92345359Y-82550000D01*
X92327963Y-82726627D01*
X92276443Y-82896466D01*
X92192778Y-83052991D01*
X92163448Y-83088729D01*
X92080186Y-83190186D01*
X91978729Y-83273448D01*
X91942991Y-83302778D01*
X91786466Y-83386443D01*
X91616627Y-83437963D01*
X91550443Y-83444481D01*
X91484260Y-83451000D01*
X91395740Y-83451000D01*
X91329557Y-83444481D01*
X91263373Y-83437963D01*
X91093534Y-83386443D01*
X90937009Y-83302778D01*
X90901271Y-83273448D01*
X90799814Y-83190186D01*
X90716552Y-83088729D01*
X90687222Y-83052991D01*
X90603557Y-82896466D01*
X90552037Y-82726627D01*
X90534641Y-82550000D01*
X90552037Y-82373373D01*
X90603557Y-82203534D01*
X90687222Y-82047009D01*
X90716552Y-82011271D01*
X90799814Y-81909814D01*
X90901271Y-81826552D01*
X90937009Y-81797222D01*
X91093534Y-81713557D01*
X91263373Y-81662037D01*
X91329557Y-81655519D01*
X91395740Y-81649000D01*
X91484260Y-81649000D01*
X91550443Y-81655519D01*
X91550443Y-81655519D01*
G37*
G36*
X87261000Y-83451000D02*
G01*
X85459000Y-83451000D01*
X85459000Y-81649000D01*
X87261000Y-81649000D01*
X87261000Y-83451000D01*
X87261000Y-83451000D01*
G37*
G36*
X128256265Y-80121140D02*
G01*
X128445788Y-80199643D01*
X128616354Y-80313612D01*
X128761408Y-80458666D01*
X128875377Y-80629232D01*
X128953880Y-80818755D01*
X128993900Y-81019951D01*
X128993900Y-81225089D01*
X128953880Y-81426285D01*
X128875377Y-81615808D01*
X128761408Y-81786374D01*
X128616354Y-81931428D01*
X128445788Y-82045397D01*
X128445787Y-82045398D01*
X128445786Y-82045398D01*
X128256265Y-82123900D01*
X128055070Y-82163920D01*
X127849930Y-82163920D01*
X127648735Y-82123900D01*
X127459214Y-82045398D01*
X127459213Y-82045398D01*
X127459212Y-82045397D01*
X127288646Y-81931428D01*
X127143592Y-81786374D01*
X127029623Y-81615808D01*
X126951120Y-81426285D01*
X126911100Y-81225089D01*
X126911100Y-81019951D01*
X126951120Y-80818755D01*
X127029623Y-80629232D01*
X127143592Y-80458666D01*
X127288646Y-80313612D01*
X127459212Y-80199643D01*
X127648735Y-80121140D01*
X127849930Y-80081120D01*
X128055070Y-80081120D01*
X128256265Y-80121140D01*
X128256265Y-80121140D01*
G37*
G36*
X115873765Y-79008620D02*
G01*
X116063288Y-79087123D01*
X116233854Y-79201092D01*
X116378908Y-79346146D01*
X116492877Y-79516712D01*
X116571380Y-79706235D01*
X116611400Y-79907431D01*
X116611400Y-80112569D01*
X116571380Y-80313765D01*
X116492877Y-80503288D01*
X116378908Y-80673854D01*
X116233854Y-80818908D01*
X116063288Y-80932877D01*
X116063287Y-80932878D01*
X116063286Y-80932878D01*
X115873765Y-81011380D01*
X115672570Y-81051400D01*
X115467430Y-81051400D01*
X115266235Y-81011380D01*
X115076714Y-80932878D01*
X115076713Y-80932878D01*
X115076712Y-80932877D01*
X114906146Y-80818908D01*
X114761092Y-80673854D01*
X114647123Y-80503288D01*
X114568620Y-80313765D01*
X114528600Y-80112569D01*
X114528600Y-79907431D01*
X114568620Y-79706235D01*
X114647123Y-79516712D01*
X114761092Y-79346146D01*
X114906146Y-79201092D01*
X115076712Y-79087123D01*
X115266235Y-79008620D01*
X115467430Y-78968600D01*
X115672570Y-78968600D01*
X115873765Y-79008620D01*
X115873765Y-79008620D01*
G37*
G36*
X131113765Y-79008620D02*
G01*
X131303288Y-79087123D01*
X131473854Y-79201092D01*
X131618908Y-79346146D01*
X131732877Y-79516712D01*
X131811380Y-79706235D01*
X131851400Y-79907431D01*
X131851400Y-80112569D01*
X131811380Y-80313765D01*
X131732877Y-80503288D01*
X131618908Y-80673854D01*
X131473854Y-80818908D01*
X131303288Y-80932877D01*
X131303287Y-80932878D01*
X131303286Y-80932878D01*
X131113765Y-81011380D01*
X130912570Y-81051400D01*
X130707430Y-81051400D01*
X130506235Y-81011380D01*
X130316714Y-80932878D01*
X130316713Y-80932878D01*
X130316712Y-80932877D01*
X130146146Y-80818908D01*
X130001092Y-80673854D01*
X129887123Y-80503288D01*
X129808620Y-80313765D01*
X129768600Y-80112569D01*
X129768600Y-79907431D01*
X129808620Y-79706235D01*
X129887123Y-79516712D01*
X130001092Y-79346146D01*
X130146146Y-79201092D01*
X130316712Y-79087123D01*
X130506235Y-79008620D01*
X130707430Y-78968600D01*
X130912570Y-78968600D01*
X131113765Y-79008620D01*
X131113765Y-79008620D01*
G37*
G36*
X115873765Y-76468620D02*
G01*
X116063288Y-76547123D01*
X116233854Y-76661092D01*
X116378908Y-76806146D01*
X116492877Y-76976712D01*
X116571380Y-77166235D01*
X116611400Y-77367431D01*
X116611400Y-77572569D01*
X116571380Y-77773765D01*
X116492877Y-77963288D01*
X116378908Y-78133854D01*
X116233854Y-78278908D01*
X116063288Y-78392877D01*
X116063287Y-78392878D01*
X116063286Y-78392878D01*
X115873765Y-78471380D01*
X115672570Y-78511400D01*
X115467430Y-78511400D01*
X115266235Y-78471380D01*
X115076714Y-78392878D01*
X115076713Y-78392878D01*
X115076712Y-78392877D01*
X114906146Y-78278908D01*
X114761092Y-78133854D01*
X114647123Y-77963288D01*
X114568620Y-77773765D01*
X114528600Y-77572569D01*
X114528600Y-77367431D01*
X114568620Y-77166235D01*
X114647123Y-76976712D01*
X114761092Y-76806146D01*
X114906146Y-76661092D01*
X115076712Y-76547123D01*
X115266235Y-76468620D01*
X115467430Y-76428600D01*
X115672570Y-76428600D01*
X115873765Y-76468620D01*
X115873765Y-76468620D01*
G37*
G36*
X131113765Y-76468620D02*
G01*
X131303288Y-76547123D01*
X131473854Y-76661092D01*
X131618908Y-76806146D01*
X131732877Y-76976712D01*
X131811380Y-77166235D01*
X131851400Y-77367431D01*
X131851400Y-77572569D01*
X131811380Y-77773765D01*
X131732877Y-77963288D01*
X131618908Y-78133854D01*
X131473854Y-78278908D01*
X131303288Y-78392877D01*
X131303287Y-78392878D01*
X131303286Y-78392878D01*
X131113765Y-78471380D01*
X130912570Y-78511400D01*
X130707430Y-78511400D01*
X130506235Y-78471380D01*
X130316714Y-78392878D01*
X130316713Y-78392878D01*
X130316712Y-78392877D01*
X130146146Y-78278908D01*
X130001092Y-78133854D01*
X129887123Y-77963288D01*
X129808620Y-77773765D01*
X129768600Y-77572569D01*
X129768600Y-77367431D01*
X129808620Y-77166235D01*
X129887123Y-76976712D01*
X130001092Y-76806146D01*
X130146146Y-76661092D01*
X130316712Y-76547123D01*
X130506235Y-76468620D01*
X130707430Y-76428600D01*
X130912570Y-76428600D01*
X131113765Y-76468620D01*
X131113765Y-76468620D01*
G37*
G36*
X131113765Y-73928620D02*
G01*
X131303288Y-74007123D01*
X131473854Y-74121092D01*
X131618908Y-74266146D01*
X131732877Y-74436712D01*
X131732878Y-74436714D01*
X131811380Y-74626235D01*
X131851400Y-74827430D01*
X131851400Y-75032570D01*
X131818557Y-75197682D01*
X131811380Y-75233765D01*
X131732877Y-75423288D01*
X131618908Y-75593854D01*
X131473854Y-75738908D01*
X131303288Y-75852877D01*
X131303287Y-75852878D01*
X131303286Y-75852878D01*
X131113765Y-75931380D01*
X130912570Y-75971400D01*
X130707430Y-75971400D01*
X130506235Y-75931380D01*
X130316714Y-75852878D01*
X130316713Y-75852878D01*
X130316712Y-75852877D01*
X130146146Y-75738908D01*
X130001092Y-75593854D01*
X129887123Y-75423288D01*
X129808620Y-75233765D01*
X129801443Y-75197682D01*
X129768600Y-75032570D01*
X129768600Y-74827430D01*
X129808620Y-74626235D01*
X129887122Y-74436714D01*
X129887123Y-74436712D01*
X130001092Y-74266146D01*
X130146146Y-74121092D01*
X130316712Y-74007123D01*
X130506235Y-73928620D01*
X130707430Y-73888600D01*
X130912570Y-73888600D01*
X131113765Y-73928620D01*
X131113765Y-73928620D01*
G37*
G36*
X115873765Y-73928620D02*
G01*
X116063288Y-74007123D01*
X116233854Y-74121092D01*
X116378908Y-74266146D01*
X116492877Y-74436712D01*
X116492878Y-74436714D01*
X116571380Y-74626235D01*
X116611400Y-74827430D01*
X116611400Y-75032570D01*
X116578557Y-75197682D01*
X116571380Y-75233765D01*
X116492877Y-75423288D01*
X116378908Y-75593854D01*
X116233854Y-75738908D01*
X116063288Y-75852877D01*
X116063287Y-75852878D01*
X116063286Y-75852878D01*
X115873765Y-75931380D01*
X115672570Y-75971400D01*
X115467430Y-75971400D01*
X115266235Y-75931380D01*
X115076714Y-75852878D01*
X115076713Y-75852878D01*
X115076712Y-75852877D01*
X114906146Y-75738908D01*
X114761092Y-75593854D01*
X114647123Y-75423288D01*
X114568620Y-75233765D01*
X114561443Y-75197682D01*
X114528600Y-75032570D01*
X114528600Y-74827430D01*
X114568620Y-74626235D01*
X114647122Y-74436714D01*
X114647123Y-74436712D01*
X114761092Y-74266146D01*
X114906146Y-74121092D01*
X115076712Y-74007123D01*
X115266235Y-73928620D01*
X115467430Y-73888600D01*
X115672570Y-73888600D01*
X115873765Y-73928620D01*
X115873765Y-73928620D01*
G37*
G36*
X80120443Y-73550422D02*
G01*
X80186627Y-73556940D01*
X80356466Y-73608460D01*
X80512991Y-73692125D01*
X80548729Y-73721455D01*
X80650186Y-73804717D01*
X80719026Y-73888600D01*
X80762778Y-73941912D01*
X80846443Y-74098437D01*
X80897963Y-74268276D01*
X80915359Y-74444903D01*
X80897963Y-74621530D01*
X80846443Y-74791369D01*
X80762778Y-74947894D01*
X80733448Y-74983632D01*
X80650186Y-75085089D01*
X80548729Y-75168351D01*
X80512991Y-75197681D01*
X80356466Y-75281346D01*
X80186627Y-75332866D01*
X80120442Y-75339385D01*
X80054260Y-75345903D01*
X79965740Y-75345903D01*
X79899558Y-75339385D01*
X79833373Y-75332866D01*
X79663534Y-75281346D01*
X79507009Y-75197681D01*
X79471271Y-75168351D01*
X79369814Y-75085089D01*
X79286552Y-74983632D01*
X79257222Y-74947894D01*
X79173557Y-74791369D01*
X79122037Y-74621530D01*
X79104641Y-74444903D01*
X79122037Y-74268276D01*
X79173557Y-74098437D01*
X79257222Y-73941912D01*
X79300974Y-73888600D01*
X79369814Y-73804717D01*
X79471271Y-73721455D01*
X79507009Y-73692125D01*
X79663534Y-73608460D01*
X79833373Y-73556940D01*
X79899557Y-73550422D01*
X79965740Y-73543903D01*
X80054260Y-73543903D01*
X80120443Y-73550422D01*
X80120443Y-73550422D01*
G37*
G36*
X82761494Y-72190670D02*
G01*
X81702305Y-73648519D01*
X80244456Y-72589330D01*
X81303645Y-71131481D01*
X82761494Y-72190670D01*
X82761494Y-72190670D01*
G37*
G36*
X131113765Y-71388620D02*
G01*
X131303288Y-71467123D01*
X131473854Y-71581092D01*
X131618908Y-71726146D01*
X131716885Y-71872779D01*
X131732878Y-71896714D01*
X131778959Y-72007963D01*
X131811380Y-72086235D01*
X131851400Y-72287431D01*
X131851400Y-72492569D01*
X131811380Y-72693765D01*
X131732877Y-72883288D01*
X131618908Y-73053854D01*
X131473854Y-73198908D01*
X131303288Y-73312877D01*
X131303287Y-73312878D01*
X131303286Y-73312878D01*
X131113765Y-73391380D01*
X130912570Y-73431400D01*
X130707430Y-73431400D01*
X130506235Y-73391380D01*
X130316714Y-73312878D01*
X130316713Y-73312878D01*
X130316712Y-73312877D01*
X130146146Y-73198908D01*
X130001092Y-73053854D01*
X129887123Y-72883288D01*
X129808620Y-72693765D01*
X129768600Y-72492569D01*
X129768600Y-72287431D01*
X129808620Y-72086235D01*
X129841041Y-72007963D01*
X129887122Y-71896714D01*
X129903115Y-71872779D01*
X130001092Y-71726146D01*
X130146146Y-71581092D01*
X130316712Y-71467123D01*
X130506235Y-71388620D01*
X130707430Y-71348600D01*
X130912570Y-71348600D01*
X131113765Y-71388620D01*
X131113765Y-71388620D01*
G37*
G36*
X115873765Y-71388620D02*
G01*
X116063288Y-71467123D01*
X116233854Y-71581092D01*
X116378908Y-71726146D01*
X116476885Y-71872779D01*
X116492878Y-71896714D01*
X116538959Y-72007963D01*
X116571380Y-72086235D01*
X116611400Y-72287431D01*
X116611400Y-72492569D01*
X116571380Y-72693765D01*
X116492877Y-72883288D01*
X116378908Y-73053854D01*
X116233854Y-73198908D01*
X116063288Y-73312877D01*
X116063287Y-73312878D01*
X116063286Y-73312878D01*
X115873765Y-73391380D01*
X115672570Y-73431400D01*
X115467430Y-73431400D01*
X115266235Y-73391380D01*
X115076714Y-73312878D01*
X115076713Y-73312878D01*
X115076712Y-73312877D01*
X114906146Y-73198908D01*
X114761092Y-73053854D01*
X114647123Y-72883288D01*
X114568620Y-72693765D01*
X114528600Y-72492569D01*
X114528600Y-72287431D01*
X114568620Y-72086235D01*
X114601041Y-72007963D01*
X114647122Y-71896714D01*
X114663115Y-71872779D01*
X114761092Y-71726146D01*
X114906146Y-71581092D01*
X115076712Y-71467123D01*
X115266235Y-71388620D01*
X115467430Y-71348600D01*
X115672570Y-71348600D01*
X115873765Y-71388620D01*
X115873765Y-71388620D01*
G37*
G36*
X106790442Y-70225518D02*
G01*
X106856627Y-70232037D01*
X107026466Y-70283557D01*
X107182991Y-70367222D01*
X107218729Y-70396552D01*
X107320186Y-70479814D01*
X107403448Y-70581271D01*
X107432778Y-70617009D01*
X107516443Y-70773534D01*
X107567963Y-70943373D01*
X107585359Y-71120000D01*
X107567963Y-71296627D01*
X107516443Y-71466466D01*
X107432778Y-71622991D01*
X107403448Y-71658729D01*
X107320186Y-71760186D01*
X107218729Y-71843448D01*
X107182991Y-71872778D01*
X107026466Y-71956443D01*
X106856627Y-72007963D01*
X106790443Y-72014481D01*
X106724260Y-72021000D01*
X106635740Y-72021000D01*
X106569557Y-72014481D01*
X106503373Y-72007963D01*
X106333534Y-71956443D01*
X106177009Y-71872778D01*
X106141271Y-71843448D01*
X106039814Y-71760186D01*
X105956552Y-71658729D01*
X105927222Y-71622991D01*
X105843557Y-71466466D01*
X105792037Y-71296627D01*
X105774641Y-71120000D01*
X105792037Y-70943373D01*
X105843557Y-70773534D01*
X105927222Y-70617009D01*
X105956552Y-70581271D01*
X106039814Y-70479814D01*
X106141271Y-70396552D01*
X106177009Y-70367222D01*
X106333534Y-70283557D01*
X106503373Y-70232037D01*
X106569558Y-70225518D01*
X106635740Y-70219000D01*
X106724260Y-70219000D01*
X106790442Y-70225518D01*
X106790442Y-70225518D01*
G37*
G36*
X100440442Y-70225518D02*
G01*
X100506627Y-70232037D01*
X100676466Y-70283557D01*
X100832991Y-70367222D01*
X100868729Y-70396552D01*
X100970186Y-70479814D01*
X101053448Y-70581271D01*
X101082778Y-70617009D01*
X101166443Y-70773534D01*
X101217963Y-70943373D01*
X101235359Y-71120000D01*
X101217963Y-71296627D01*
X101166443Y-71466466D01*
X101082778Y-71622991D01*
X101053448Y-71658729D01*
X100970186Y-71760186D01*
X100868729Y-71843448D01*
X100832991Y-71872778D01*
X100676466Y-71956443D01*
X100506627Y-72007963D01*
X100440443Y-72014481D01*
X100374260Y-72021000D01*
X100285740Y-72021000D01*
X100219557Y-72014481D01*
X100153373Y-72007963D01*
X99983534Y-71956443D01*
X99827009Y-71872778D01*
X99791271Y-71843448D01*
X99689814Y-71760186D01*
X99606552Y-71658729D01*
X99577222Y-71622991D01*
X99493557Y-71466466D01*
X99442037Y-71296627D01*
X99424641Y-71120000D01*
X99442037Y-70943373D01*
X99493557Y-70773534D01*
X99577222Y-70617009D01*
X99606552Y-70581271D01*
X99689814Y-70479814D01*
X99791271Y-70396552D01*
X99827009Y-70367222D01*
X99983534Y-70283557D01*
X100153373Y-70232037D01*
X100219558Y-70225518D01*
X100285740Y-70219000D01*
X100374260Y-70219000D01*
X100440442Y-70225518D01*
X100440442Y-70225518D01*
G37*
G36*
X119683765Y-68848620D02*
G01*
X119873288Y-68927123D01*
X120043854Y-69041092D01*
X120188908Y-69186146D01*
X120286885Y-69332779D01*
X120302878Y-69356714D01*
X120381380Y-69546235D01*
X120421400Y-69747430D01*
X120421400Y-69952570D01*
X120381380Y-70153765D01*
X120327619Y-70283557D01*
X120302877Y-70343288D01*
X120188908Y-70513854D01*
X120043854Y-70658908D01*
X119873288Y-70772877D01*
X119873287Y-70772878D01*
X119873286Y-70772878D01*
X119683765Y-70851380D01*
X119482570Y-70891400D01*
X119277430Y-70891400D01*
X119076235Y-70851380D01*
X118886714Y-70772878D01*
X118886713Y-70772878D01*
X118886712Y-70772877D01*
X118716146Y-70658908D01*
X118571092Y-70513854D01*
X118457123Y-70343288D01*
X118432382Y-70283557D01*
X118378620Y-70153765D01*
X118338600Y-69952570D01*
X118338600Y-69747430D01*
X118378620Y-69546235D01*
X118457122Y-69356714D01*
X118473115Y-69332779D01*
X118571092Y-69186146D01*
X118716146Y-69041092D01*
X118886712Y-68927123D01*
X119076235Y-68848620D01*
X119277430Y-68808600D01*
X119482570Y-68808600D01*
X119683765Y-68848620D01*
X119683765Y-68848620D01*
G37*
G36*
X127303765Y-68848620D02*
G01*
X127493288Y-68927123D01*
X127663854Y-69041092D01*
X127808908Y-69186146D01*
X127906885Y-69332779D01*
X127922878Y-69356714D01*
X128001380Y-69546235D01*
X128041400Y-69747430D01*
X128041400Y-69952570D01*
X128001380Y-70153765D01*
X127947619Y-70283557D01*
X127922877Y-70343288D01*
X127808908Y-70513854D01*
X127663854Y-70658908D01*
X127493288Y-70772877D01*
X127493287Y-70772878D01*
X127493286Y-70772878D01*
X127303765Y-70851380D01*
X127102570Y-70891400D01*
X126897430Y-70891400D01*
X126696235Y-70851380D01*
X126506714Y-70772878D01*
X126506713Y-70772878D01*
X126506712Y-70772877D01*
X126336146Y-70658908D01*
X126191092Y-70513854D01*
X126077123Y-70343288D01*
X126052382Y-70283557D01*
X125998620Y-70153765D01*
X125958600Y-69952570D01*
X125958600Y-69747430D01*
X125998620Y-69546235D01*
X126077122Y-69356714D01*
X126093115Y-69332779D01*
X126191092Y-69186146D01*
X126336146Y-69041092D01*
X126506712Y-68927123D01*
X126696235Y-68848620D01*
X126897430Y-68808600D01*
X127102570Y-68808600D01*
X127303765Y-68848620D01*
X127303765Y-68848620D01*
G37*
G36*
X124763765Y-68848620D02*
G01*
X124953288Y-68927123D01*
X125123854Y-69041092D01*
X125268908Y-69186146D01*
X125366885Y-69332779D01*
X125382878Y-69356714D01*
X125461380Y-69546235D01*
X125501400Y-69747430D01*
X125501400Y-69952570D01*
X125461380Y-70153765D01*
X125407619Y-70283557D01*
X125382877Y-70343288D01*
X125268908Y-70513854D01*
X125123854Y-70658908D01*
X124953288Y-70772877D01*
X124953287Y-70772878D01*
X124953286Y-70772878D01*
X124763765Y-70851380D01*
X124562570Y-70891400D01*
X124357430Y-70891400D01*
X124156235Y-70851380D01*
X123966714Y-70772878D01*
X123966713Y-70772878D01*
X123966712Y-70772877D01*
X123796146Y-70658908D01*
X123651092Y-70513854D01*
X123537123Y-70343288D01*
X123512382Y-70283557D01*
X123458620Y-70153765D01*
X123418600Y-69952570D01*
X123418600Y-69747430D01*
X123458620Y-69546235D01*
X123537122Y-69356714D01*
X123553115Y-69332779D01*
X123651092Y-69186146D01*
X123796146Y-69041092D01*
X123966712Y-68927123D01*
X124156235Y-68848620D01*
X124357430Y-68808600D01*
X124562570Y-68808600D01*
X124763765Y-68848620D01*
X124763765Y-68848620D01*
G37*
G36*
X129843765Y-68848620D02*
G01*
X130033288Y-68927123D01*
X130203854Y-69041092D01*
X130348908Y-69186146D01*
X130446885Y-69332779D01*
X130462878Y-69356714D01*
X130541380Y-69546235D01*
X130581400Y-69747430D01*
X130581400Y-69952570D01*
X130541380Y-70153765D01*
X130487619Y-70283557D01*
X130462877Y-70343288D01*
X130348908Y-70513854D01*
X130203854Y-70658908D01*
X130033288Y-70772877D01*
X130033287Y-70772878D01*
X130033286Y-70772878D01*
X129843765Y-70851380D01*
X129642570Y-70891400D01*
X129437430Y-70891400D01*
X129236235Y-70851380D01*
X129046714Y-70772878D01*
X129046713Y-70772878D01*
X129046712Y-70772877D01*
X128876146Y-70658908D01*
X128731092Y-70513854D01*
X128617123Y-70343288D01*
X128592382Y-70283557D01*
X128538620Y-70153765D01*
X128498600Y-69952570D01*
X128498600Y-69747430D01*
X128538620Y-69546235D01*
X128617122Y-69356714D01*
X128633115Y-69332779D01*
X128731092Y-69186146D01*
X128876146Y-69041092D01*
X129046712Y-68927123D01*
X129236235Y-68848620D01*
X129437430Y-68808600D01*
X129642570Y-68808600D01*
X129843765Y-68848620D01*
X129843765Y-68848620D01*
G37*
G36*
X117143765Y-68848620D02*
G01*
X117333288Y-68927123D01*
X117503854Y-69041092D01*
X117648908Y-69186146D01*
X117746885Y-69332779D01*
X117762878Y-69356714D01*
X117841380Y-69546235D01*
X117881400Y-69747430D01*
X117881400Y-69952570D01*
X117841380Y-70153765D01*
X117787619Y-70283557D01*
X117762877Y-70343288D01*
X117648908Y-70513854D01*
X117503854Y-70658908D01*
X117333288Y-70772877D01*
X117333287Y-70772878D01*
X117333286Y-70772878D01*
X117143765Y-70851380D01*
X116942570Y-70891400D01*
X116737430Y-70891400D01*
X116536235Y-70851380D01*
X116346714Y-70772878D01*
X116346713Y-70772878D01*
X116346712Y-70772877D01*
X116176146Y-70658908D01*
X116031092Y-70513854D01*
X115917123Y-70343288D01*
X115892382Y-70283557D01*
X115838620Y-70153765D01*
X115798600Y-69952570D01*
X115798600Y-69747430D01*
X115838620Y-69546235D01*
X115917122Y-69356714D01*
X115933115Y-69332779D01*
X116031092Y-69186146D01*
X116176146Y-69041092D01*
X116346712Y-68927123D01*
X116536235Y-68848620D01*
X116737430Y-68808600D01*
X116942570Y-68808600D01*
X117143765Y-68848620D01*
X117143765Y-68848620D01*
G37*
G36*
X122223765Y-68848620D02*
G01*
X122413288Y-68927123D01*
X122583854Y-69041092D01*
X122728908Y-69186146D01*
X122826885Y-69332779D01*
X122842878Y-69356714D01*
X122921380Y-69546235D01*
X122961400Y-69747430D01*
X122961400Y-69952570D01*
X122921380Y-70153765D01*
X122867619Y-70283557D01*
X122842877Y-70343288D01*
X122728908Y-70513854D01*
X122583854Y-70658908D01*
X122413288Y-70772877D01*
X122413287Y-70772878D01*
X122413286Y-70772878D01*
X122223765Y-70851380D01*
X122022570Y-70891400D01*
X121817430Y-70891400D01*
X121616235Y-70851380D01*
X121426714Y-70772878D01*
X121426713Y-70772878D01*
X121426712Y-70772877D01*
X121256146Y-70658908D01*
X121111092Y-70513854D01*
X120997123Y-70343288D01*
X120972382Y-70283557D01*
X120918620Y-70153765D01*
X120878600Y-69952570D01*
X120878600Y-69747430D01*
X120918620Y-69546235D01*
X120997122Y-69356714D01*
X121013115Y-69332779D01*
X121111092Y-69186146D01*
X121256146Y-69041092D01*
X121426712Y-68927123D01*
X121616235Y-68848620D01*
X121817430Y-68808600D01*
X122022570Y-68808600D01*
X122223765Y-68848620D01*
X122223765Y-68848620D01*
G37*
G36*
X100440443Y-67685519D02*
G01*
X100506627Y-67692037D01*
X100676466Y-67743557D01*
X100832991Y-67827222D01*
X100868729Y-67856552D01*
X100970186Y-67939814D01*
X101053448Y-68041271D01*
X101082778Y-68077009D01*
X101166443Y-68233534D01*
X101217963Y-68403373D01*
X101235359Y-68580000D01*
X101217963Y-68756627D01*
X101166443Y-68926466D01*
X101082778Y-69082991D01*
X101053448Y-69118729D01*
X100970186Y-69220186D01*
X100868729Y-69303448D01*
X100832991Y-69332778D01*
X100676466Y-69416443D01*
X100506627Y-69467963D01*
X100440442Y-69474482D01*
X100374260Y-69481000D01*
X100285740Y-69481000D01*
X100219558Y-69474482D01*
X100153373Y-69467963D01*
X99983534Y-69416443D01*
X99827009Y-69332778D01*
X99791271Y-69303448D01*
X99689814Y-69220186D01*
X99606552Y-69118729D01*
X99577222Y-69082991D01*
X99493557Y-68926466D01*
X99442037Y-68756627D01*
X99424641Y-68580000D01*
X99442037Y-68403373D01*
X99493557Y-68233534D01*
X99577222Y-68077009D01*
X99606552Y-68041271D01*
X99689814Y-67939814D01*
X99791271Y-67856552D01*
X99827009Y-67827222D01*
X99983534Y-67743557D01*
X100153373Y-67692037D01*
X100219557Y-67685519D01*
X100285740Y-67679000D01*
X100374260Y-67679000D01*
X100440443Y-67685519D01*
X100440443Y-67685519D01*
G37*
G36*
X106790443Y-67685519D02*
G01*
X106856627Y-67692037D01*
X107026466Y-67743557D01*
X107182991Y-67827222D01*
X107218729Y-67856552D01*
X107320186Y-67939814D01*
X107403448Y-68041271D01*
X107432778Y-68077009D01*
X107516443Y-68233534D01*
X107567963Y-68403373D01*
X107585359Y-68580000D01*
X107567963Y-68756627D01*
X107516443Y-68926466D01*
X107432778Y-69082991D01*
X107403448Y-69118729D01*
X107320186Y-69220186D01*
X107218729Y-69303448D01*
X107182991Y-69332778D01*
X107026466Y-69416443D01*
X106856627Y-69467963D01*
X106790442Y-69474482D01*
X106724260Y-69481000D01*
X106635740Y-69481000D01*
X106569558Y-69474482D01*
X106503373Y-69467963D01*
X106333534Y-69416443D01*
X106177009Y-69332778D01*
X106141271Y-69303448D01*
X106039814Y-69220186D01*
X105956552Y-69118729D01*
X105927222Y-69082991D01*
X105843557Y-68926466D01*
X105792037Y-68756627D01*
X105774641Y-68580000D01*
X105792037Y-68403373D01*
X105843557Y-68233534D01*
X105927222Y-68077009D01*
X105956552Y-68041271D01*
X106039814Y-67939814D01*
X106141271Y-67856552D01*
X106177009Y-67827222D01*
X106333534Y-67743557D01*
X106503373Y-67692037D01*
X106569557Y-67685519D01*
X106635740Y-67679000D01*
X106724260Y-67679000D01*
X106790443Y-67685519D01*
X106790443Y-67685519D01*
G37*
G36*
X101231000Y-66941000D02*
G01*
X99429000Y-66941000D01*
X99429000Y-65139000D01*
X101231000Y-65139000D01*
X101231000Y-66941000D01*
X101231000Y-66941000D01*
G37*
G36*
X107581000Y-66941000D02*
G01*
X105779000Y-66941000D01*
X105779000Y-65139000D01*
X107581000Y-65139000D01*
X107581000Y-66941000D01*
X107581000Y-66941000D01*
G37*
G36*
X117975326Y-62921522D02*
G01*
X117418478Y-64635326D01*
X115704674Y-64078478D01*
X116261522Y-62364674D01*
X117975326Y-62921522D01*
X117975326Y-62921522D01*
G37*
G36*
X114534759Y-61820616D02*
G01*
X114600943Y-61827134D01*
X114770782Y-61878654D01*
X114927307Y-61962319D01*
X114963045Y-61991649D01*
X115064502Y-62074911D01*
X115147764Y-62176368D01*
X115177094Y-62212106D01*
X115260759Y-62368631D01*
X115312279Y-62538470D01*
X115329675Y-62715097D01*
X115312279Y-62891724D01*
X115260759Y-63061563D01*
X115177094Y-63218088D01*
X115147764Y-63253826D01*
X115064502Y-63355283D01*
X114963045Y-63438545D01*
X114927307Y-63467875D01*
X114770782Y-63551540D01*
X114600943Y-63603060D01*
X114534758Y-63609579D01*
X114468576Y-63616097D01*
X114380056Y-63616097D01*
X114313874Y-63609579D01*
X114247689Y-63603060D01*
X114077850Y-63551540D01*
X113921325Y-63467875D01*
X113885587Y-63438545D01*
X113784130Y-63355283D01*
X113700868Y-63253826D01*
X113671538Y-63218088D01*
X113587873Y-63061563D01*
X113536353Y-62891724D01*
X113518957Y-62715097D01*
X113536353Y-62538470D01*
X113587873Y-62368631D01*
X113671538Y-62212106D01*
X113700868Y-62176368D01*
X113784130Y-62074911D01*
X113885587Y-61991649D01*
X113921325Y-61962319D01*
X114077850Y-61878654D01*
X114247689Y-61827134D01*
X114313873Y-61820616D01*
X114380056Y-61814097D01*
X114468576Y-61814097D01*
X114534759Y-61820616D01*
X114534759Y-61820616D01*
G37*
M02*
