G04 #@! TF.GenerationSoftware,KiCad,Pcbnew,(5.1.4)-1*
G04 #@! TF.CreationDate,2022-03-15T15:20:23+00:00*
G04 #@! TF.ProjectId,3Pi_IRComms_v2,3350695f-4952-4436-9f6d-6d735f76322e,rev?*
G04 #@! TF.SameCoordinates,Original*
G04 #@! TF.FileFunction,Copper,L1,Top*
G04 #@! TF.FilePolarity,Positive*
%FSLAX46Y46*%
G04 Gerber Fmt 4.6, Leading zero omitted, Abs format (unit mm)*
G04 Created by KiCad (PCBNEW (5.1.4)-1) date 2022-03-15 15:20:23*
%MOMM*%
%LPD*%
G04 APERTURE LIST*
%ADD10C,1.879600*%
%ADD11O,1.700000X1.700000*%
%ADD12R,1.700000X1.700000*%
%ADD13C,1.700000*%
%ADD14C,1.700000*%
%ADD15C,0.150000*%
%ADD16R,1.600000X1.600000*%
%ADD17O,1.600000X1.600000*%
%ADD18C,1.800000*%
%ADD19C,0.800000*%
%ADD20C,0.250000*%
%ADD21C,0.254000*%
G04 APERTURE END LIST*
D10*
X121920000Y-69850000D03*
X127000000Y-69850000D03*
X124460000Y-69850000D03*
X129540000Y-69850000D03*
X119380000Y-69850000D03*
X116840000Y-69850000D03*
X127952500Y-91597480D03*
X127952500Y-94137480D03*
X127952500Y-81122520D03*
X127952500Y-83662520D03*
X130810000Y-72390000D03*
X130810000Y-74930000D03*
X130810000Y-77470000D03*
X130810000Y-80010000D03*
X130810000Y-82550000D03*
X130810000Y-85090000D03*
X130810000Y-87630000D03*
X130810000Y-90170000D03*
X130810000Y-92710000D03*
X130810000Y-95250000D03*
X130810000Y-97790000D03*
X130810000Y-100330000D03*
X115570000Y-100330000D03*
X115570000Y-97790000D03*
X115570000Y-95250000D03*
X115570000Y-92710000D03*
X115570000Y-90170000D03*
X115570000Y-87630000D03*
X115570000Y-85090000D03*
X115570000Y-82550000D03*
X115570000Y-80010000D03*
X115570000Y-77470000D03*
X115570000Y-74930000D03*
X115570000Y-72390000D03*
D11*
X91440000Y-82550000D03*
D12*
X93980000Y-82550000D03*
D11*
X134620000Y-95250000D03*
D12*
X134620000Y-92710000D03*
D11*
X86360000Y-85090000D03*
D12*
X86360000Y-82550000D03*
D13*
X80010000Y-74444903D03*
D14*
X80010000Y-74444903D02*
X80010000Y-74444903D01*
D13*
X81502975Y-72390000D03*
D15*
G36*
X80315693Y-72578047D02*
G01*
X81314928Y-71202718D01*
X82690257Y-72201953D01*
X81691022Y-73577282D01*
X80315693Y-72578047D01*
X80315693Y-72578047D01*
G37*
D16*
X96520000Y-113030000D03*
D17*
X111760000Y-105410000D03*
X99060000Y-113030000D03*
X109220000Y-105410000D03*
X101600000Y-113030000D03*
X106680000Y-105410000D03*
X104140000Y-113030000D03*
X104140000Y-105410000D03*
X106680000Y-113030000D03*
X101600000Y-105410000D03*
X109220000Y-113030000D03*
X99060000Y-105410000D03*
X111760000Y-113030000D03*
X96520000Y-105410000D03*
D15*
G36*
X89575947Y-89271196D02*
G01*
X89600060Y-89274773D01*
X89623707Y-89280696D01*
X89646659Y-89288908D01*
X89668695Y-89299331D01*
X89689604Y-89311863D01*
X89709183Y-89326384D01*
X89727245Y-89342755D01*
X89743616Y-89360817D01*
X89758137Y-89380396D01*
X89770669Y-89401305D01*
X89781092Y-89423341D01*
X89789304Y-89446293D01*
X89795227Y-89469940D01*
X89798804Y-89494053D01*
X89800000Y-89518400D01*
X89800000Y-90821600D01*
X89798804Y-90845947D01*
X89795227Y-90870060D01*
X89789304Y-90893707D01*
X89781092Y-90916659D01*
X89770669Y-90938695D01*
X89758137Y-90959604D01*
X89743616Y-90979183D01*
X89727245Y-90997245D01*
X89709183Y-91013616D01*
X89689604Y-91028137D01*
X89668695Y-91040669D01*
X89646659Y-91051092D01*
X89623707Y-91059304D01*
X89600060Y-91065227D01*
X89575947Y-91068804D01*
X89551600Y-91070000D01*
X88248400Y-91070000D01*
X88224053Y-91068804D01*
X88199940Y-91065227D01*
X88176293Y-91059304D01*
X88153341Y-91051092D01*
X88131305Y-91040669D01*
X88110396Y-91028137D01*
X88090817Y-91013616D01*
X88072755Y-90997245D01*
X88056384Y-90979183D01*
X88041863Y-90959604D01*
X88029331Y-90938695D01*
X88018908Y-90916659D01*
X88010696Y-90893707D01*
X88004773Y-90870060D01*
X88001196Y-90845947D01*
X88000000Y-90821600D01*
X88000000Y-89518400D01*
X88001196Y-89494053D01*
X88004773Y-89469940D01*
X88010696Y-89446293D01*
X88018908Y-89423341D01*
X88029331Y-89401305D01*
X88041863Y-89380396D01*
X88056384Y-89360817D01*
X88072755Y-89342755D01*
X88090817Y-89326384D01*
X88110396Y-89311863D01*
X88131305Y-89299331D01*
X88153341Y-89288908D01*
X88176293Y-89280696D01*
X88199940Y-89274773D01*
X88224053Y-89271196D01*
X88248400Y-89270000D01*
X89551600Y-89270000D01*
X89575947Y-89271196D01*
X89575947Y-89271196D01*
G37*
D18*
X88900000Y-90170000D03*
X88900000Y-92710000D03*
X88900000Y-95250000D03*
D11*
X91440000Y-97790000D03*
D12*
X93980000Y-97790000D03*
D11*
X100330000Y-71120000D03*
X100330000Y-68580000D03*
D12*
X100330000Y-66040000D03*
D13*
X82772975Y-112544903D03*
D14*
X82772975Y-112544903D02*
X82772975Y-112544903D01*
D13*
X81280000Y-110490000D03*
D15*
G36*
X81091953Y-111677282D02*
G01*
X80092718Y-110301953D01*
X81468047Y-109302718D01*
X82467282Y-110678047D01*
X81091953Y-111677282D01*
X81091953Y-111677282D01*
G37*
D11*
X106680000Y-71120000D03*
X106680000Y-68580000D03*
D12*
X106680000Y-66040000D03*
D11*
X83820000Y-91440000D03*
D12*
X83820000Y-93980000D03*
D13*
X114424316Y-62715097D03*
D14*
X114424316Y-62715097D02*
X114424316Y-62715097D01*
D13*
X116840000Y-63500000D03*
D15*
G36*
X116294266Y-62428938D02*
G01*
X117911062Y-62954266D01*
X117385734Y-64571062D01*
X115768938Y-64045734D01*
X116294266Y-62428938D01*
X116294266Y-62428938D01*
G37*
D13*
X115445684Y-119865097D03*
D14*
X115445684Y-119865097D02*
X115445684Y-119865097D01*
D13*
X113030000Y-120650000D03*
D15*
G36*
X114101062Y-121195734D02*
G01*
X112484266Y-121721062D01*
X111958938Y-120104266D01*
X113575734Y-119578938D01*
X114101062Y-121195734D01*
X114101062Y-121195734D01*
G37*
D11*
X91440000Y-95250000D03*
D12*
X93980000Y-95250000D03*
D19*
X85344000Y-64008000D03*
X132842000Y-74930000D03*
X87630000Y-104140000D03*
X101600000Y-119380000D03*
X93980000Y-66040000D03*
X77470000Y-106680000D03*
X99059501Y-98044499D03*
D20*
X115445684Y-119865097D02*
X111150587Y-115570000D01*
X85798072Y-115570000D02*
X82772975Y-112544903D01*
X111150587Y-115570000D02*
X85798072Y-115570000D01*
X129545199Y-81274801D02*
X129545199Y-84576801D01*
X130810000Y-80010000D02*
X129545199Y-81274801D01*
X129545199Y-84576801D02*
X119380000Y-94742000D01*
X119380000Y-94742000D02*
X119380000Y-102362000D01*
X97319999Y-106209999D02*
X96520000Y-105410000D01*
X97645001Y-106535001D02*
X97319999Y-106209999D01*
X115206999Y-106535001D02*
X97645001Y-106535001D01*
X119380000Y-102362000D02*
X115206999Y-106535001D01*
X92289999Y-81700001D02*
X91440000Y-82550000D01*
X92704801Y-81285199D02*
X92289999Y-81700001D01*
X126460744Y-81285199D02*
X92704801Y-81285199D01*
X126623423Y-81122520D02*
X126460744Y-81285199D01*
X127952500Y-81122520D02*
X126623423Y-81122520D01*
X116235480Y-83662520D02*
X116078000Y-83820000D01*
X127952500Y-83662520D02*
X116235480Y-83662520D01*
X95080000Y-82550000D02*
X93980000Y-82550000D01*
X96350000Y-83820000D02*
X95080000Y-82550000D01*
X116078000Y-83820000D02*
X96350000Y-83820000D01*
D21*
G36*
X139040000Y-72663381D02*
G01*
X139040001Y-110216618D01*
X124186620Y-125070000D01*
X86633381Y-125070000D01*
X71890385Y-110327004D01*
X79455138Y-110327004D01*
X79472276Y-110450908D01*
X79513257Y-110569088D01*
X79576507Y-110677002D01*
X80575742Y-112052331D01*
X80658829Y-112145833D01*
X80758561Y-112221328D01*
X80871105Y-112275916D01*
X80992137Y-112307498D01*
X81117004Y-112314862D01*
X81240908Y-112297724D01*
X81307406Y-112274665D01*
X81280790Y-112544903D01*
X81309462Y-112836014D01*
X81394376Y-113115937D01*
X81532269Y-113373917D01*
X81717841Y-113600037D01*
X81943961Y-113785609D01*
X82201941Y-113923502D01*
X82481864Y-114008416D01*
X82700025Y-114029903D01*
X82845925Y-114029903D01*
X83064086Y-114008416D01*
X83138971Y-113985700D01*
X85234272Y-116081002D01*
X85258071Y-116110001D01*
X85373796Y-116204974D01*
X85505825Y-116275546D01*
X85649086Y-116319003D01*
X85760739Y-116330000D01*
X85760748Y-116330000D01*
X85798071Y-116333676D01*
X85835394Y-116330000D01*
X110835786Y-116330000D01*
X113460009Y-118954225D01*
X113378559Y-118972095D01*
X111761763Y-119497423D01*
X111647163Y-119547551D01*
X111544544Y-119619072D01*
X111457849Y-119709239D01*
X111390412Y-119814587D01*
X111344822Y-119931067D01*
X111322833Y-120054203D01*
X111325289Y-120179263D01*
X111352095Y-120301441D01*
X111877423Y-121918237D01*
X111927551Y-122032837D01*
X111999072Y-122135456D01*
X112089239Y-122222151D01*
X112194587Y-122289588D01*
X112311067Y-122335178D01*
X112434203Y-122357167D01*
X112559263Y-122354711D01*
X112681441Y-122327905D01*
X114298237Y-121802577D01*
X114412837Y-121752449D01*
X114515456Y-121680928D01*
X114602151Y-121590761D01*
X114669588Y-121485413D01*
X114715178Y-121368933D01*
X114737167Y-121245797D01*
X114735667Y-121169408D01*
X114874650Y-121243696D01*
X115154573Y-121328610D01*
X115372734Y-121350097D01*
X115518634Y-121350097D01*
X115736795Y-121328610D01*
X116016718Y-121243696D01*
X116274698Y-121105803D01*
X116500818Y-120920231D01*
X116686390Y-120694111D01*
X116824283Y-120436131D01*
X116909197Y-120156208D01*
X116937869Y-119865097D01*
X116909197Y-119573986D01*
X116824283Y-119294063D01*
X116686390Y-119036083D01*
X116500818Y-118809963D01*
X116274698Y-118624391D01*
X116016718Y-118486498D01*
X115736795Y-118401584D01*
X115518634Y-118380097D01*
X115372734Y-118380097D01*
X115154573Y-118401584D01*
X115079689Y-118424300D01*
X112054506Y-115399117D01*
X120185000Y-115399117D01*
X120185000Y-115740883D01*
X120251675Y-116076081D01*
X120382463Y-116391831D01*
X120572337Y-116675998D01*
X120814002Y-116917663D01*
X121098169Y-117107537D01*
X121413919Y-117238325D01*
X121749117Y-117305000D01*
X122090883Y-117305000D01*
X122426081Y-117238325D01*
X122741831Y-117107537D01*
X123025998Y-116917663D01*
X123267663Y-116675998D01*
X123457537Y-116391831D01*
X123588325Y-116076081D01*
X123655000Y-115740883D01*
X123655000Y-115399117D01*
X123588325Y-115063919D01*
X123457537Y-114748169D01*
X123267663Y-114464002D01*
X123025998Y-114222337D01*
X122741831Y-114032463D01*
X122426081Y-113901675D01*
X122090883Y-113835000D01*
X121749117Y-113835000D01*
X121413919Y-113901675D01*
X121098169Y-114032463D01*
X120814002Y-114222337D01*
X120572337Y-114464002D01*
X120382463Y-114748169D01*
X120251675Y-115063919D01*
X120185000Y-115399117D01*
X112054506Y-115399117D01*
X111714391Y-115059003D01*
X111690588Y-115029999D01*
X111574863Y-114935026D01*
X111442834Y-114864454D01*
X111299573Y-114820997D01*
X111187920Y-114810000D01*
X111187909Y-114810000D01*
X111150587Y-114806324D01*
X111113265Y-114810000D01*
X86112874Y-114810000D01*
X85132874Y-113830000D01*
X95081928Y-113830000D01*
X95094188Y-113954482D01*
X95130498Y-114074180D01*
X95189463Y-114184494D01*
X95268815Y-114281185D01*
X95365506Y-114360537D01*
X95475820Y-114419502D01*
X95595518Y-114455812D01*
X95720000Y-114468072D01*
X96234250Y-114465000D01*
X96393000Y-114306250D01*
X96393000Y-113157000D01*
X96647000Y-113157000D01*
X96647000Y-114306250D01*
X96805750Y-114465000D01*
X97320000Y-114468072D01*
X97444482Y-114455812D01*
X97564180Y-114419502D01*
X97674494Y-114360537D01*
X97771185Y-114281185D01*
X97850537Y-114184494D01*
X97909502Y-114074180D01*
X97945812Y-113954482D01*
X97948231Y-113929920D01*
X98096586Y-114093519D01*
X98322580Y-114261037D01*
X98576913Y-114381246D01*
X98710961Y-114421904D01*
X98933000Y-114299915D01*
X98933000Y-113157000D01*
X99187000Y-113157000D01*
X99187000Y-114299915D01*
X99409039Y-114421904D01*
X99543087Y-114381246D01*
X99797420Y-114261037D01*
X100023414Y-114093519D01*
X100212385Y-113885131D01*
X100330000Y-113689018D01*
X100447615Y-113885131D01*
X100636586Y-114093519D01*
X100862580Y-114261037D01*
X101116913Y-114381246D01*
X101250961Y-114421904D01*
X101473000Y-114299915D01*
X101473000Y-113157000D01*
X101727000Y-113157000D01*
X101727000Y-114299915D01*
X101949039Y-114421904D01*
X102083087Y-114381246D01*
X102337420Y-114261037D01*
X102563414Y-114093519D01*
X102752385Y-113885131D01*
X102870000Y-113689018D01*
X102987615Y-113885131D01*
X103176586Y-114093519D01*
X103402580Y-114261037D01*
X103656913Y-114381246D01*
X103790961Y-114421904D01*
X104013000Y-114299915D01*
X104013000Y-113157000D01*
X104267000Y-113157000D01*
X104267000Y-114299915D01*
X104489039Y-114421904D01*
X104623087Y-114381246D01*
X104877420Y-114261037D01*
X105103414Y-114093519D01*
X105292385Y-113885131D01*
X105410000Y-113689018D01*
X105527615Y-113885131D01*
X105716586Y-114093519D01*
X105942580Y-114261037D01*
X106196913Y-114381246D01*
X106330961Y-114421904D01*
X106553000Y-114299915D01*
X106553000Y-113157000D01*
X106807000Y-113157000D01*
X106807000Y-114299915D01*
X107029039Y-114421904D01*
X107163087Y-114381246D01*
X107417420Y-114261037D01*
X107643414Y-114093519D01*
X107832385Y-113885131D01*
X107950000Y-113689018D01*
X108067615Y-113885131D01*
X108256586Y-114093519D01*
X108482580Y-114261037D01*
X108736913Y-114381246D01*
X108870961Y-114421904D01*
X109093000Y-114299915D01*
X109093000Y-113157000D01*
X109347000Y-113157000D01*
X109347000Y-114299915D01*
X109569039Y-114421904D01*
X109703087Y-114381246D01*
X109957420Y-114261037D01*
X110183414Y-114093519D01*
X110372385Y-113885131D01*
X110490000Y-113689018D01*
X110607615Y-113885131D01*
X110796586Y-114093519D01*
X111022580Y-114261037D01*
X111276913Y-114381246D01*
X111410961Y-114421904D01*
X111633000Y-114299915D01*
X111633000Y-113157000D01*
X111887000Y-113157000D01*
X111887000Y-114299915D01*
X112109039Y-114421904D01*
X112243087Y-114381246D01*
X112497420Y-114261037D01*
X112723414Y-114093519D01*
X112912385Y-113885131D01*
X113057070Y-113643881D01*
X113151909Y-113379040D01*
X113030624Y-113157000D01*
X111887000Y-113157000D01*
X111633000Y-113157000D01*
X109347000Y-113157000D01*
X109093000Y-113157000D01*
X106807000Y-113157000D01*
X106553000Y-113157000D01*
X104267000Y-113157000D01*
X104013000Y-113157000D01*
X101727000Y-113157000D01*
X101473000Y-113157000D01*
X99187000Y-113157000D01*
X98933000Y-113157000D01*
X96647000Y-113157000D01*
X96393000Y-113157000D01*
X95243750Y-113157000D01*
X95085000Y-113315750D01*
X95081928Y-113830000D01*
X85132874Y-113830000D01*
X84213772Y-112910899D01*
X84236488Y-112836014D01*
X84265160Y-112544903D01*
X84236488Y-112253792D01*
X84229271Y-112230000D01*
X95081928Y-112230000D01*
X95085000Y-112744250D01*
X95243750Y-112903000D01*
X96393000Y-112903000D01*
X96393000Y-111753750D01*
X96647000Y-111753750D01*
X96647000Y-112903000D01*
X98933000Y-112903000D01*
X98933000Y-111760085D01*
X99187000Y-111760085D01*
X99187000Y-112903000D01*
X101473000Y-112903000D01*
X101473000Y-111760085D01*
X101727000Y-111760085D01*
X101727000Y-112903000D01*
X104013000Y-112903000D01*
X104013000Y-111760085D01*
X104267000Y-111760085D01*
X104267000Y-112903000D01*
X106553000Y-112903000D01*
X106553000Y-111760085D01*
X106807000Y-111760085D01*
X106807000Y-112903000D01*
X109093000Y-112903000D01*
X109093000Y-111760085D01*
X109347000Y-111760085D01*
X109347000Y-112903000D01*
X111633000Y-112903000D01*
X111633000Y-111760085D01*
X111887000Y-111760085D01*
X111887000Y-112903000D01*
X113030624Y-112903000D01*
X113151909Y-112680960D01*
X113057070Y-112416119D01*
X112912385Y-112174869D01*
X112723414Y-111966481D01*
X112497420Y-111798963D01*
X112243087Y-111678754D01*
X112109039Y-111638096D01*
X111887000Y-111760085D01*
X111633000Y-111760085D01*
X111410961Y-111638096D01*
X111276913Y-111678754D01*
X111022580Y-111798963D01*
X110796586Y-111966481D01*
X110607615Y-112174869D01*
X110490000Y-112370982D01*
X110372385Y-112174869D01*
X110183414Y-111966481D01*
X109957420Y-111798963D01*
X109703087Y-111678754D01*
X109569039Y-111638096D01*
X109347000Y-111760085D01*
X109093000Y-111760085D01*
X108870961Y-111638096D01*
X108736913Y-111678754D01*
X108482580Y-111798963D01*
X108256586Y-111966481D01*
X108067615Y-112174869D01*
X107950000Y-112370982D01*
X107832385Y-112174869D01*
X107643414Y-111966481D01*
X107417420Y-111798963D01*
X107163087Y-111678754D01*
X107029039Y-111638096D01*
X106807000Y-111760085D01*
X106553000Y-111760085D01*
X106330961Y-111638096D01*
X106196913Y-111678754D01*
X105942580Y-111798963D01*
X105716586Y-111966481D01*
X105527615Y-112174869D01*
X105410000Y-112370982D01*
X105292385Y-112174869D01*
X105103414Y-111966481D01*
X104877420Y-111798963D01*
X104623087Y-111678754D01*
X104489039Y-111638096D01*
X104267000Y-111760085D01*
X104013000Y-111760085D01*
X103790961Y-111638096D01*
X103656913Y-111678754D01*
X103402580Y-111798963D01*
X103176586Y-111966481D01*
X102987615Y-112174869D01*
X102870000Y-112370982D01*
X102752385Y-112174869D01*
X102563414Y-111966481D01*
X102337420Y-111798963D01*
X102083087Y-111678754D01*
X101949039Y-111638096D01*
X101727000Y-111760085D01*
X101473000Y-111760085D01*
X101250961Y-111638096D01*
X101116913Y-111678754D01*
X100862580Y-111798963D01*
X100636586Y-111966481D01*
X100447615Y-112174869D01*
X100330000Y-112370982D01*
X100212385Y-112174869D01*
X100023414Y-111966481D01*
X99797420Y-111798963D01*
X99543087Y-111678754D01*
X99409039Y-111638096D01*
X99187000Y-111760085D01*
X98933000Y-111760085D01*
X98710961Y-111638096D01*
X98576913Y-111678754D01*
X98322580Y-111798963D01*
X98096586Y-111966481D01*
X97948231Y-112130080D01*
X97945812Y-112105518D01*
X97909502Y-111985820D01*
X97850537Y-111875506D01*
X97771185Y-111778815D01*
X97674494Y-111699463D01*
X97564180Y-111640498D01*
X97444482Y-111604188D01*
X97320000Y-111591928D01*
X96805750Y-111595000D01*
X96647000Y-111753750D01*
X96393000Y-111753750D01*
X96234250Y-111595000D01*
X95720000Y-111591928D01*
X95595518Y-111604188D01*
X95475820Y-111640498D01*
X95365506Y-111699463D01*
X95268815Y-111778815D01*
X95189463Y-111875506D01*
X95130498Y-111985820D01*
X95094188Y-112105518D01*
X95081928Y-112230000D01*
X84229271Y-112230000D01*
X84151574Y-111973869D01*
X84013681Y-111715889D01*
X83828109Y-111489769D01*
X83601989Y-111304197D01*
X83344009Y-111166304D01*
X83064086Y-111081390D01*
X82965711Y-111071701D01*
X83011328Y-111011439D01*
X83065916Y-110898895D01*
X83097498Y-110777863D01*
X83104862Y-110652996D01*
X83087724Y-110529092D01*
X83046743Y-110410912D01*
X82983493Y-110302998D01*
X81984258Y-108927669D01*
X81901171Y-108834167D01*
X81801439Y-108758672D01*
X81688895Y-108704084D01*
X81567863Y-108672502D01*
X81442996Y-108665138D01*
X81319092Y-108682276D01*
X81200912Y-108723257D01*
X81092998Y-108786507D01*
X79717669Y-109785742D01*
X79624167Y-109868829D01*
X79548672Y-109968561D01*
X79494084Y-110081105D01*
X79462502Y-110202137D01*
X79455138Y-110327004D01*
X71890385Y-110327004D01*
X71780000Y-110216620D01*
X71780000Y-98146891D01*
X89998519Y-98146891D01*
X90095843Y-98421252D01*
X90244822Y-98671355D01*
X90439731Y-98887588D01*
X90673080Y-99061641D01*
X90935901Y-99186825D01*
X91083110Y-99231476D01*
X91313000Y-99110155D01*
X91313000Y-97917000D01*
X91567000Y-97917000D01*
X91567000Y-99110155D01*
X91796890Y-99231476D01*
X91944099Y-99186825D01*
X92206920Y-99061641D01*
X92440269Y-98887588D01*
X92516034Y-98803534D01*
X92540498Y-98884180D01*
X92599463Y-98994494D01*
X92678815Y-99091185D01*
X92775506Y-99170537D01*
X92885820Y-99229502D01*
X93005518Y-99265812D01*
X93130000Y-99278072D01*
X93694250Y-99275000D01*
X93853000Y-99116250D01*
X93853000Y-97917000D01*
X94107000Y-97917000D01*
X94107000Y-99116250D01*
X94265750Y-99275000D01*
X94830000Y-99278072D01*
X94954482Y-99265812D01*
X95074180Y-99229502D01*
X95184494Y-99170537D01*
X95281185Y-99091185D01*
X95360537Y-98994494D01*
X95419502Y-98884180D01*
X95455812Y-98764482D01*
X95468072Y-98640000D01*
X95465000Y-98075750D01*
X95306250Y-97917000D01*
X94107000Y-97917000D01*
X93853000Y-97917000D01*
X91567000Y-97917000D01*
X91313000Y-97917000D01*
X90119186Y-97917000D01*
X89998519Y-98146891D01*
X71780000Y-98146891D01*
X71780000Y-91440000D01*
X82327815Y-91440000D01*
X82356487Y-91731111D01*
X82441401Y-92011034D01*
X82579294Y-92269014D01*
X82764866Y-92495134D01*
X82794687Y-92519607D01*
X82725820Y-92540498D01*
X82615506Y-92599463D01*
X82518815Y-92678815D01*
X82439463Y-92775506D01*
X82380498Y-92885820D01*
X82344188Y-93005518D01*
X82331928Y-93130000D01*
X82331928Y-94830000D01*
X82344188Y-94954482D01*
X82380498Y-95074180D01*
X82439463Y-95184494D01*
X82518815Y-95281185D01*
X82615506Y-95360537D01*
X82725820Y-95419502D01*
X82845518Y-95455812D01*
X82970000Y-95468072D01*
X84670000Y-95468072D01*
X84794482Y-95455812D01*
X84914180Y-95419502D01*
X85024494Y-95360537D01*
X85121185Y-95281185D01*
X85200537Y-95184494D01*
X85246333Y-95098816D01*
X87365000Y-95098816D01*
X87365000Y-95401184D01*
X87423989Y-95697743D01*
X87539701Y-95977095D01*
X87707688Y-96228505D01*
X87921495Y-96442312D01*
X88172905Y-96610299D01*
X88452257Y-96726011D01*
X88748816Y-96785000D01*
X89051184Y-96785000D01*
X89347743Y-96726011D01*
X89627095Y-96610299D01*
X89878505Y-96442312D01*
X90092312Y-96228505D01*
X90196141Y-96073115D01*
X90199294Y-96079014D01*
X90384866Y-96305134D01*
X90610986Y-96490706D01*
X90668756Y-96521584D01*
X90439731Y-96692412D01*
X90244822Y-96908645D01*
X90095843Y-97158748D01*
X89998519Y-97433109D01*
X90119186Y-97663000D01*
X91313000Y-97663000D01*
X91313000Y-97643000D01*
X91567000Y-97643000D01*
X91567000Y-97663000D01*
X93853000Y-97663000D01*
X93853000Y-97643000D01*
X94107000Y-97643000D01*
X94107000Y-97663000D01*
X95306250Y-97663000D01*
X95465000Y-97504250D01*
X95468072Y-96940000D01*
X95455812Y-96815518D01*
X95419502Y-96695820D01*
X95360537Y-96585506D01*
X95306778Y-96520000D01*
X95360537Y-96454494D01*
X95419502Y-96344180D01*
X95455812Y-96224482D01*
X95468072Y-96100000D01*
X95468072Y-94400000D01*
X95455812Y-94275518D01*
X95419502Y-94155820D01*
X95360537Y-94045506D01*
X95281185Y-93948815D01*
X95184494Y-93869463D01*
X95074180Y-93810498D01*
X94954482Y-93774188D01*
X94830000Y-93761928D01*
X93130000Y-93761928D01*
X93005518Y-93774188D01*
X92885820Y-93810498D01*
X92775506Y-93869463D01*
X92678815Y-93948815D01*
X92599463Y-94045506D01*
X92540498Y-94155820D01*
X92519607Y-94224687D01*
X92495134Y-94194866D01*
X92269014Y-94009294D01*
X92011034Y-93871401D01*
X91731111Y-93786487D01*
X91512950Y-93765000D01*
X91367050Y-93765000D01*
X91148889Y-93786487D01*
X90868966Y-93871401D01*
X90610986Y-94009294D01*
X90384866Y-94194866D01*
X90199294Y-94420986D01*
X90196141Y-94426885D01*
X90092312Y-94271495D01*
X89878505Y-94057688D01*
X89724895Y-93955049D01*
X89784475Y-93774080D01*
X88900000Y-92889605D01*
X88015525Y-93774080D01*
X88075105Y-93955049D01*
X87921495Y-94057688D01*
X87707688Y-94271495D01*
X87539701Y-94522905D01*
X87423989Y-94802257D01*
X87365000Y-95098816D01*
X85246333Y-95098816D01*
X85259502Y-95074180D01*
X85295812Y-94954482D01*
X85308072Y-94830000D01*
X85308072Y-93130000D01*
X85295812Y-93005518D01*
X85259502Y-92885820D01*
X85201097Y-92776553D01*
X87359009Y-92776553D01*
X87401603Y-93075907D01*
X87501778Y-93361199D01*
X87581739Y-93510792D01*
X87835920Y-93594475D01*
X88720395Y-92710000D01*
X89079605Y-92710000D01*
X89964080Y-93594475D01*
X90218261Y-93510792D01*
X90349158Y-93238225D01*
X90424365Y-92945358D01*
X90440991Y-92643447D01*
X90398397Y-92344093D01*
X90298222Y-92058801D01*
X90218261Y-91909208D01*
X89964080Y-91825525D01*
X89079605Y-92710000D01*
X88720395Y-92710000D01*
X87835920Y-91825525D01*
X87581739Y-91909208D01*
X87450842Y-92181775D01*
X87375635Y-92474642D01*
X87359009Y-92776553D01*
X85201097Y-92776553D01*
X85200537Y-92775506D01*
X85121185Y-92678815D01*
X85024494Y-92599463D01*
X84914180Y-92540498D01*
X84845313Y-92519607D01*
X84875134Y-92495134D01*
X85060706Y-92269014D01*
X85198599Y-92011034D01*
X85283513Y-91731111D01*
X85312185Y-91440000D01*
X85283513Y-91148889D01*
X85198599Y-90868966D01*
X85060706Y-90610986D01*
X84875134Y-90384866D01*
X84649014Y-90199294D01*
X84391034Y-90061401D01*
X84111111Y-89976487D01*
X83892950Y-89955000D01*
X83747050Y-89955000D01*
X83528889Y-89976487D01*
X83248966Y-90061401D01*
X82990986Y-90199294D01*
X82764866Y-90384866D01*
X82579294Y-90610986D01*
X82441401Y-90868966D01*
X82356487Y-91148889D01*
X82327815Y-91440000D01*
X71780000Y-91440000D01*
X71780000Y-89518400D01*
X87361928Y-89518400D01*
X87361928Y-90821600D01*
X87378961Y-90994542D01*
X87429407Y-91160838D01*
X87511325Y-91314097D01*
X87621570Y-91448430D01*
X87755903Y-91558675D01*
X87909162Y-91640593D01*
X88054193Y-91684588D01*
X88900000Y-92530395D01*
X89745807Y-91684588D01*
X89890838Y-91640593D01*
X90044097Y-91558675D01*
X90178430Y-91448430D01*
X90288675Y-91314097D01*
X90370593Y-91160838D01*
X90421039Y-90994542D01*
X90438072Y-90821600D01*
X90438072Y-89518400D01*
X90421039Y-89345458D01*
X90370593Y-89179162D01*
X90288675Y-89025903D01*
X90178430Y-88891570D01*
X90044097Y-88781325D01*
X89890838Y-88699407D01*
X89724542Y-88648961D01*
X89551600Y-88631928D01*
X88248400Y-88631928D01*
X88075458Y-88648961D01*
X87909162Y-88699407D01*
X87755903Y-88781325D01*
X87621570Y-88891570D01*
X87511325Y-89025903D01*
X87429407Y-89179162D01*
X87378961Y-89345458D01*
X87361928Y-89518400D01*
X71780000Y-89518400D01*
X71780000Y-85090000D01*
X84867815Y-85090000D01*
X84896487Y-85381111D01*
X84981401Y-85661034D01*
X85119294Y-85919014D01*
X85304866Y-86145134D01*
X85530986Y-86330706D01*
X85788966Y-86468599D01*
X86068889Y-86553513D01*
X86287050Y-86575000D01*
X86432950Y-86575000D01*
X86651111Y-86553513D01*
X86931034Y-86468599D01*
X87189014Y-86330706D01*
X87415134Y-86145134D01*
X87600706Y-85919014D01*
X87738599Y-85661034D01*
X87823513Y-85381111D01*
X87852185Y-85090000D01*
X87823513Y-84798889D01*
X87738599Y-84518966D01*
X87600706Y-84260986D01*
X87415134Y-84034866D01*
X87385313Y-84010393D01*
X87454180Y-83989502D01*
X87564494Y-83930537D01*
X87661185Y-83851185D01*
X87740537Y-83754494D01*
X87799502Y-83644180D01*
X87835812Y-83524482D01*
X87848072Y-83400000D01*
X87848072Y-82550000D01*
X89947815Y-82550000D01*
X89976487Y-82841111D01*
X90061401Y-83121034D01*
X90199294Y-83379014D01*
X90384866Y-83605134D01*
X90610986Y-83790706D01*
X90868966Y-83928599D01*
X91148889Y-84013513D01*
X91367050Y-84035000D01*
X91512950Y-84035000D01*
X91731111Y-84013513D01*
X92011034Y-83928599D01*
X92269014Y-83790706D01*
X92495134Y-83605134D01*
X92519607Y-83575313D01*
X92540498Y-83644180D01*
X92599463Y-83754494D01*
X92678815Y-83851185D01*
X92775506Y-83930537D01*
X92885820Y-83989502D01*
X93005518Y-84025812D01*
X93130000Y-84038072D01*
X94830000Y-84038072D01*
X94954482Y-84025812D01*
X95074180Y-83989502D01*
X95184494Y-83930537D01*
X95281185Y-83851185D01*
X95292543Y-83837345D01*
X95786201Y-84331003D01*
X95809999Y-84360001D01*
X95925724Y-84454974D01*
X96057753Y-84525546D01*
X96201014Y-84569003D01*
X96312667Y-84580000D01*
X96312676Y-84580000D01*
X96349999Y-84583676D01*
X96387322Y-84580000D01*
X114076697Y-84580000D01*
X114055718Y-84630648D01*
X113995200Y-84934896D01*
X113995200Y-85245104D01*
X114055718Y-85549352D01*
X114174430Y-85835948D01*
X114346773Y-86093877D01*
X114566123Y-86313227D01*
X114636124Y-86360000D01*
X114566123Y-86406773D01*
X114346773Y-86626123D01*
X114174430Y-86884052D01*
X114055718Y-87170648D01*
X113995200Y-87474896D01*
X113995200Y-87785104D01*
X114055718Y-88089352D01*
X114174430Y-88375948D01*
X114346773Y-88633877D01*
X114566123Y-88853227D01*
X114636124Y-88900000D01*
X114566123Y-88946773D01*
X114346773Y-89166123D01*
X114174430Y-89424052D01*
X114055718Y-89710648D01*
X113995200Y-90014896D01*
X113995200Y-90325104D01*
X114055718Y-90629352D01*
X114174430Y-90915948D01*
X114346773Y-91173877D01*
X114566123Y-91393227D01*
X114636124Y-91440000D01*
X114566123Y-91486773D01*
X114346773Y-91706123D01*
X114174430Y-91964052D01*
X114055718Y-92250648D01*
X113995200Y-92554896D01*
X113995200Y-92865104D01*
X114055718Y-93169352D01*
X114174430Y-93455948D01*
X114346773Y-93713877D01*
X114566123Y-93933227D01*
X114636124Y-93980000D01*
X114566123Y-94026773D01*
X114346773Y-94246123D01*
X114174430Y-94504052D01*
X114055718Y-94790648D01*
X113995200Y-95094896D01*
X113995200Y-95405104D01*
X114055718Y-95709352D01*
X114174430Y-95995948D01*
X114346773Y-96253877D01*
X114566123Y-96473227D01*
X114636124Y-96520000D01*
X114566123Y-96566773D01*
X114346773Y-96786123D01*
X114174430Y-97044052D01*
X114055718Y-97330648D01*
X113995200Y-97634896D01*
X113995200Y-97945104D01*
X114055718Y-98249352D01*
X114174430Y-98535948D01*
X114346773Y-98793877D01*
X114566123Y-99013227D01*
X114636124Y-99060000D01*
X114566123Y-99106773D01*
X114346773Y-99326123D01*
X114174430Y-99584052D01*
X114055718Y-99870648D01*
X113995200Y-100174896D01*
X113995200Y-100485104D01*
X114055718Y-100789352D01*
X114174430Y-101075948D01*
X114346773Y-101333877D01*
X114566123Y-101553227D01*
X114824052Y-101725570D01*
X115110648Y-101844282D01*
X115414896Y-101904800D01*
X115725104Y-101904800D01*
X116029352Y-101844282D01*
X116315948Y-101725570D01*
X116573877Y-101553227D01*
X116793227Y-101333877D01*
X116965570Y-101075948D01*
X117084282Y-100789352D01*
X117144800Y-100485104D01*
X117144800Y-100174896D01*
X117084282Y-99870648D01*
X116965570Y-99584052D01*
X116793227Y-99326123D01*
X116573877Y-99106773D01*
X116503876Y-99060000D01*
X116573877Y-99013227D01*
X116793227Y-98793877D01*
X116965570Y-98535948D01*
X117084282Y-98249352D01*
X117144800Y-97945104D01*
X117144800Y-97634896D01*
X117084282Y-97330648D01*
X116965570Y-97044052D01*
X116793227Y-96786123D01*
X116573877Y-96566773D01*
X116503876Y-96520000D01*
X116573877Y-96473227D01*
X116793227Y-96253877D01*
X116965570Y-95995948D01*
X117084282Y-95709352D01*
X117144800Y-95405104D01*
X117144800Y-95094896D01*
X117084282Y-94790648D01*
X116965570Y-94504052D01*
X116793227Y-94246123D01*
X116573877Y-94026773D01*
X116503876Y-93980000D01*
X116573877Y-93933227D01*
X116793227Y-93713877D01*
X116965570Y-93455948D01*
X117084282Y-93169352D01*
X117144800Y-92865104D01*
X117144800Y-92554896D01*
X117084282Y-92250648D01*
X116965570Y-91964052D01*
X116793227Y-91706123D01*
X116573877Y-91486773D01*
X116503876Y-91440000D01*
X116573877Y-91393227D01*
X116793227Y-91173877D01*
X116965570Y-90915948D01*
X117084282Y-90629352D01*
X117144800Y-90325104D01*
X117144800Y-90014896D01*
X117084282Y-89710648D01*
X116965570Y-89424052D01*
X116793227Y-89166123D01*
X116573877Y-88946773D01*
X116503876Y-88900000D01*
X116573877Y-88853227D01*
X116793227Y-88633877D01*
X116965570Y-88375948D01*
X117084282Y-88089352D01*
X117144800Y-87785104D01*
X117144800Y-87474896D01*
X117084282Y-87170648D01*
X116965570Y-86884052D01*
X116793227Y-86626123D01*
X116573877Y-86406773D01*
X116503876Y-86360000D01*
X116573877Y-86313227D01*
X116793227Y-86093877D01*
X116965570Y-85835948D01*
X117084282Y-85549352D01*
X117144800Y-85245104D01*
X117144800Y-84934896D01*
X117084282Y-84630648D01*
X116998073Y-84422520D01*
X126566319Y-84422520D01*
X126729273Y-84666397D01*
X126948623Y-84885747D01*
X127206552Y-85058090D01*
X127493148Y-85176802D01*
X127797396Y-85237320D01*
X127809878Y-85237320D01*
X118869003Y-94178196D01*
X118839999Y-94201999D01*
X118803788Y-94246123D01*
X118745026Y-94317724D01*
X118701048Y-94400000D01*
X118674454Y-94449754D01*
X118630997Y-94593015D01*
X118620000Y-94704668D01*
X118620000Y-94704678D01*
X118616324Y-94742000D01*
X118620000Y-94779322D01*
X118620001Y-102047197D01*
X114892198Y-105775001D01*
X113148849Y-105775001D01*
X113174236Y-105691309D01*
X113201943Y-105410000D01*
X113174236Y-105128691D01*
X113092182Y-104858192D01*
X112958932Y-104608899D01*
X112779608Y-104390392D01*
X112561101Y-104211068D01*
X112311808Y-104077818D01*
X112041309Y-103995764D01*
X111830492Y-103975000D01*
X111689508Y-103975000D01*
X111478691Y-103995764D01*
X111208192Y-104077818D01*
X110958899Y-104211068D01*
X110740392Y-104390392D01*
X110561068Y-104608899D01*
X110490000Y-104741858D01*
X110418932Y-104608899D01*
X110239608Y-104390392D01*
X110021101Y-104211068D01*
X109771808Y-104077818D01*
X109501309Y-103995764D01*
X109290492Y-103975000D01*
X109149508Y-103975000D01*
X108938691Y-103995764D01*
X108668192Y-104077818D01*
X108418899Y-104211068D01*
X108200392Y-104390392D01*
X108021068Y-104608899D01*
X107950000Y-104741858D01*
X107878932Y-104608899D01*
X107699608Y-104390392D01*
X107481101Y-104211068D01*
X107231808Y-104077818D01*
X106961309Y-103995764D01*
X106750492Y-103975000D01*
X106609508Y-103975000D01*
X106398691Y-103995764D01*
X106128192Y-104077818D01*
X105878899Y-104211068D01*
X105660392Y-104390392D01*
X105481068Y-104608899D01*
X105407421Y-104746682D01*
X105292385Y-104554869D01*
X105103414Y-104346481D01*
X104877420Y-104178963D01*
X104623087Y-104058754D01*
X104489039Y-104018096D01*
X104267000Y-104140085D01*
X104267000Y-105283000D01*
X104287000Y-105283000D01*
X104287000Y-105537000D01*
X104267000Y-105537000D01*
X104267000Y-105557000D01*
X104013000Y-105557000D01*
X104013000Y-105537000D01*
X101727000Y-105537000D01*
X101727000Y-105557000D01*
X101473000Y-105557000D01*
X101473000Y-105537000D01*
X99187000Y-105537000D01*
X99187000Y-105557000D01*
X98933000Y-105557000D01*
X98933000Y-105537000D01*
X98913000Y-105537000D01*
X98913000Y-105283000D01*
X98933000Y-105283000D01*
X98933000Y-104140085D01*
X99187000Y-104140085D01*
X99187000Y-105283000D01*
X101473000Y-105283000D01*
X101473000Y-104140085D01*
X101727000Y-104140085D01*
X101727000Y-105283000D01*
X104013000Y-105283000D01*
X104013000Y-104140085D01*
X103790961Y-104018096D01*
X103656913Y-104058754D01*
X103402580Y-104178963D01*
X103176586Y-104346481D01*
X102987615Y-104554869D01*
X102870000Y-104750982D01*
X102752385Y-104554869D01*
X102563414Y-104346481D01*
X102337420Y-104178963D01*
X102083087Y-104058754D01*
X101949039Y-104018096D01*
X101727000Y-104140085D01*
X101473000Y-104140085D01*
X101250961Y-104018096D01*
X101116913Y-104058754D01*
X100862580Y-104178963D01*
X100636586Y-104346481D01*
X100447615Y-104554869D01*
X100330000Y-104750982D01*
X100212385Y-104554869D01*
X100023414Y-104346481D01*
X99797420Y-104178963D01*
X99543087Y-104058754D01*
X99409039Y-104018096D01*
X99187000Y-104140085D01*
X98933000Y-104140085D01*
X98710961Y-104018096D01*
X98576913Y-104058754D01*
X98322580Y-104178963D01*
X98096586Y-104346481D01*
X97907615Y-104554869D01*
X97792579Y-104746682D01*
X97718932Y-104608899D01*
X97539608Y-104390392D01*
X97321101Y-104211068D01*
X97071808Y-104077818D01*
X96801309Y-103995764D01*
X96590492Y-103975000D01*
X96449508Y-103975000D01*
X96238691Y-103995764D01*
X95968192Y-104077818D01*
X95718899Y-104211068D01*
X95500392Y-104390392D01*
X95321068Y-104608899D01*
X95187818Y-104858192D01*
X95105764Y-105128691D01*
X95078057Y-105410000D01*
X95105764Y-105691309D01*
X95187818Y-105961808D01*
X95321068Y-106211101D01*
X95500392Y-106429608D01*
X95718899Y-106608932D01*
X95968192Y-106742182D01*
X96238691Y-106824236D01*
X96449508Y-106845000D01*
X96590492Y-106845000D01*
X96801309Y-106824236D01*
X96845907Y-106810708D01*
X97081197Y-107045998D01*
X97105000Y-107075002D01*
X97220725Y-107169975D01*
X97352754Y-107240547D01*
X97496015Y-107284004D01*
X97607668Y-107295001D01*
X97607677Y-107295001D01*
X97645000Y-107298677D01*
X97682323Y-107295001D01*
X115169677Y-107295001D01*
X115206999Y-107298677D01*
X115244321Y-107295001D01*
X115244332Y-107295001D01*
X115355985Y-107284004D01*
X115499246Y-107240547D01*
X115631275Y-107169975D01*
X115747000Y-107075002D01*
X115770803Y-107045998D01*
X119891003Y-102925799D01*
X119920001Y-102902001D01*
X120014974Y-102786276D01*
X120085546Y-102654247D01*
X120129003Y-102510986D01*
X120140000Y-102399333D01*
X120143677Y-102362000D01*
X120140000Y-102324667D01*
X120140000Y-95056801D01*
X129398738Y-85798064D01*
X129414430Y-85835948D01*
X129586773Y-86093877D01*
X129806123Y-86313227D01*
X129876124Y-86360000D01*
X129806123Y-86406773D01*
X129586773Y-86626123D01*
X129414430Y-86884052D01*
X129295718Y-87170648D01*
X129235200Y-87474896D01*
X129235200Y-87785104D01*
X129295718Y-88089352D01*
X129414430Y-88375948D01*
X129586773Y-88633877D01*
X129806123Y-88853227D01*
X129876124Y-88900000D01*
X129806123Y-88946773D01*
X129586773Y-89166123D01*
X129414430Y-89424052D01*
X129295718Y-89710648D01*
X129235200Y-90014896D01*
X129235200Y-90325104D01*
X129295718Y-90629352D01*
X129414430Y-90915948D01*
X129586773Y-91173877D01*
X129806123Y-91393227D01*
X129876124Y-91440000D01*
X129806123Y-91486773D01*
X129586773Y-91706123D01*
X129515250Y-91813165D01*
X129527300Y-91752584D01*
X129527300Y-91442376D01*
X129466782Y-91138128D01*
X129348070Y-90851532D01*
X129175727Y-90593603D01*
X128956377Y-90374253D01*
X128698448Y-90201910D01*
X128411852Y-90083198D01*
X128107604Y-90022680D01*
X127797396Y-90022680D01*
X127493148Y-90083198D01*
X127206552Y-90201910D01*
X126948623Y-90374253D01*
X126729273Y-90593603D01*
X126556930Y-90851532D01*
X126438218Y-91138128D01*
X126377700Y-91442376D01*
X126377700Y-91752584D01*
X126438218Y-92056832D01*
X126556930Y-92343428D01*
X126729273Y-92601357D01*
X126948623Y-92820707D01*
X127018624Y-92867480D01*
X126948623Y-92914253D01*
X126729273Y-93133603D01*
X126556930Y-93391532D01*
X126438218Y-93678128D01*
X126377700Y-93982376D01*
X126377700Y-94292584D01*
X126438218Y-94596832D01*
X126556930Y-94883428D01*
X126729273Y-95141357D01*
X126948623Y-95360707D01*
X127206552Y-95533050D01*
X127493148Y-95651762D01*
X127797396Y-95712280D01*
X128107604Y-95712280D01*
X128411852Y-95651762D01*
X128698448Y-95533050D01*
X128956377Y-95360707D01*
X129175727Y-95141357D01*
X129247250Y-95034315D01*
X129235200Y-95094896D01*
X129235200Y-95405104D01*
X129295718Y-95709352D01*
X129414430Y-95995948D01*
X129586773Y-96253877D01*
X129806123Y-96473227D01*
X129876124Y-96520000D01*
X129806123Y-96566773D01*
X129586773Y-96786123D01*
X129414430Y-97044052D01*
X129295718Y-97330648D01*
X129235200Y-97634896D01*
X129235200Y-97945104D01*
X129295718Y-98249352D01*
X129414430Y-98535948D01*
X129586773Y-98793877D01*
X129806123Y-99013227D01*
X129876124Y-99060000D01*
X129806123Y-99106773D01*
X129586773Y-99326123D01*
X129414430Y-99584052D01*
X129295718Y-99870648D01*
X129235200Y-100174896D01*
X129235200Y-100485104D01*
X129295718Y-100789352D01*
X129414430Y-101075948D01*
X129586773Y-101333877D01*
X129806123Y-101553227D01*
X130064052Y-101725570D01*
X130350648Y-101844282D01*
X130654896Y-101904800D01*
X130965104Y-101904800D01*
X131269352Y-101844282D01*
X131555948Y-101725570D01*
X131813877Y-101553227D01*
X132033227Y-101333877D01*
X132205570Y-101075948D01*
X132324282Y-100789352D01*
X132384800Y-100485104D01*
X132384800Y-100174896D01*
X132324282Y-99870648D01*
X132205570Y-99584052D01*
X132033227Y-99326123D01*
X131813877Y-99106773D01*
X131743876Y-99060000D01*
X131813877Y-99013227D01*
X132033227Y-98793877D01*
X132205570Y-98535948D01*
X132324282Y-98249352D01*
X132384800Y-97945104D01*
X132384800Y-97634896D01*
X132324282Y-97330648D01*
X132205570Y-97044052D01*
X132033227Y-96786123D01*
X131813877Y-96566773D01*
X131743876Y-96520000D01*
X131813877Y-96473227D01*
X132033227Y-96253877D01*
X132205570Y-95995948D01*
X132324282Y-95709352D01*
X132384800Y-95405104D01*
X132384800Y-95250000D01*
X133127815Y-95250000D01*
X133156487Y-95541111D01*
X133241401Y-95821034D01*
X133379294Y-96079014D01*
X133564866Y-96305134D01*
X133790986Y-96490706D01*
X134048966Y-96628599D01*
X134328889Y-96713513D01*
X134547050Y-96735000D01*
X134692950Y-96735000D01*
X134911111Y-96713513D01*
X135191034Y-96628599D01*
X135449014Y-96490706D01*
X135675134Y-96305134D01*
X135860706Y-96079014D01*
X135998599Y-95821034D01*
X136083513Y-95541111D01*
X136112185Y-95250000D01*
X136083513Y-94958889D01*
X135998599Y-94678966D01*
X135860706Y-94420986D01*
X135675134Y-94194866D01*
X135645313Y-94170393D01*
X135714180Y-94149502D01*
X135824494Y-94090537D01*
X135921185Y-94011185D01*
X136000537Y-93914494D01*
X136059502Y-93804180D01*
X136095812Y-93684482D01*
X136108072Y-93560000D01*
X136108072Y-91860000D01*
X136095812Y-91735518D01*
X136059502Y-91615820D01*
X136000537Y-91505506D01*
X135921185Y-91408815D01*
X135824494Y-91329463D01*
X135714180Y-91270498D01*
X135594482Y-91234188D01*
X135470000Y-91221928D01*
X133770000Y-91221928D01*
X133645518Y-91234188D01*
X133525820Y-91270498D01*
X133415506Y-91329463D01*
X133318815Y-91408815D01*
X133239463Y-91505506D01*
X133180498Y-91615820D01*
X133144188Y-91735518D01*
X133131928Y-91860000D01*
X133131928Y-93560000D01*
X133144188Y-93684482D01*
X133180498Y-93804180D01*
X133239463Y-93914494D01*
X133318815Y-94011185D01*
X133415506Y-94090537D01*
X133525820Y-94149502D01*
X133594687Y-94170393D01*
X133564866Y-94194866D01*
X133379294Y-94420986D01*
X133241401Y-94678966D01*
X133156487Y-94958889D01*
X133127815Y-95250000D01*
X132384800Y-95250000D01*
X132384800Y-95094896D01*
X132324282Y-94790648D01*
X132205570Y-94504052D01*
X132033227Y-94246123D01*
X131813877Y-94026773D01*
X131743876Y-93980000D01*
X131813877Y-93933227D01*
X132033227Y-93713877D01*
X132205570Y-93455948D01*
X132324282Y-93169352D01*
X132384800Y-92865104D01*
X132384800Y-92554896D01*
X132324282Y-92250648D01*
X132205570Y-91964052D01*
X132033227Y-91706123D01*
X131813877Y-91486773D01*
X131743876Y-91440000D01*
X131813877Y-91393227D01*
X132033227Y-91173877D01*
X132205570Y-90915948D01*
X132324282Y-90629352D01*
X132384800Y-90325104D01*
X132384800Y-90014896D01*
X132324282Y-89710648D01*
X132205570Y-89424052D01*
X132033227Y-89166123D01*
X131813877Y-88946773D01*
X131743876Y-88900000D01*
X131813877Y-88853227D01*
X132033227Y-88633877D01*
X132205570Y-88375948D01*
X132324282Y-88089352D01*
X132384800Y-87785104D01*
X132384800Y-87474896D01*
X132324282Y-87170648D01*
X132205570Y-86884052D01*
X132033227Y-86626123D01*
X131813877Y-86406773D01*
X131743876Y-86360000D01*
X131813877Y-86313227D01*
X132033227Y-86093877D01*
X132205570Y-85835948D01*
X132324282Y-85549352D01*
X132384800Y-85245104D01*
X132384800Y-84934896D01*
X132324282Y-84630648D01*
X132205570Y-84344052D01*
X132033227Y-84086123D01*
X131813877Y-83866773D01*
X131743876Y-83820000D01*
X131813877Y-83773227D01*
X132033227Y-83553877D01*
X132205570Y-83295948D01*
X132324282Y-83009352D01*
X132384800Y-82705104D01*
X132384800Y-82394896D01*
X132324282Y-82090648D01*
X132205570Y-81804052D01*
X132033227Y-81546123D01*
X131813877Y-81326773D01*
X131743876Y-81280000D01*
X131813877Y-81233227D01*
X132033227Y-81013877D01*
X132205570Y-80755948D01*
X132324282Y-80469352D01*
X132384800Y-80165104D01*
X132384800Y-79854896D01*
X132324282Y-79550648D01*
X132205570Y-79264052D01*
X132033227Y-79006123D01*
X131813877Y-78786773D01*
X131743876Y-78740000D01*
X131813877Y-78693227D01*
X132033227Y-78473877D01*
X132205570Y-78215948D01*
X132324282Y-77929352D01*
X132384800Y-77625104D01*
X132384800Y-77314896D01*
X132324282Y-77010648D01*
X132205570Y-76724052D01*
X132033227Y-76466123D01*
X131813877Y-76246773D01*
X131677286Y-76155505D01*
X131722871Y-76022476D01*
X130810000Y-75109605D01*
X129897129Y-76022476D01*
X129942714Y-76155505D01*
X129806123Y-76246773D01*
X129586773Y-76466123D01*
X129414430Y-76724052D01*
X129295718Y-77010648D01*
X129235200Y-77314896D01*
X129235200Y-77625104D01*
X129295718Y-77929352D01*
X129414430Y-78215948D01*
X129586773Y-78473877D01*
X129806123Y-78693227D01*
X129876124Y-78740000D01*
X129806123Y-78786773D01*
X129586773Y-79006123D01*
X129414430Y-79264052D01*
X129295718Y-79550648D01*
X129235200Y-79854896D01*
X129235200Y-80165104D01*
X129247250Y-80225685D01*
X129175727Y-80118643D01*
X128956377Y-79899293D01*
X128698448Y-79726950D01*
X128411852Y-79608238D01*
X128107604Y-79547720D01*
X127797396Y-79547720D01*
X127493148Y-79608238D01*
X127206552Y-79726950D01*
X126948623Y-79899293D01*
X126729273Y-80118643D01*
X126564926Y-80364604D01*
X126474437Y-80373517D01*
X126331176Y-80416974D01*
X126199147Y-80487546D01*
X126153267Y-80525199D01*
X117063322Y-80525199D01*
X117133381Y-80254725D01*
X117151084Y-79945023D01*
X117108027Y-79637816D01*
X117005865Y-79344914D01*
X116920723Y-79185623D01*
X116662476Y-79097129D01*
X115749605Y-80010000D01*
X115763748Y-80024143D01*
X115584143Y-80203748D01*
X115570000Y-80189605D01*
X115555858Y-80203748D01*
X115376253Y-80024143D01*
X115390395Y-80010000D01*
X114477524Y-79097129D01*
X114219277Y-79185623D01*
X114084403Y-79464976D01*
X114006619Y-79765275D01*
X113988916Y-80074977D01*
X114031973Y-80382184D01*
X114081856Y-80525199D01*
X92742134Y-80525199D01*
X92704801Y-80521522D01*
X92667468Y-80525199D01*
X92555815Y-80536196D01*
X92412554Y-80579653D01*
X92280525Y-80650225D01*
X92164800Y-80745198D01*
X92140997Y-80774202D01*
X91805996Y-81109203D01*
X91731111Y-81086487D01*
X91512950Y-81065000D01*
X91367050Y-81065000D01*
X91148889Y-81086487D01*
X90868966Y-81171401D01*
X90610986Y-81309294D01*
X90384866Y-81494866D01*
X90199294Y-81720986D01*
X90061401Y-81978966D01*
X89976487Y-82258889D01*
X89947815Y-82550000D01*
X87848072Y-82550000D01*
X87848072Y-81700000D01*
X87835812Y-81575518D01*
X87799502Y-81455820D01*
X87740537Y-81345506D01*
X87661185Y-81248815D01*
X87564494Y-81169463D01*
X87454180Y-81110498D01*
X87334482Y-81074188D01*
X87210000Y-81061928D01*
X85510000Y-81061928D01*
X85385518Y-81074188D01*
X85265820Y-81110498D01*
X85155506Y-81169463D01*
X85058815Y-81248815D01*
X84979463Y-81345506D01*
X84920498Y-81455820D01*
X84884188Y-81575518D01*
X84871928Y-81700000D01*
X84871928Y-83400000D01*
X84884188Y-83524482D01*
X84920498Y-83644180D01*
X84979463Y-83754494D01*
X85058815Y-83851185D01*
X85155506Y-83930537D01*
X85265820Y-83989502D01*
X85334687Y-84010393D01*
X85304866Y-84034866D01*
X85119294Y-84260986D01*
X84981401Y-84518966D01*
X84896487Y-84798889D01*
X84867815Y-85090000D01*
X71780000Y-85090000D01*
X71780000Y-74444903D01*
X78517815Y-74444903D01*
X78546487Y-74736014D01*
X78631401Y-75015937D01*
X78769294Y-75273917D01*
X78954866Y-75500037D01*
X79180986Y-75685609D01*
X79438966Y-75823502D01*
X79718889Y-75908416D01*
X79937050Y-75929903D01*
X80082950Y-75929903D01*
X80301111Y-75908416D01*
X80581034Y-75823502D01*
X80839014Y-75685609D01*
X81065134Y-75500037D01*
X81250706Y-75273917D01*
X81388599Y-75015937D01*
X81473513Y-74736014D01*
X81502185Y-74444903D01*
X81475569Y-74174665D01*
X81542067Y-74197724D01*
X81665971Y-74214862D01*
X81790838Y-74207498D01*
X81911870Y-74175916D01*
X82024414Y-74121328D01*
X82124146Y-74045833D01*
X82207233Y-73952331D01*
X83206468Y-72577002D01*
X83269718Y-72469088D01*
X83310699Y-72350908D01*
X83327837Y-72227004D01*
X83320473Y-72102137D01*
X83288891Y-71981105D01*
X83234303Y-71868561D01*
X83158808Y-71768829D01*
X83065306Y-71685742D01*
X81689977Y-70686507D01*
X81582063Y-70623257D01*
X81463883Y-70582276D01*
X81339979Y-70565138D01*
X81215112Y-70572502D01*
X81094080Y-70604084D01*
X80981536Y-70658672D01*
X80881804Y-70734167D01*
X80798717Y-70827669D01*
X79799482Y-72202998D01*
X79736232Y-72310912D01*
X79695251Y-72429092D01*
X79678113Y-72552996D01*
X79685477Y-72677863D01*
X79717059Y-72798895D01*
X79771647Y-72911439D01*
X79817264Y-72971701D01*
X79718889Y-72981390D01*
X79438966Y-73066304D01*
X79180986Y-73204197D01*
X78954866Y-73389769D01*
X78769294Y-73615889D01*
X78631401Y-73873869D01*
X78546487Y-74153792D01*
X78517815Y-74444903D01*
X71780000Y-74444903D01*
X71780000Y-72663380D01*
X75863380Y-68580000D01*
X98837815Y-68580000D01*
X98866487Y-68871111D01*
X98951401Y-69151034D01*
X99089294Y-69409014D01*
X99274866Y-69635134D01*
X99500986Y-69820706D01*
X99555791Y-69850000D01*
X99500986Y-69879294D01*
X99274866Y-70064866D01*
X99089294Y-70290986D01*
X98951401Y-70548966D01*
X98866487Y-70828889D01*
X98837815Y-71120000D01*
X98866487Y-71411111D01*
X98951401Y-71691034D01*
X99089294Y-71949014D01*
X99274866Y-72175134D01*
X99500986Y-72360706D01*
X99758966Y-72498599D01*
X100038889Y-72583513D01*
X100257050Y-72605000D01*
X100402950Y-72605000D01*
X100621111Y-72583513D01*
X100901034Y-72498599D01*
X101159014Y-72360706D01*
X101385134Y-72175134D01*
X101570706Y-71949014D01*
X101708599Y-71691034D01*
X101793513Y-71411111D01*
X101822185Y-71120000D01*
X101793513Y-70828889D01*
X101708599Y-70548966D01*
X101570706Y-70290986D01*
X101385134Y-70064866D01*
X101159014Y-69879294D01*
X101104209Y-69850000D01*
X101159014Y-69820706D01*
X101385134Y-69635134D01*
X101570706Y-69409014D01*
X101708599Y-69151034D01*
X101793513Y-68871111D01*
X101822185Y-68580000D01*
X105187815Y-68580000D01*
X105216487Y-68871111D01*
X105301401Y-69151034D01*
X105439294Y-69409014D01*
X105624866Y-69635134D01*
X105850986Y-69820706D01*
X105905791Y-69850000D01*
X105850986Y-69879294D01*
X105624866Y-70064866D01*
X105439294Y-70290986D01*
X105301401Y-70548966D01*
X105216487Y-70828889D01*
X105187815Y-71120000D01*
X105216487Y-71411111D01*
X105301401Y-71691034D01*
X105439294Y-71949014D01*
X105624866Y-72175134D01*
X105850986Y-72360706D01*
X106108966Y-72498599D01*
X106388889Y-72583513D01*
X106607050Y-72605000D01*
X106752950Y-72605000D01*
X106971111Y-72583513D01*
X107251034Y-72498599D01*
X107509014Y-72360706D01*
X107662313Y-72234896D01*
X113995200Y-72234896D01*
X113995200Y-72545104D01*
X114055718Y-72849352D01*
X114174430Y-73135948D01*
X114346773Y-73393877D01*
X114566123Y-73613227D01*
X114636124Y-73660000D01*
X114566123Y-73706773D01*
X114346773Y-73926123D01*
X114174430Y-74184052D01*
X114055718Y-74470648D01*
X113995200Y-74774896D01*
X113995200Y-75085104D01*
X114055718Y-75389352D01*
X114174430Y-75675948D01*
X114346773Y-75933877D01*
X114566123Y-76153227D01*
X114636124Y-76200000D01*
X114566123Y-76246773D01*
X114346773Y-76466123D01*
X114174430Y-76724052D01*
X114055718Y-77010648D01*
X113995200Y-77314896D01*
X113995200Y-77625104D01*
X114055718Y-77929352D01*
X114174430Y-78215948D01*
X114346773Y-78473877D01*
X114566123Y-78693227D01*
X114702714Y-78784495D01*
X114657129Y-78917524D01*
X115570000Y-79830395D01*
X116482871Y-78917524D01*
X116437286Y-78784495D01*
X116573877Y-78693227D01*
X116793227Y-78473877D01*
X116965570Y-78215948D01*
X117084282Y-77929352D01*
X117144800Y-77625104D01*
X117144800Y-77314896D01*
X117084282Y-77010648D01*
X116965570Y-76724052D01*
X116793227Y-76466123D01*
X116573877Y-76246773D01*
X116503876Y-76200000D01*
X116573877Y-76153227D01*
X116793227Y-75933877D01*
X116965570Y-75675948D01*
X117084282Y-75389352D01*
X117144800Y-75085104D01*
X117144800Y-74994977D01*
X129228916Y-74994977D01*
X129271973Y-75302184D01*
X129374135Y-75595086D01*
X129459277Y-75754377D01*
X129717524Y-75842871D01*
X130630395Y-74930000D01*
X130989605Y-74930000D01*
X131902476Y-75842871D01*
X132160723Y-75754377D01*
X132295597Y-75475024D01*
X132373381Y-75174725D01*
X132391084Y-74865023D01*
X132348027Y-74557816D01*
X132245865Y-74264914D01*
X132160723Y-74105623D01*
X131902476Y-74017129D01*
X130989605Y-74930000D01*
X130630395Y-74930000D01*
X129717524Y-74017129D01*
X129459277Y-74105623D01*
X129324403Y-74384976D01*
X129246619Y-74685275D01*
X129228916Y-74994977D01*
X117144800Y-74994977D01*
X117144800Y-74774896D01*
X117084282Y-74470648D01*
X116965570Y-74184052D01*
X116793227Y-73926123D01*
X116573877Y-73706773D01*
X116503876Y-73660000D01*
X116573877Y-73613227D01*
X116793227Y-73393877D01*
X116965570Y-73135948D01*
X117084282Y-72849352D01*
X117144800Y-72545104D01*
X117144800Y-72234896D01*
X117084282Y-71930648D01*
X116965570Y-71644052D01*
X116819070Y-71424800D01*
X116995104Y-71424800D01*
X117299352Y-71364282D01*
X117585948Y-71245570D01*
X117843877Y-71073227D01*
X118063227Y-70853877D01*
X118110000Y-70783876D01*
X118156773Y-70853877D01*
X118376123Y-71073227D01*
X118634052Y-71245570D01*
X118920648Y-71364282D01*
X119224896Y-71424800D01*
X119535104Y-71424800D01*
X119839352Y-71364282D01*
X120125948Y-71245570D01*
X120383877Y-71073227D01*
X120603227Y-70853877D01*
X120650000Y-70783876D01*
X120696773Y-70853877D01*
X120916123Y-71073227D01*
X121174052Y-71245570D01*
X121460648Y-71364282D01*
X121764896Y-71424800D01*
X122075104Y-71424800D01*
X122379352Y-71364282D01*
X122665948Y-71245570D01*
X122923877Y-71073227D01*
X123143227Y-70853877D01*
X123190000Y-70783876D01*
X123236773Y-70853877D01*
X123456123Y-71073227D01*
X123714052Y-71245570D01*
X124000648Y-71364282D01*
X124304896Y-71424800D01*
X124615104Y-71424800D01*
X124919352Y-71364282D01*
X125205948Y-71245570D01*
X125463877Y-71073227D01*
X125683227Y-70853877D01*
X125730000Y-70783876D01*
X125776773Y-70853877D01*
X125996123Y-71073227D01*
X126254052Y-71245570D01*
X126540648Y-71364282D01*
X126844896Y-71424800D01*
X127155104Y-71424800D01*
X127459352Y-71364282D01*
X127745948Y-71245570D01*
X128003877Y-71073227D01*
X128223227Y-70853877D01*
X128270000Y-70783876D01*
X128316773Y-70853877D01*
X128536123Y-71073227D01*
X128794052Y-71245570D01*
X129080648Y-71364282D01*
X129384896Y-71424800D01*
X129560930Y-71424800D01*
X129414430Y-71644052D01*
X129295718Y-71930648D01*
X129235200Y-72234896D01*
X129235200Y-72545104D01*
X129295718Y-72849352D01*
X129414430Y-73135948D01*
X129586773Y-73393877D01*
X129806123Y-73613227D01*
X129942714Y-73704495D01*
X129897129Y-73837524D01*
X130810000Y-74750395D01*
X131722871Y-73837524D01*
X131677286Y-73704495D01*
X131813877Y-73613227D01*
X132033227Y-73393877D01*
X132205570Y-73135948D01*
X132324282Y-72849352D01*
X132384800Y-72545104D01*
X132384800Y-72234896D01*
X132324282Y-71930648D01*
X132205570Y-71644052D01*
X132033227Y-71386123D01*
X131813877Y-71166773D01*
X131555948Y-70994430D01*
X131269352Y-70875718D01*
X130965104Y-70815200D01*
X130789070Y-70815200D01*
X130935570Y-70595948D01*
X131054282Y-70309352D01*
X131114800Y-70005104D01*
X131114800Y-69694896D01*
X131054282Y-69390648D01*
X130935570Y-69104052D01*
X130763227Y-68846123D01*
X130543877Y-68626773D01*
X130285948Y-68454430D01*
X129999352Y-68335718D01*
X129695104Y-68275200D01*
X129384896Y-68275200D01*
X129080648Y-68335718D01*
X128794052Y-68454430D01*
X128536123Y-68626773D01*
X128316773Y-68846123D01*
X128270000Y-68916124D01*
X128223227Y-68846123D01*
X128003877Y-68626773D01*
X127745948Y-68454430D01*
X127459352Y-68335718D01*
X127155104Y-68275200D01*
X126844896Y-68275200D01*
X126540648Y-68335718D01*
X126254052Y-68454430D01*
X125996123Y-68626773D01*
X125776773Y-68846123D01*
X125730000Y-68916124D01*
X125683227Y-68846123D01*
X125463877Y-68626773D01*
X125205948Y-68454430D01*
X124919352Y-68335718D01*
X124615104Y-68275200D01*
X124304896Y-68275200D01*
X124000648Y-68335718D01*
X123714052Y-68454430D01*
X123456123Y-68626773D01*
X123236773Y-68846123D01*
X123190000Y-68916124D01*
X123143227Y-68846123D01*
X122923877Y-68626773D01*
X122665948Y-68454430D01*
X122379352Y-68335718D01*
X122075104Y-68275200D01*
X121764896Y-68275200D01*
X121460648Y-68335718D01*
X121174052Y-68454430D01*
X120916123Y-68626773D01*
X120696773Y-68846123D01*
X120650000Y-68916124D01*
X120603227Y-68846123D01*
X120383877Y-68626773D01*
X120125948Y-68454430D01*
X119839352Y-68335718D01*
X119535104Y-68275200D01*
X119224896Y-68275200D01*
X118920648Y-68335718D01*
X118634052Y-68454430D01*
X118376123Y-68626773D01*
X118156773Y-68846123D01*
X118110000Y-68916124D01*
X118063227Y-68846123D01*
X117843877Y-68626773D01*
X117585948Y-68454430D01*
X117299352Y-68335718D01*
X116995104Y-68275200D01*
X116684896Y-68275200D01*
X116380648Y-68335718D01*
X116094052Y-68454430D01*
X115836123Y-68626773D01*
X115616773Y-68846123D01*
X115444430Y-69104052D01*
X115325718Y-69390648D01*
X115265200Y-69694896D01*
X115265200Y-70005104D01*
X115325718Y-70309352D01*
X115444430Y-70595948D01*
X115590930Y-70815200D01*
X115414896Y-70815200D01*
X115110648Y-70875718D01*
X114824052Y-70994430D01*
X114566123Y-71166773D01*
X114346773Y-71386123D01*
X114174430Y-71644052D01*
X114055718Y-71930648D01*
X113995200Y-72234896D01*
X107662313Y-72234896D01*
X107735134Y-72175134D01*
X107920706Y-71949014D01*
X108058599Y-71691034D01*
X108143513Y-71411111D01*
X108172185Y-71120000D01*
X108143513Y-70828889D01*
X108058599Y-70548966D01*
X107920706Y-70290986D01*
X107735134Y-70064866D01*
X107509014Y-69879294D01*
X107454209Y-69850000D01*
X107509014Y-69820706D01*
X107735134Y-69635134D01*
X107920706Y-69409014D01*
X108058599Y-69151034D01*
X108143513Y-68871111D01*
X108172185Y-68580000D01*
X108143513Y-68288889D01*
X108058599Y-68008966D01*
X107920706Y-67750986D01*
X107735134Y-67524866D01*
X107705313Y-67500393D01*
X107774180Y-67479502D01*
X107884494Y-67420537D01*
X107981185Y-67341185D01*
X108060537Y-67244494D01*
X108119502Y-67134180D01*
X108155812Y-67014482D01*
X108168072Y-66890000D01*
X108168072Y-65190000D01*
X108155812Y-65065518D01*
X108119502Y-64945820D01*
X108060537Y-64835506D01*
X107981185Y-64738815D01*
X107884494Y-64659463D01*
X107774180Y-64600498D01*
X107654482Y-64564188D01*
X107530000Y-64551928D01*
X105830000Y-64551928D01*
X105705518Y-64564188D01*
X105585820Y-64600498D01*
X105475506Y-64659463D01*
X105378815Y-64738815D01*
X105299463Y-64835506D01*
X105240498Y-64945820D01*
X105204188Y-65065518D01*
X105191928Y-65190000D01*
X105191928Y-66890000D01*
X105204188Y-67014482D01*
X105240498Y-67134180D01*
X105299463Y-67244494D01*
X105378815Y-67341185D01*
X105475506Y-67420537D01*
X105585820Y-67479502D01*
X105654687Y-67500393D01*
X105624866Y-67524866D01*
X105439294Y-67750986D01*
X105301401Y-68008966D01*
X105216487Y-68288889D01*
X105187815Y-68580000D01*
X101822185Y-68580000D01*
X101793513Y-68288889D01*
X101708599Y-68008966D01*
X101570706Y-67750986D01*
X101385134Y-67524866D01*
X101355313Y-67500393D01*
X101424180Y-67479502D01*
X101534494Y-67420537D01*
X101631185Y-67341185D01*
X101710537Y-67244494D01*
X101769502Y-67134180D01*
X101805812Y-67014482D01*
X101818072Y-66890000D01*
X101818072Y-65190000D01*
X101805812Y-65065518D01*
X101769502Y-64945820D01*
X101710537Y-64835506D01*
X101631185Y-64738815D01*
X101534494Y-64659463D01*
X101424180Y-64600498D01*
X101304482Y-64564188D01*
X101180000Y-64551928D01*
X99480000Y-64551928D01*
X99355518Y-64564188D01*
X99235820Y-64600498D01*
X99125506Y-64659463D01*
X99028815Y-64738815D01*
X98949463Y-64835506D01*
X98890498Y-64945820D01*
X98854188Y-65065518D01*
X98841928Y-65190000D01*
X98841928Y-66890000D01*
X98854188Y-67014482D01*
X98890498Y-67134180D01*
X98949463Y-67244494D01*
X99028815Y-67341185D01*
X99125506Y-67420537D01*
X99235820Y-67479502D01*
X99304687Y-67500393D01*
X99274866Y-67524866D01*
X99089294Y-67750986D01*
X98951401Y-68008966D01*
X98866487Y-68288889D01*
X98837815Y-68580000D01*
X75863380Y-68580000D01*
X81728283Y-62715097D01*
X112932131Y-62715097D01*
X112960803Y-63006208D01*
X113045717Y-63286131D01*
X113183610Y-63544111D01*
X113369182Y-63770231D01*
X113595302Y-63955803D01*
X113853282Y-64093696D01*
X114133205Y-64178610D01*
X114351366Y-64200097D01*
X114497266Y-64200097D01*
X114715427Y-64178610D01*
X114995350Y-64093696D01*
X115134333Y-64019408D01*
X115132833Y-64095797D01*
X115154822Y-64218933D01*
X115200412Y-64335413D01*
X115267849Y-64440761D01*
X115354544Y-64530928D01*
X115457163Y-64602449D01*
X115571763Y-64652577D01*
X117188559Y-65177905D01*
X117310737Y-65204711D01*
X117435797Y-65207167D01*
X117558933Y-65185178D01*
X117675413Y-65139588D01*
X117780761Y-65072151D01*
X117870928Y-64985456D01*
X117942449Y-64882837D01*
X117992577Y-64768237D01*
X118517905Y-63151441D01*
X118544711Y-63029263D01*
X118547167Y-62904203D01*
X118525178Y-62781067D01*
X118479588Y-62664587D01*
X118412151Y-62559239D01*
X118325456Y-62469072D01*
X118222837Y-62397551D01*
X118108237Y-62347423D01*
X116491441Y-61822095D01*
X116369263Y-61795289D01*
X116244203Y-61792833D01*
X116121067Y-61814822D01*
X116004587Y-61860412D01*
X115899239Y-61927849D01*
X115809072Y-62014544D01*
X115766407Y-62075761D01*
X115665022Y-61886083D01*
X115479450Y-61659963D01*
X115253330Y-61474391D01*
X114995350Y-61336498D01*
X114715427Y-61251584D01*
X114497266Y-61230097D01*
X114351366Y-61230097D01*
X114133205Y-61251584D01*
X113853282Y-61336498D01*
X113595302Y-61474391D01*
X113369182Y-61659963D01*
X113183610Y-61886083D01*
X113045717Y-62144063D01*
X112960803Y-62423986D01*
X112932131Y-62715097D01*
X81728283Y-62715097D01*
X86633381Y-57810000D01*
X124186620Y-57810000D01*
X139040000Y-72663381D01*
X139040000Y-72663381D01*
G37*
X139040000Y-72663381D02*
X139040001Y-110216618D01*
X124186620Y-125070000D01*
X86633381Y-125070000D01*
X71890385Y-110327004D01*
X79455138Y-110327004D01*
X79472276Y-110450908D01*
X79513257Y-110569088D01*
X79576507Y-110677002D01*
X80575742Y-112052331D01*
X80658829Y-112145833D01*
X80758561Y-112221328D01*
X80871105Y-112275916D01*
X80992137Y-112307498D01*
X81117004Y-112314862D01*
X81240908Y-112297724D01*
X81307406Y-112274665D01*
X81280790Y-112544903D01*
X81309462Y-112836014D01*
X81394376Y-113115937D01*
X81532269Y-113373917D01*
X81717841Y-113600037D01*
X81943961Y-113785609D01*
X82201941Y-113923502D01*
X82481864Y-114008416D01*
X82700025Y-114029903D01*
X82845925Y-114029903D01*
X83064086Y-114008416D01*
X83138971Y-113985700D01*
X85234272Y-116081002D01*
X85258071Y-116110001D01*
X85373796Y-116204974D01*
X85505825Y-116275546D01*
X85649086Y-116319003D01*
X85760739Y-116330000D01*
X85760748Y-116330000D01*
X85798071Y-116333676D01*
X85835394Y-116330000D01*
X110835786Y-116330000D01*
X113460009Y-118954225D01*
X113378559Y-118972095D01*
X111761763Y-119497423D01*
X111647163Y-119547551D01*
X111544544Y-119619072D01*
X111457849Y-119709239D01*
X111390412Y-119814587D01*
X111344822Y-119931067D01*
X111322833Y-120054203D01*
X111325289Y-120179263D01*
X111352095Y-120301441D01*
X111877423Y-121918237D01*
X111927551Y-122032837D01*
X111999072Y-122135456D01*
X112089239Y-122222151D01*
X112194587Y-122289588D01*
X112311067Y-122335178D01*
X112434203Y-122357167D01*
X112559263Y-122354711D01*
X112681441Y-122327905D01*
X114298237Y-121802577D01*
X114412837Y-121752449D01*
X114515456Y-121680928D01*
X114602151Y-121590761D01*
X114669588Y-121485413D01*
X114715178Y-121368933D01*
X114737167Y-121245797D01*
X114735667Y-121169408D01*
X114874650Y-121243696D01*
X115154573Y-121328610D01*
X115372734Y-121350097D01*
X115518634Y-121350097D01*
X115736795Y-121328610D01*
X116016718Y-121243696D01*
X116274698Y-121105803D01*
X116500818Y-120920231D01*
X116686390Y-120694111D01*
X116824283Y-120436131D01*
X116909197Y-120156208D01*
X116937869Y-119865097D01*
X116909197Y-119573986D01*
X116824283Y-119294063D01*
X116686390Y-119036083D01*
X116500818Y-118809963D01*
X116274698Y-118624391D01*
X116016718Y-118486498D01*
X115736795Y-118401584D01*
X115518634Y-118380097D01*
X115372734Y-118380097D01*
X115154573Y-118401584D01*
X115079689Y-118424300D01*
X112054506Y-115399117D01*
X120185000Y-115399117D01*
X120185000Y-115740883D01*
X120251675Y-116076081D01*
X120382463Y-116391831D01*
X120572337Y-116675998D01*
X120814002Y-116917663D01*
X121098169Y-117107537D01*
X121413919Y-117238325D01*
X121749117Y-117305000D01*
X122090883Y-117305000D01*
X122426081Y-117238325D01*
X122741831Y-117107537D01*
X123025998Y-116917663D01*
X123267663Y-116675998D01*
X123457537Y-116391831D01*
X123588325Y-116076081D01*
X123655000Y-115740883D01*
X123655000Y-115399117D01*
X123588325Y-115063919D01*
X123457537Y-114748169D01*
X123267663Y-114464002D01*
X123025998Y-114222337D01*
X122741831Y-114032463D01*
X122426081Y-113901675D01*
X122090883Y-113835000D01*
X121749117Y-113835000D01*
X121413919Y-113901675D01*
X121098169Y-114032463D01*
X120814002Y-114222337D01*
X120572337Y-114464002D01*
X120382463Y-114748169D01*
X120251675Y-115063919D01*
X120185000Y-115399117D01*
X112054506Y-115399117D01*
X111714391Y-115059003D01*
X111690588Y-115029999D01*
X111574863Y-114935026D01*
X111442834Y-114864454D01*
X111299573Y-114820997D01*
X111187920Y-114810000D01*
X111187909Y-114810000D01*
X111150587Y-114806324D01*
X111113265Y-114810000D01*
X86112874Y-114810000D01*
X85132874Y-113830000D01*
X95081928Y-113830000D01*
X95094188Y-113954482D01*
X95130498Y-114074180D01*
X95189463Y-114184494D01*
X95268815Y-114281185D01*
X95365506Y-114360537D01*
X95475820Y-114419502D01*
X95595518Y-114455812D01*
X95720000Y-114468072D01*
X96234250Y-114465000D01*
X96393000Y-114306250D01*
X96393000Y-113157000D01*
X96647000Y-113157000D01*
X96647000Y-114306250D01*
X96805750Y-114465000D01*
X97320000Y-114468072D01*
X97444482Y-114455812D01*
X97564180Y-114419502D01*
X97674494Y-114360537D01*
X97771185Y-114281185D01*
X97850537Y-114184494D01*
X97909502Y-114074180D01*
X97945812Y-113954482D01*
X97948231Y-113929920D01*
X98096586Y-114093519D01*
X98322580Y-114261037D01*
X98576913Y-114381246D01*
X98710961Y-114421904D01*
X98933000Y-114299915D01*
X98933000Y-113157000D01*
X99187000Y-113157000D01*
X99187000Y-114299915D01*
X99409039Y-114421904D01*
X99543087Y-114381246D01*
X99797420Y-114261037D01*
X100023414Y-114093519D01*
X100212385Y-113885131D01*
X100330000Y-113689018D01*
X100447615Y-113885131D01*
X100636586Y-114093519D01*
X100862580Y-114261037D01*
X101116913Y-114381246D01*
X101250961Y-114421904D01*
X101473000Y-114299915D01*
X101473000Y-113157000D01*
X101727000Y-113157000D01*
X101727000Y-114299915D01*
X101949039Y-114421904D01*
X102083087Y-114381246D01*
X102337420Y-114261037D01*
X102563414Y-114093519D01*
X102752385Y-113885131D01*
X102870000Y-113689018D01*
X102987615Y-113885131D01*
X103176586Y-114093519D01*
X103402580Y-114261037D01*
X103656913Y-114381246D01*
X103790961Y-114421904D01*
X104013000Y-114299915D01*
X104013000Y-113157000D01*
X104267000Y-113157000D01*
X104267000Y-114299915D01*
X104489039Y-114421904D01*
X104623087Y-114381246D01*
X104877420Y-114261037D01*
X105103414Y-114093519D01*
X105292385Y-113885131D01*
X105410000Y-113689018D01*
X105527615Y-113885131D01*
X105716586Y-114093519D01*
X105942580Y-114261037D01*
X106196913Y-114381246D01*
X106330961Y-114421904D01*
X106553000Y-114299915D01*
X106553000Y-113157000D01*
X106807000Y-113157000D01*
X106807000Y-114299915D01*
X107029039Y-114421904D01*
X107163087Y-114381246D01*
X107417420Y-114261037D01*
X107643414Y-114093519D01*
X107832385Y-113885131D01*
X107950000Y-113689018D01*
X108067615Y-113885131D01*
X108256586Y-114093519D01*
X108482580Y-114261037D01*
X108736913Y-114381246D01*
X108870961Y-114421904D01*
X109093000Y-114299915D01*
X109093000Y-113157000D01*
X109347000Y-113157000D01*
X109347000Y-114299915D01*
X109569039Y-114421904D01*
X109703087Y-114381246D01*
X109957420Y-114261037D01*
X110183414Y-114093519D01*
X110372385Y-113885131D01*
X110490000Y-113689018D01*
X110607615Y-113885131D01*
X110796586Y-114093519D01*
X111022580Y-114261037D01*
X111276913Y-114381246D01*
X111410961Y-114421904D01*
X111633000Y-114299915D01*
X111633000Y-113157000D01*
X111887000Y-113157000D01*
X111887000Y-114299915D01*
X112109039Y-114421904D01*
X112243087Y-114381246D01*
X112497420Y-114261037D01*
X112723414Y-114093519D01*
X112912385Y-113885131D01*
X113057070Y-113643881D01*
X113151909Y-113379040D01*
X113030624Y-113157000D01*
X111887000Y-113157000D01*
X111633000Y-113157000D01*
X109347000Y-113157000D01*
X109093000Y-113157000D01*
X106807000Y-113157000D01*
X106553000Y-113157000D01*
X104267000Y-113157000D01*
X104013000Y-113157000D01*
X101727000Y-113157000D01*
X101473000Y-113157000D01*
X99187000Y-113157000D01*
X98933000Y-113157000D01*
X96647000Y-113157000D01*
X96393000Y-113157000D01*
X95243750Y-113157000D01*
X95085000Y-113315750D01*
X95081928Y-113830000D01*
X85132874Y-113830000D01*
X84213772Y-112910899D01*
X84236488Y-112836014D01*
X84265160Y-112544903D01*
X84236488Y-112253792D01*
X84229271Y-112230000D01*
X95081928Y-112230000D01*
X95085000Y-112744250D01*
X95243750Y-112903000D01*
X96393000Y-112903000D01*
X96393000Y-111753750D01*
X96647000Y-111753750D01*
X96647000Y-112903000D01*
X98933000Y-112903000D01*
X98933000Y-111760085D01*
X99187000Y-111760085D01*
X99187000Y-112903000D01*
X101473000Y-112903000D01*
X101473000Y-111760085D01*
X101727000Y-111760085D01*
X101727000Y-112903000D01*
X104013000Y-112903000D01*
X104013000Y-111760085D01*
X104267000Y-111760085D01*
X104267000Y-112903000D01*
X106553000Y-112903000D01*
X106553000Y-111760085D01*
X106807000Y-111760085D01*
X106807000Y-112903000D01*
X109093000Y-112903000D01*
X109093000Y-111760085D01*
X109347000Y-111760085D01*
X109347000Y-112903000D01*
X111633000Y-112903000D01*
X111633000Y-111760085D01*
X111887000Y-111760085D01*
X111887000Y-112903000D01*
X113030624Y-112903000D01*
X113151909Y-112680960D01*
X113057070Y-112416119D01*
X112912385Y-112174869D01*
X112723414Y-111966481D01*
X112497420Y-111798963D01*
X112243087Y-111678754D01*
X112109039Y-111638096D01*
X111887000Y-111760085D01*
X111633000Y-111760085D01*
X111410961Y-111638096D01*
X111276913Y-111678754D01*
X111022580Y-111798963D01*
X110796586Y-111966481D01*
X110607615Y-112174869D01*
X110490000Y-112370982D01*
X110372385Y-112174869D01*
X110183414Y-111966481D01*
X109957420Y-111798963D01*
X109703087Y-111678754D01*
X109569039Y-111638096D01*
X109347000Y-111760085D01*
X109093000Y-111760085D01*
X108870961Y-111638096D01*
X108736913Y-111678754D01*
X108482580Y-111798963D01*
X108256586Y-111966481D01*
X108067615Y-112174869D01*
X107950000Y-112370982D01*
X107832385Y-112174869D01*
X107643414Y-111966481D01*
X107417420Y-111798963D01*
X107163087Y-111678754D01*
X107029039Y-111638096D01*
X106807000Y-111760085D01*
X106553000Y-111760085D01*
X106330961Y-111638096D01*
X106196913Y-111678754D01*
X105942580Y-111798963D01*
X105716586Y-111966481D01*
X105527615Y-112174869D01*
X105410000Y-112370982D01*
X105292385Y-112174869D01*
X105103414Y-111966481D01*
X104877420Y-111798963D01*
X104623087Y-111678754D01*
X104489039Y-111638096D01*
X104267000Y-111760085D01*
X104013000Y-111760085D01*
X103790961Y-111638096D01*
X103656913Y-111678754D01*
X103402580Y-111798963D01*
X103176586Y-111966481D01*
X102987615Y-112174869D01*
X102870000Y-112370982D01*
X102752385Y-112174869D01*
X102563414Y-111966481D01*
X102337420Y-111798963D01*
X102083087Y-111678754D01*
X101949039Y-111638096D01*
X101727000Y-111760085D01*
X101473000Y-111760085D01*
X101250961Y-111638096D01*
X101116913Y-111678754D01*
X100862580Y-111798963D01*
X100636586Y-111966481D01*
X100447615Y-112174869D01*
X100330000Y-112370982D01*
X100212385Y-112174869D01*
X100023414Y-111966481D01*
X99797420Y-111798963D01*
X99543087Y-111678754D01*
X99409039Y-111638096D01*
X99187000Y-111760085D01*
X98933000Y-111760085D01*
X98710961Y-111638096D01*
X98576913Y-111678754D01*
X98322580Y-111798963D01*
X98096586Y-111966481D01*
X97948231Y-112130080D01*
X97945812Y-112105518D01*
X97909502Y-111985820D01*
X97850537Y-111875506D01*
X97771185Y-111778815D01*
X97674494Y-111699463D01*
X97564180Y-111640498D01*
X97444482Y-111604188D01*
X97320000Y-111591928D01*
X96805750Y-111595000D01*
X96647000Y-111753750D01*
X96393000Y-111753750D01*
X96234250Y-111595000D01*
X95720000Y-111591928D01*
X95595518Y-111604188D01*
X95475820Y-111640498D01*
X95365506Y-111699463D01*
X95268815Y-111778815D01*
X95189463Y-111875506D01*
X95130498Y-111985820D01*
X95094188Y-112105518D01*
X95081928Y-112230000D01*
X84229271Y-112230000D01*
X84151574Y-111973869D01*
X84013681Y-111715889D01*
X83828109Y-111489769D01*
X83601989Y-111304197D01*
X83344009Y-111166304D01*
X83064086Y-111081390D01*
X82965711Y-111071701D01*
X83011328Y-111011439D01*
X83065916Y-110898895D01*
X83097498Y-110777863D01*
X83104862Y-110652996D01*
X83087724Y-110529092D01*
X83046743Y-110410912D01*
X82983493Y-110302998D01*
X81984258Y-108927669D01*
X81901171Y-108834167D01*
X81801439Y-108758672D01*
X81688895Y-108704084D01*
X81567863Y-108672502D01*
X81442996Y-108665138D01*
X81319092Y-108682276D01*
X81200912Y-108723257D01*
X81092998Y-108786507D01*
X79717669Y-109785742D01*
X79624167Y-109868829D01*
X79548672Y-109968561D01*
X79494084Y-110081105D01*
X79462502Y-110202137D01*
X79455138Y-110327004D01*
X71890385Y-110327004D01*
X71780000Y-110216620D01*
X71780000Y-98146891D01*
X89998519Y-98146891D01*
X90095843Y-98421252D01*
X90244822Y-98671355D01*
X90439731Y-98887588D01*
X90673080Y-99061641D01*
X90935901Y-99186825D01*
X91083110Y-99231476D01*
X91313000Y-99110155D01*
X91313000Y-97917000D01*
X91567000Y-97917000D01*
X91567000Y-99110155D01*
X91796890Y-99231476D01*
X91944099Y-99186825D01*
X92206920Y-99061641D01*
X92440269Y-98887588D01*
X92516034Y-98803534D01*
X92540498Y-98884180D01*
X92599463Y-98994494D01*
X92678815Y-99091185D01*
X92775506Y-99170537D01*
X92885820Y-99229502D01*
X93005518Y-99265812D01*
X93130000Y-99278072D01*
X93694250Y-99275000D01*
X93853000Y-99116250D01*
X93853000Y-97917000D01*
X94107000Y-97917000D01*
X94107000Y-99116250D01*
X94265750Y-99275000D01*
X94830000Y-99278072D01*
X94954482Y-99265812D01*
X95074180Y-99229502D01*
X95184494Y-99170537D01*
X95281185Y-99091185D01*
X95360537Y-98994494D01*
X95419502Y-98884180D01*
X95455812Y-98764482D01*
X95468072Y-98640000D01*
X95465000Y-98075750D01*
X95306250Y-97917000D01*
X94107000Y-97917000D01*
X93853000Y-97917000D01*
X91567000Y-97917000D01*
X91313000Y-97917000D01*
X90119186Y-97917000D01*
X89998519Y-98146891D01*
X71780000Y-98146891D01*
X71780000Y-91440000D01*
X82327815Y-91440000D01*
X82356487Y-91731111D01*
X82441401Y-92011034D01*
X82579294Y-92269014D01*
X82764866Y-92495134D01*
X82794687Y-92519607D01*
X82725820Y-92540498D01*
X82615506Y-92599463D01*
X82518815Y-92678815D01*
X82439463Y-92775506D01*
X82380498Y-92885820D01*
X82344188Y-93005518D01*
X82331928Y-93130000D01*
X82331928Y-94830000D01*
X82344188Y-94954482D01*
X82380498Y-95074180D01*
X82439463Y-95184494D01*
X82518815Y-95281185D01*
X82615506Y-95360537D01*
X82725820Y-95419502D01*
X82845518Y-95455812D01*
X82970000Y-95468072D01*
X84670000Y-95468072D01*
X84794482Y-95455812D01*
X84914180Y-95419502D01*
X85024494Y-95360537D01*
X85121185Y-95281185D01*
X85200537Y-95184494D01*
X85246333Y-95098816D01*
X87365000Y-95098816D01*
X87365000Y-95401184D01*
X87423989Y-95697743D01*
X87539701Y-95977095D01*
X87707688Y-96228505D01*
X87921495Y-96442312D01*
X88172905Y-96610299D01*
X88452257Y-96726011D01*
X88748816Y-96785000D01*
X89051184Y-96785000D01*
X89347743Y-96726011D01*
X89627095Y-96610299D01*
X89878505Y-96442312D01*
X90092312Y-96228505D01*
X90196141Y-96073115D01*
X90199294Y-96079014D01*
X90384866Y-96305134D01*
X90610986Y-96490706D01*
X90668756Y-96521584D01*
X90439731Y-96692412D01*
X90244822Y-96908645D01*
X90095843Y-97158748D01*
X89998519Y-97433109D01*
X90119186Y-97663000D01*
X91313000Y-97663000D01*
X91313000Y-97643000D01*
X91567000Y-97643000D01*
X91567000Y-97663000D01*
X93853000Y-97663000D01*
X93853000Y-97643000D01*
X94107000Y-97643000D01*
X94107000Y-97663000D01*
X95306250Y-97663000D01*
X95465000Y-97504250D01*
X95468072Y-96940000D01*
X95455812Y-96815518D01*
X95419502Y-96695820D01*
X95360537Y-96585506D01*
X95306778Y-96520000D01*
X95360537Y-96454494D01*
X95419502Y-96344180D01*
X95455812Y-96224482D01*
X95468072Y-96100000D01*
X95468072Y-94400000D01*
X95455812Y-94275518D01*
X95419502Y-94155820D01*
X95360537Y-94045506D01*
X95281185Y-93948815D01*
X95184494Y-93869463D01*
X95074180Y-93810498D01*
X94954482Y-93774188D01*
X94830000Y-93761928D01*
X93130000Y-93761928D01*
X93005518Y-93774188D01*
X92885820Y-93810498D01*
X92775506Y-93869463D01*
X92678815Y-93948815D01*
X92599463Y-94045506D01*
X92540498Y-94155820D01*
X92519607Y-94224687D01*
X92495134Y-94194866D01*
X92269014Y-94009294D01*
X92011034Y-93871401D01*
X91731111Y-93786487D01*
X91512950Y-93765000D01*
X91367050Y-93765000D01*
X91148889Y-93786487D01*
X90868966Y-93871401D01*
X90610986Y-94009294D01*
X90384866Y-94194866D01*
X90199294Y-94420986D01*
X90196141Y-94426885D01*
X90092312Y-94271495D01*
X89878505Y-94057688D01*
X89724895Y-93955049D01*
X89784475Y-93774080D01*
X88900000Y-92889605D01*
X88015525Y-93774080D01*
X88075105Y-93955049D01*
X87921495Y-94057688D01*
X87707688Y-94271495D01*
X87539701Y-94522905D01*
X87423989Y-94802257D01*
X87365000Y-95098816D01*
X85246333Y-95098816D01*
X85259502Y-95074180D01*
X85295812Y-94954482D01*
X85308072Y-94830000D01*
X85308072Y-93130000D01*
X85295812Y-93005518D01*
X85259502Y-92885820D01*
X85201097Y-92776553D01*
X87359009Y-92776553D01*
X87401603Y-93075907D01*
X87501778Y-93361199D01*
X87581739Y-93510792D01*
X87835920Y-93594475D01*
X88720395Y-92710000D01*
X89079605Y-92710000D01*
X89964080Y-93594475D01*
X90218261Y-93510792D01*
X90349158Y-93238225D01*
X90424365Y-92945358D01*
X90440991Y-92643447D01*
X90398397Y-92344093D01*
X90298222Y-92058801D01*
X90218261Y-91909208D01*
X89964080Y-91825525D01*
X89079605Y-92710000D01*
X88720395Y-92710000D01*
X87835920Y-91825525D01*
X87581739Y-91909208D01*
X87450842Y-92181775D01*
X87375635Y-92474642D01*
X87359009Y-92776553D01*
X85201097Y-92776553D01*
X85200537Y-92775506D01*
X85121185Y-92678815D01*
X85024494Y-92599463D01*
X84914180Y-92540498D01*
X84845313Y-92519607D01*
X84875134Y-92495134D01*
X85060706Y-92269014D01*
X85198599Y-92011034D01*
X85283513Y-91731111D01*
X85312185Y-91440000D01*
X85283513Y-91148889D01*
X85198599Y-90868966D01*
X85060706Y-90610986D01*
X84875134Y-90384866D01*
X84649014Y-90199294D01*
X84391034Y-90061401D01*
X84111111Y-89976487D01*
X83892950Y-89955000D01*
X83747050Y-89955000D01*
X83528889Y-89976487D01*
X83248966Y-90061401D01*
X82990986Y-90199294D01*
X82764866Y-90384866D01*
X82579294Y-90610986D01*
X82441401Y-90868966D01*
X82356487Y-91148889D01*
X82327815Y-91440000D01*
X71780000Y-91440000D01*
X71780000Y-89518400D01*
X87361928Y-89518400D01*
X87361928Y-90821600D01*
X87378961Y-90994542D01*
X87429407Y-91160838D01*
X87511325Y-91314097D01*
X87621570Y-91448430D01*
X87755903Y-91558675D01*
X87909162Y-91640593D01*
X88054193Y-91684588D01*
X88900000Y-92530395D01*
X89745807Y-91684588D01*
X89890838Y-91640593D01*
X90044097Y-91558675D01*
X90178430Y-91448430D01*
X90288675Y-91314097D01*
X90370593Y-91160838D01*
X90421039Y-90994542D01*
X90438072Y-90821600D01*
X90438072Y-89518400D01*
X90421039Y-89345458D01*
X90370593Y-89179162D01*
X90288675Y-89025903D01*
X90178430Y-88891570D01*
X90044097Y-88781325D01*
X89890838Y-88699407D01*
X89724542Y-88648961D01*
X89551600Y-88631928D01*
X88248400Y-88631928D01*
X88075458Y-88648961D01*
X87909162Y-88699407D01*
X87755903Y-88781325D01*
X87621570Y-88891570D01*
X87511325Y-89025903D01*
X87429407Y-89179162D01*
X87378961Y-89345458D01*
X87361928Y-89518400D01*
X71780000Y-89518400D01*
X71780000Y-85090000D01*
X84867815Y-85090000D01*
X84896487Y-85381111D01*
X84981401Y-85661034D01*
X85119294Y-85919014D01*
X85304866Y-86145134D01*
X85530986Y-86330706D01*
X85788966Y-86468599D01*
X86068889Y-86553513D01*
X86287050Y-86575000D01*
X86432950Y-86575000D01*
X86651111Y-86553513D01*
X86931034Y-86468599D01*
X87189014Y-86330706D01*
X87415134Y-86145134D01*
X87600706Y-85919014D01*
X87738599Y-85661034D01*
X87823513Y-85381111D01*
X87852185Y-85090000D01*
X87823513Y-84798889D01*
X87738599Y-84518966D01*
X87600706Y-84260986D01*
X87415134Y-84034866D01*
X87385313Y-84010393D01*
X87454180Y-83989502D01*
X87564494Y-83930537D01*
X87661185Y-83851185D01*
X87740537Y-83754494D01*
X87799502Y-83644180D01*
X87835812Y-83524482D01*
X87848072Y-83400000D01*
X87848072Y-82550000D01*
X89947815Y-82550000D01*
X89976487Y-82841111D01*
X90061401Y-83121034D01*
X90199294Y-83379014D01*
X90384866Y-83605134D01*
X90610986Y-83790706D01*
X90868966Y-83928599D01*
X91148889Y-84013513D01*
X91367050Y-84035000D01*
X91512950Y-84035000D01*
X91731111Y-84013513D01*
X92011034Y-83928599D01*
X92269014Y-83790706D01*
X92495134Y-83605134D01*
X92519607Y-83575313D01*
X92540498Y-83644180D01*
X92599463Y-83754494D01*
X92678815Y-83851185D01*
X92775506Y-83930537D01*
X92885820Y-83989502D01*
X93005518Y-84025812D01*
X93130000Y-84038072D01*
X94830000Y-84038072D01*
X94954482Y-84025812D01*
X95074180Y-83989502D01*
X95184494Y-83930537D01*
X95281185Y-83851185D01*
X95292543Y-83837345D01*
X95786201Y-84331003D01*
X95809999Y-84360001D01*
X95925724Y-84454974D01*
X96057753Y-84525546D01*
X96201014Y-84569003D01*
X96312667Y-84580000D01*
X96312676Y-84580000D01*
X96349999Y-84583676D01*
X96387322Y-84580000D01*
X114076697Y-84580000D01*
X114055718Y-84630648D01*
X113995200Y-84934896D01*
X113995200Y-85245104D01*
X114055718Y-85549352D01*
X114174430Y-85835948D01*
X114346773Y-86093877D01*
X114566123Y-86313227D01*
X114636124Y-86360000D01*
X114566123Y-86406773D01*
X114346773Y-86626123D01*
X114174430Y-86884052D01*
X114055718Y-87170648D01*
X113995200Y-87474896D01*
X113995200Y-87785104D01*
X114055718Y-88089352D01*
X114174430Y-88375948D01*
X114346773Y-88633877D01*
X114566123Y-88853227D01*
X114636124Y-88900000D01*
X114566123Y-88946773D01*
X114346773Y-89166123D01*
X114174430Y-89424052D01*
X114055718Y-89710648D01*
X113995200Y-90014896D01*
X113995200Y-90325104D01*
X114055718Y-90629352D01*
X114174430Y-90915948D01*
X114346773Y-91173877D01*
X114566123Y-91393227D01*
X114636124Y-91440000D01*
X114566123Y-91486773D01*
X114346773Y-91706123D01*
X114174430Y-91964052D01*
X114055718Y-92250648D01*
X113995200Y-92554896D01*
X113995200Y-92865104D01*
X114055718Y-93169352D01*
X114174430Y-93455948D01*
X114346773Y-93713877D01*
X114566123Y-93933227D01*
X114636124Y-93980000D01*
X114566123Y-94026773D01*
X114346773Y-94246123D01*
X114174430Y-94504052D01*
X114055718Y-94790648D01*
X113995200Y-95094896D01*
X113995200Y-95405104D01*
X114055718Y-95709352D01*
X114174430Y-95995948D01*
X114346773Y-96253877D01*
X114566123Y-96473227D01*
X114636124Y-96520000D01*
X114566123Y-96566773D01*
X114346773Y-96786123D01*
X114174430Y-97044052D01*
X114055718Y-97330648D01*
X113995200Y-97634896D01*
X113995200Y-97945104D01*
X114055718Y-98249352D01*
X114174430Y-98535948D01*
X114346773Y-98793877D01*
X114566123Y-99013227D01*
X114636124Y-99060000D01*
X114566123Y-99106773D01*
X114346773Y-99326123D01*
X114174430Y-99584052D01*
X114055718Y-99870648D01*
X113995200Y-100174896D01*
X113995200Y-100485104D01*
X114055718Y-100789352D01*
X114174430Y-101075948D01*
X114346773Y-101333877D01*
X114566123Y-101553227D01*
X114824052Y-101725570D01*
X115110648Y-101844282D01*
X115414896Y-101904800D01*
X115725104Y-101904800D01*
X116029352Y-101844282D01*
X116315948Y-101725570D01*
X116573877Y-101553227D01*
X116793227Y-101333877D01*
X116965570Y-101075948D01*
X117084282Y-100789352D01*
X117144800Y-100485104D01*
X117144800Y-100174896D01*
X117084282Y-99870648D01*
X116965570Y-99584052D01*
X116793227Y-99326123D01*
X116573877Y-99106773D01*
X116503876Y-99060000D01*
X116573877Y-99013227D01*
X116793227Y-98793877D01*
X116965570Y-98535948D01*
X117084282Y-98249352D01*
X117144800Y-97945104D01*
X117144800Y-97634896D01*
X117084282Y-97330648D01*
X116965570Y-97044052D01*
X116793227Y-96786123D01*
X116573877Y-96566773D01*
X116503876Y-96520000D01*
X116573877Y-96473227D01*
X116793227Y-96253877D01*
X116965570Y-95995948D01*
X117084282Y-95709352D01*
X117144800Y-95405104D01*
X117144800Y-95094896D01*
X117084282Y-94790648D01*
X116965570Y-94504052D01*
X116793227Y-94246123D01*
X116573877Y-94026773D01*
X116503876Y-93980000D01*
X116573877Y-93933227D01*
X116793227Y-93713877D01*
X116965570Y-93455948D01*
X117084282Y-93169352D01*
X117144800Y-92865104D01*
X117144800Y-92554896D01*
X117084282Y-92250648D01*
X116965570Y-91964052D01*
X116793227Y-91706123D01*
X116573877Y-91486773D01*
X116503876Y-91440000D01*
X116573877Y-91393227D01*
X116793227Y-91173877D01*
X116965570Y-90915948D01*
X117084282Y-90629352D01*
X117144800Y-90325104D01*
X117144800Y-90014896D01*
X117084282Y-89710648D01*
X116965570Y-89424052D01*
X116793227Y-89166123D01*
X116573877Y-88946773D01*
X116503876Y-88900000D01*
X116573877Y-88853227D01*
X116793227Y-88633877D01*
X116965570Y-88375948D01*
X117084282Y-88089352D01*
X117144800Y-87785104D01*
X117144800Y-87474896D01*
X117084282Y-87170648D01*
X116965570Y-86884052D01*
X116793227Y-86626123D01*
X116573877Y-86406773D01*
X116503876Y-86360000D01*
X116573877Y-86313227D01*
X116793227Y-86093877D01*
X116965570Y-85835948D01*
X117084282Y-85549352D01*
X117144800Y-85245104D01*
X117144800Y-84934896D01*
X117084282Y-84630648D01*
X116998073Y-84422520D01*
X126566319Y-84422520D01*
X126729273Y-84666397D01*
X126948623Y-84885747D01*
X127206552Y-85058090D01*
X127493148Y-85176802D01*
X127797396Y-85237320D01*
X127809878Y-85237320D01*
X118869003Y-94178196D01*
X118839999Y-94201999D01*
X118803788Y-94246123D01*
X118745026Y-94317724D01*
X118701048Y-94400000D01*
X118674454Y-94449754D01*
X118630997Y-94593015D01*
X118620000Y-94704668D01*
X118620000Y-94704678D01*
X118616324Y-94742000D01*
X118620000Y-94779322D01*
X118620001Y-102047197D01*
X114892198Y-105775001D01*
X113148849Y-105775001D01*
X113174236Y-105691309D01*
X113201943Y-105410000D01*
X113174236Y-105128691D01*
X113092182Y-104858192D01*
X112958932Y-104608899D01*
X112779608Y-104390392D01*
X112561101Y-104211068D01*
X112311808Y-104077818D01*
X112041309Y-103995764D01*
X111830492Y-103975000D01*
X111689508Y-103975000D01*
X111478691Y-103995764D01*
X111208192Y-104077818D01*
X110958899Y-104211068D01*
X110740392Y-104390392D01*
X110561068Y-104608899D01*
X110490000Y-104741858D01*
X110418932Y-104608899D01*
X110239608Y-104390392D01*
X110021101Y-104211068D01*
X109771808Y-104077818D01*
X109501309Y-103995764D01*
X109290492Y-103975000D01*
X109149508Y-103975000D01*
X108938691Y-103995764D01*
X108668192Y-104077818D01*
X108418899Y-104211068D01*
X108200392Y-104390392D01*
X108021068Y-104608899D01*
X107950000Y-104741858D01*
X107878932Y-104608899D01*
X107699608Y-104390392D01*
X107481101Y-104211068D01*
X107231808Y-104077818D01*
X106961309Y-103995764D01*
X106750492Y-103975000D01*
X106609508Y-103975000D01*
X106398691Y-103995764D01*
X106128192Y-104077818D01*
X105878899Y-104211068D01*
X105660392Y-104390392D01*
X105481068Y-104608899D01*
X105407421Y-104746682D01*
X105292385Y-104554869D01*
X105103414Y-104346481D01*
X104877420Y-104178963D01*
X104623087Y-104058754D01*
X104489039Y-104018096D01*
X104267000Y-104140085D01*
X104267000Y-105283000D01*
X104287000Y-105283000D01*
X104287000Y-105537000D01*
X104267000Y-105537000D01*
X104267000Y-105557000D01*
X104013000Y-105557000D01*
X104013000Y-105537000D01*
X101727000Y-105537000D01*
X101727000Y-105557000D01*
X101473000Y-105557000D01*
X101473000Y-105537000D01*
X99187000Y-105537000D01*
X99187000Y-105557000D01*
X98933000Y-105557000D01*
X98933000Y-105537000D01*
X98913000Y-105537000D01*
X98913000Y-105283000D01*
X98933000Y-105283000D01*
X98933000Y-104140085D01*
X99187000Y-104140085D01*
X99187000Y-105283000D01*
X101473000Y-105283000D01*
X101473000Y-104140085D01*
X101727000Y-104140085D01*
X101727000Y-105283000D01*
X104013000Y-105283000D01*
X104013000Y-104140085D01*
X103790961Y-104018096D01*
X103656913Y-104058754D01*
X103402580Y-104178963D01*
X103176586Y-104346481D01*
X102987615Y-104554869D01*
X102870000Y-104750982D01*
X102752385Y-104554869D01*
X102563414Y-104346481D01*
X102337420Y-104178963D01*
X102083087Y-104058754D01*
X101949039Y-104018096D01*
X101727000Y-104140085D01*
X101473000Y-104140085D01*
X101250961Y-104018096D01*
X101116913Y-104058754D01*
X100862580Y-104178963D01*
X100636586Y-104346481D01*
X100447615Y-104554869D01*
X100330000Y-104750982D01*
X100212385Y-104554869D01*
X100023414Y-104346481D01*
X99797420Y-104178963D01*
X99543087Y-104058754D01*
X99409039Y-104018096D01*
X99187000Y-104140085D01*
X98933000Y-104140085D01*
X98710961Y-104018096D01*
X98576913Y-104058754D01*
X98322580Y-104178963D01*
X98096586Y-104346481D01*
X97907615Y-104554869D01*
X97792579Y-104746682D01*
X97718932Y-104608899D01*
X97539608Y-104390392D01*
X97321101Y-104211068D01*
X97071808Y-104077818D01*
X96801309Y-103995764D01*
X96590492Y-103975000D01*
X96449508Y-103975000D01*
X96238691Y-103995764D01*
X95968192Y-104077818D01*
X95718899Y-104211068D01*
X95500392Y-104390392D01*
X95321068Y-104608899D01*
X95187818Y-104858192D01*
X95105764Y-105128691D01*
X95078057Y-105410000D01*
X95105764Y-105691309D01*
X95187818Y-105961808D01*
X95321068Y-106211101D01*
X95500392Y-106429608D01*
X95718899Y-106608932D01*
X95968192Y-106742182D01*
X96238691Y-106824236D01*
X96449508Y-106845000D01*
X96590492Y-106845000D01*
X96801309Y-106824236D01*
X96845907Y-106810708D01*
X97081197Y-107045998D01*
X97105000Y-107075002D01*
X97220725Y-107169975D01*
X97352754Y-107240547D01*
X97496015Y-107284004D01*
X97607668Y-107295001D01*
X97607677Y-107295001D01*
X97645000Y-107298677D01*
X97682323Y-107295001D01*
X115169677Y-107295001D01*
X115206999Y-107298677D01*
X115244321Y-107295001D01*
X115244332Y-107295001D01*
X115355985Y-107284004D01*
X115499246Y-107240547D01*
X115631275Y-107169975D01*
X115747000Y-107075002D01*
X115770803Y-107045998D01*
X119891003Y-102925799D01*
X119920001Y-102902001D01*
X120014974Y-102786276D01*
X120085546Y-102654247D01*
X120129003Y-102510986D01*
X120140000Y-102399333D01*
X120143677Y-102362000D01*
X120140000Y-102324667D01*
X120140000Y-95056801D01*
X129398738Y-85798064D01*
X129414430Y-85835948D01*
X129586773Y-86093877D01*
X129806123Y-86313227D01*
X129876124Y-86360000D01*
X129806123Y-86406773D01*
X129586773Y-86626123D01*
X129414430Y-86884052D01*
X129295718Y-87170648D01*
X129235200Y-87474896D01*
X129235200Y-87785104D01*
X129295718Y-88089352D01*
X129414430Y-88375948D01*
X129586773Y-88633877D01*
X129806123Y-88853227D01*
X129876124Y-88900000D01*
X129806123Y-88946773D01*
X129586773Y-89166123D01*
X129414430Y-89424052D01*
X129295718Y-89710648D01*
X129235200Y-90014896D01*
X129235200Y-90325104D01*
X129295718Y-90629352D01*
X129414430Y-90915948D01*
X129586773Y-91173877D01*
X129806123Y-91393227D01*
X129876124Y-91440000D01*
X129806123Y-91486773D01*
X129586773Y-91706123D01*
X129515250Y-91813165D01*
X129527300Y-91752584D01*
X129527300Y-91442376D01*
X129466782Y-91138128D01*
X129348070Y-90851532D01*
X129175727Y-90593603D01*
X128956377Y-90374253D01*
X128698448Y-90201910D01*
X128411852Y-90083198D01*
X128107604Y-90022680D01*
X127797396Y-90022680D01*
X127493148Y-90083198D01*
X127206552Y-90201910D01*
X126948623Y-90374253D01*
X126729273Y-90593603D01*
X126556930Y-90851532D01*
X126438218Y-91138128D01*
X126377700Y-91442376D01*
X126377700Y-91752584D01*
X126438218Y-92056832D01*
X126556930Y-92343428D01*
X126729273Y-92601357D01*
X126948623Y-92820707D01*
X127018624Y-92867480D01*
X126948623Y-92914253D01*
X126729273Y-93133603D01*
X126556930Y-93391532D01*
X126438218Y-93678128D01*
X126377700Y-93982376D01*
X126377700Y-94292584D01*
X126438218Y-94596832D01*
X126556930Y-94883428D01*
X126729273Y-95141357D01*
X126948623Y-95360707D01*
X127206552Y-95533050D01*
X127493148Y-95651762D01*
X127797396Y-95712280D01*
X128107604Y-95712280D01*
X128411852Y-95651762D01*
X128698448Y-95533050D01*
X128956377Y-95360707D01*
X129175727Y-95141357D01*
X129247250Y-95034315D01*
X129235200Y-95094896D01*
X129235200Y-95405104D01*
X129295718Y-95709352D01*
X129414430Y-95995948D01*
X129586773Y-96253877D01*
X129806123Y-96473227D01*
X129876124Y-96520000D01*
X129806123Y-96566773D01*
X129586773Y-96786123D01*
X129414430Y-97044052D01*
X129295718Y-97330648D01*
X129235200Y-97634896D01*
X129235200Y-97945104D01*
X129295718Y-98249352D01*
X129414430Y-98535948D01*
X129586773Y-98793877D01*
X129806123Y-99013227D01*
X129876124Y-99060000D01*
X129806123Y-99106773D01*
X129586773Y-99326123D01*
X129414430Y-99584052D01*
X129295718Y-99870648D01*
X129235200Y-100174896D01*
X129235200Y-100485104D01*
X129295718Y-100789352D01*
X129414430Y-101075948D01*
X129586773Y-101333877D01*
X129806123Y-101553227D01*
X130064052Y-101725570D01*
X130350648Y-101844282D01*
X130654896Y-101904800D01*
X130965104Y-101904800D01*
X131269352Y-101844282D01*
X131555948Y-101725570D01*
X131813877Y-101553227D01*
X132033227Y-101333877D01*
X132205570Y-101075948D01*
X132324282Y-100789352D01*
X132384800Y-100485104D01*
X132384800Y-100174896D01*
X132324282Y-99870648D01*
X132205570Y-99584052D01*
X132033227Y-99326123D01*
X131813877Y-99106773D01*
X131743876Y-99060000D01*
X131813877Y-99013227D01*
X132033227Y-98793877D01*
X132205570Y-98535948D01*
X132324282Y-98249352D01*
X132384800Y-97945104D01*
X132384800Y-97634896D01*
X132324282Y-97330648D01*
X132205570Y-97044052D01*
X132033227Y-96786123D01*
X131813877Y-96566773D01*
X131743876Y-96520000D01*
X131813877Y-96473227D01*
X132033227Y-96253877D01*
X132205570Y-95995948D01*
X132324282Y-95709352D01*
X132384800Y-95405104D01*
X132384800Y-95250000D01*
X133127815Y-95250000D01*
X133156487Y-95541111D01*
X133241401Y-95821034D01*
X133379294Y-96079014D01*
X133564866Y-96305134D01*
X133790986Y-96490706D01*
X134048966Y-96628599D01*
X134328889Y-96713513D01*
X134547050Y-96735000D01*
X134692950Y-96735000D01*
X134911111Y-96713513D01*
X135191034Y-96628599D01*
X135449014Y-96490706D01*
X135675134Y-96305134D01*
X135860706Y-96079014D01*
X135998599Y-95821034D01*
X136083513Y-95541111D01*
X136112185Y-95250000D01*
X136083513Y-94958889D01*
X135998599Y-94678966D01*
X135860706Y-94420986D01*
X135675134Y-94194866D01*
X135645313Y-94170393D01*
X135714180Y-94149502D01*
X135824494Y-94090537D01*
X135921185Y-94011185D01*
X136000537Y-93914494D01*
X136059502Y-93804180D01*
X136095812Y-93684482D01*
X136108072Y-93560000D01*
X136108072Y-91860000D01*
X136095812Y-91735518D01*
X136059502Y-91615820D01*
X136000537Y-91505506D01*
X135921185Y-91408815D01*
X135824494Y-91329463D01*
X135714180Y-91270498D01*
X135594482Y-91234188D01*
X135470000Y-91221928D01*
X133770000Y-91221928D01*
X133645518Y-91234188D01*
X133525820Y-91270498D01*
X133415506Y-91329463D01*
X133318815Y-91408815D01*
X133239463Y-91505506D01*
X133180498Y-91615820D01*
X133144188Y-91735518D01*
X133131928Y-91860000D01*
X133131928Y-93560000D01*
X133144188Y-93684482D01*
X133180498Y-93804180D01*
X133239463Y-93914494D01*
X133318815Y-94011185D01*
X133415506Y-94090537D01*
X133525820Y-94149502D01*
X133594687Y-94170393D01*
X133564866Y-94194866D01*
X133379294Y-94420986D01*
X133241401Y-94678966D01*
X133156487Y-94958889D01*
X133127815Y-95250000D01*
X132384800Y-95250000D01*
X132384800Y-95094896D01*
X132324282Y-94790648D01*
X132205570Y-94504052D01*
X132033227Y-94246123D01*
X131813877Y-94026773D01*
X131743876Y-93980000D01*
X131813877Y-93933227D01*
X132033227Y-93713877D01*
X132205570Y-93455948D01*
X132324282Y-93169352D01*
X132384800Y-92865104D01*
X132384800Y-92554896D01*
X132324282Y-92250648D01*
X132205570Y-91964052D01*
X132033227Y-91706123D01*
X131813877Y-91486773D01*
X131743876Y-91440000D01*
X131813877Y-91393227D01*
X132033227Y-91173877D01*
X132205570Y-90915948D01*
X132324282Y-90629352D01*
X132384800Y-90325104D01*
X132384800Y-90014896D01*
X132324282Y-89710648D01*
X132205570Y-89424052D01*
X132033227Y-89166123D01*
X131813877Y-88946773D01*
X131743876Y-88900000D01*
X131813877Y-88853227D01*
X132033227Y-88633877D01*
X132205570Y-88375948D01*
X132324282Y-88089352D01*
X132384800Y-87785104D01*
X132384800Y-87474896D01*
X132324282Y-87170648D01*
X132205570Y-86884052D01*
X132033227Y-86626123D01*
X131813877Y-86406773D01*
X131743876Y-86360000D01*
X131813877Y-86313227D01*
X132033227Y-86093877D01*
X132205570Y-85835948D01*
X132324282Y-85549352D01*
X132384800Y-85245104D01*
X132384800Y-84934896D01*
X132324282Y-84630648D01*
X132205570Y-84344052D01*
X132033227Y-84086123D01*
X131813877Y-83866773D01*
X131743876Y-83820000D01*
X131813877Y-83773227D01*
X132033227Y-83553877D01*
X132205570Y-83295948D01*
X132324282Y-83009352D01*
X132384800Y-82705104D01*
X132384800Y-82394896D01*
X132324282Y-82090648D01*
X132205570Y-81804052D01*
X132033227Y-81546123D01*
X131813877Y-81326773D01*
X131743876Y-81280000D01*
X131813877Y-81233227D01*
X132033227Y-81013877D01*
X132205570Y-80755948D01*
X132324282Y-80469352D01*
X132384800Y-80165104D01*
X132384800Y-79854896D01*
X132324282Y-79550648D01*
X132205570Y-79264052D01*
X132033227Y-79006123D01*
X131813877Y-78786773D01*
X131743876Y-78740000D01*
X131813877Y-78693227D01*
X132033227Y-78473877D01*
X132205570Y-78215948D01*
X132324282Y-77929352D01*
X132384800Y-77625104D01*
X132384800Y-77314896D01*
X132324282Y-77010648D01*
X132205570Y-76724052D01*
X132033227Y-76466123D01*
X131813877Y-76246773D01*
X131677286Y-76155505D01*
X131722871Y-76022476D01*
X130810000Y-75109605D01*
X129897129Y-76022476D01*
X129942714Y-76155505D01*
X129806123Y-76246773D01*
X129586773Y-76466123D01*
X129414430Y-76724052D01*
X129295718Y-77010648D01*
X129235200Y-77314896D01*
X129235200Y-77625104D01*
X129295718Y-77929352D01*
X129414430Y-78215948D01*
X129586773Y-78473877D01*
X129806123Y-78693227D01*
X129876124Y-78740000D01*
X129806123Y-78786773D01*
X129586773Y-79006123D01*
X129414430Y-79264052D01*
X129295718Y-79550648D01*
X129235200Y-79854896D01*
X129235200Y-80165104D01*
X129247250Y-80225685D01*
X129175727Y-80118643D01*
X128956377Y-79899293D01*
X128698448Y-79726950D01*
X128411852Y-79608238D01*
X128107604Y-79547720D01*
X127797396Y-79547720D01*
X127493148Y-79608238D01*
X127206552Y-79726950D01*
X126948623Y-79899293D01*
X126729273Y-80118643D01*
X126564926Y-80364604D01*
X126474437Y-80373517D01*
X126331176Y-80416974D01*
X126199147Y-80487546D01*
X126153267Y-80525199D01*
X117063322Y-80525199D01*
X117133381Y-80254725D01*
X117151084Y-79945023D01*
X117108027Y-79637816D01*
X117005865Y-79344914D01*
X116920723Y-79185623D01*
X116662476Y-79097129D01*
X115749605Y-80010000D01*
X115763748Y-80024143D01*
X115584143Y-80203748D01*
X115570000Y-80189605D01*
X115555858Y-80203748D01*
X115376253Y-80024143D01*
X115390395Y-80010000D01*
X114477524Y-79097129D01*
X114219277Y-79185623D01*
X114084403Y-79464976D01*
X114006619Y-79765275D01*
X113988916Y-80074977D01*
X114031973Y-80382184D01*
X114081856Y-80525199D01*
X92742134Y-80525199D01*
X92704801Y-80521522D01*
X92667468Y-80525199D01*
X92555815Y-80536196D01*
X92412554Y-80579653D01*
X92280525Y-80650225D01*
X92164800Y-80745198D01*
X92140997Y-80774202D01*
X91805996Y-81109203D01*
X91731111Y-81086487D01*
X91512950Y-81065000D01*
X91367050Y-81065000D01*
X91148889Y-81086487D01*
X90868966Y-81171401D01*
X90610986Y-81309294D01*
X90384866Y-81494866D01*
X90199294Y-81720986D01*
X90061401Y-81978966D01*
X89976487Y-82258889D01*
X89947815Y-82550000D01*
X87848072Y-82550000D01*
X87848072Y-81700000D01*
X87835812Y-81575518D01*
X87799502Y-81455820D01*
X87740537Y-81345506D01*
X87661185Y-81248815D01*
X87564494Y-81169463D01*
X87454180Y-81110498D01*
X87334482Y-81074188D01*
X87210000Y-81061928D01*
X85510000Y-81061928D01*
X85385518Y-81074188D01*
X85265820Y-81110498D01*
X85155506Y-81169463D01*
X85058815Y-81248815D01*
X84979463Y-81345506D01*
X84920498Y-81455820D01*
X84884188Y-81575518D01*
X84871928Y-81700000D01*
X84871928Y-83400000D01*
X84884188Y-83524482D01*
X84920498Y-83644180D01*
X84979463Y-83754494D01*
X85058815Y-83851185D01*
X85155506Y-83930537D01*
X85265820Y-83989502D01*
X85334687Y-84010393D01*
X85304866Y-84034866D01*
X85119294Y-84260986D01*
X84981401Y-84518966D01*
X84896487Y-84798889D01*
X84867815Y-85090000D01*
X71780000Y-85090000D01*
X71780000Y-74444903D01*
X78517815Y-74444903D01*
X78546487Y-74736014D01*
X78631401Y-75015937D01*
X78769294Y-75273917D01*
X78954866Y-75500037D01*
X79180986Y-75685609D01*
X79438966Y-75823502D01*
X79718889Y-75908416D01*
X79937050Y-75929903D01*
X80082950Y-75929903D01*
X80301111Y-75908416D01*
X80581034Y-75823502D01*
X80839014Y-75685609D01*
X81065134Y-75500037D01*
X81250706Y-75273917D01*
X81388599Y-75015937D01*
X81473513Y-74736014D01*
X81502185Y-74444903D01*
X81475569Y-74174665D01*
X81542067Y-74197724D01*
X81665971Y-74214862D01*
X81790838Y-74207498D01*
X81911870Y-74175916D01*
X82024414Y-74121328D01*
X82124146Y-74045833D01*
X82207233Y-73952331D01*
X83206468Y-72577002D01*
X83269718Y-72469088D01*
X83310699Y-72350908D01*
X83327837Y-72227004D01*
X83320473Y-72102137D01*
X83288891Y-71981105D01*
X83234303Y-71868561D01*
X83158808Y-71768829D01*
X83065306Y-71685742D01*
X81689977Y-70686507D01*
X81582063Y-70623257D01*
X81463883Y-70582276D01*
X81339979Y-70565138D01*
X81215112Y-70572502D01*
X81094080Y-70604084D01*
X80981536Y-70658672D01*
X80881804Y-70734167D01*
X80798717Y-70827669D01*
X79799482Y-72202998D01*
X79736232Y-72310912D01*
X79695251Y-72429092D01*
X79678113Y-72552996D01*
X79685477Y-72677863D01*
X79717059Y-72798895D01*
X79771647Y-72911439D01*
X79817264Y-72971701D01*
X79718889Y-72981390D01*
X79438966Y-73066304D01*
X79180986Y-73204197D01*
X78954866Y-73389769D01*
X78769294Y-73615889D01*
X78631401Y-73873869D01*
X78546487Y-74153792D01*
X78517815Y-74444903D01*
X71780000Y-74444903D01*
X71780000Y-72663380D01*
X75863380Y-68580000D01*
X98837815Y-68580000D01*
X98866487Y-68871111D01*
X98951401Y-69151034D01*
X99089294Y-69409014D01*
X99274866Y-69635134D01*
X99500986Y-69820706D01*
X99555791Y-69850000D01*
X99500986Y-69879294D01*
X99274866Y-70064866D01*
X99089294Y-70290986D01*
X98951401Y-70548966D01*
X98866487Y-70828889D01*
X98837815Y-71120000D01*
X98866487Y-71411111D01*
X98951401Y-71691034D01*
X99089294Y-71949014D01*
X99274866Y-72175134D01*
X99500986Y-72360706D01*
X99758966Y-72498599D01*
X100038889Y-72583513D01*
X100257050Y-72605000D01*
X100402950Y-72605000D01*
X100621111Y-72583513D01*
X100901034Y-72498599D01*
X101159014Y-72360706D01*
X101385134Y-72175134D01*
X101570706Y-71949014D01*
X101708599Y-71691034D01*
X101793513Y-71411111D01*
X101822185Y-71120000D01*
X101793513Y-70828889D01*
X101708599Y-70548966D01*
X101570706Y-70290986D01*
X101385134Y-70064866D01*
X101159014Y-69879294D01*
X101104209Y-69850000D01*
X101159014Y-69820706D01*
X101385134Y-69635134D01*
X101570706Y-69409014D01*
X101708599Y-69151034D01*
X101793513Y-68871111D01*
X101822185Y-68580000D01*
X105187815Y-68580000D01*
X105216487Y-68871111D01*
X105301401Y-69151034D01*
X105439294Y-69409014D01*
X105624866Y-69635134D01*
X105850986Y-69820706D01*
X105905791Y-69850000D01*
X105850986Y-69879294D01*
X105624866Y-70064866D01*
X105439294Y-70290986D01*
X105301401Y-70548966D01*
X105216487Y-70828889D01*
X105187815Y-71120000D01*
X105216487Y-71411111D01*
X105301401Y-71691034D01*
X105439294Y-71949014D01*
X105624866Y-72175134D01*
X105850986Y-72360706D01*
X106108966Y-72498599D01*
X106388889Y-72583513D01*
X106607050Y-72605000D01*
X106752950Y-72605000D01*
X106971111Y-72583513D01*
X107251034Y-72498599D01*
X107509014Y-72360706D01*
X107662313Y-72234896D01*
X113995200Y-72234896D01*
X113995200Y-72545104D01*
X114055718Y-72849352D01*
X114174430Y-73135948D01*
X114346773Y-73393877D01*
X114566123Y-73613227D01*
X114636124Y-73660000D01*
X114566123Y-73706773D01*
X114346773Y-73926123D01*
X114174430Y-74184052D01*
X114055718Y-74470648D01*
X113995200Y-74774896D01*
X113995200Y-75085104D01*
X114055718Y-75389352D01*
X114174430Y-75675948D01*
X114346773Y-75933877D01*
X114566123Y-76153227D01*
X114636124Y-76200000D01*
X114566123Y-76246773D01*
X114346773Y-76466123D01*
X114174430Y-76724052D01*
X114055718Y-77010648D01*
X113995200Y-77314896D01*
X113995200Y-77625104D01*
X114055718Y-77929352D01*
X114174430Y-78215948D01*
X114346773Y-78473877D01*
X114566123Y-78693227D01*
X114702714Y-78784495D01*
X114657129Y-78917524D01*
X115570000Y-79830395D01*
X116482871Y-78917524D01*
X116437286Y-78784495D01*
X116573877Y-78693227D01*
X116793227Y-78473877D01*
X116965570Y-78215948D01*
X117084282Y-77929352D01*
X117144800Y-77625104D01*
X117144800Y-77314896D01*
X117084282Y-77010648D01*
X116965570Y-76724052D01*
X116793227Y-76466123D01*
X116573877Y-76246773D01*
X116503876Y-76200000D01*
X116573877Y-76153227D01*
X116793227Y-75933877D01*
X116965570Y-75675948D01*
X117084282Y-75389352D01*
X117144800Y-75085104D01*
X117144800Y-74994977D01*
X129228916Y-74994977D01*
X129271973Y-75302184D01*
X129374135Y-75595086D01*
X129459277Y-75754377D01*
X129717524Y-75842871D01*
X130630395Y-74930000D01*
X130989605Y-74930000D01*
X131902476Y-75842871D01*
X132160723Y-75754377D01*
X132295597Y-75475024D01*
X132373381Y-75174725D01*
X132391084Y-74865023D01*
X132348027Y-74557816D01*
X132245865Y-74264914D01*
X132160723Y-74105623D01*
X131902476Y-74017129D01*
X130989605Y-74930000D01*
X130630395Y-74930000D01*
X129717524Y-74017129D01*
X129459277Y-74105623D01*
X129324403Y-74384976D01*
X129246619Y-74685275D01*
X129228916Y-74994977D01*
X117144800Y-74994977D01*
X117144800Y-74774896D01*
X117084282Y-74470648D01*
X116965570Y-74184052D01*
X116793227Y-73926123D01*
X116573877Y-73706773D01*
X116503876Y-73660000D01*
X116573877Y-73613227D01*
X116793227Y-73393877D01*
X116965570Y-73135948D01*
X117084282Y-72849352D01*
X117144800Y-72545104D01*
X117144800Y-72234896D01*
X117084282Y-71930648D01*
X116965570Y-71644052D01*
X116819070Y-71424800D01*
X116995104Y-71424800D01*
X117299352Y-71364282D01*
X117585948Y-71245570D01*
X117843877Y-71073227D01*
X118063227Y-70853877D01*
X118110000Y-70783876D01*
X118156773Y-70853877D01*
X118376123Y-71073227D01*
X118634052Y-71245570D01*
X118920648Y-71364282D01*
X119224896Y-71424800D01*
X119535104Y-71424800D01*
X119839352Y-71364282D01*
X120125948Y-71245570D01*
X120383877Y-71073227D01*
X120603227Y-70853877D01*
X120650000Y-70783876D01*
X120696773Y-70853877D01*
X120916123Y-71073227D01*
X121174052Y-71245570D01*
X121460648Y-71364282D01*
X121764896Y-71424800D01*
X122075104Y-71424800D01*
X122379352Y-71364282D01*
X122665948Y-71245570D01*
X122923877Y-71073227D01*
X123143227Y-70853877D01*
X123190000Y-70783876D01*
X123236773Y-70853877D01*
X123456123Y-71073227D01*
X123714052Y-71245570D01*
X124000648Y-71364282D01*
X124304896Y-71424800D01*
X124615104Y-71424800D01*
X124919352Y-71364282D01*
X125205948Y-71245570D01*
X125463877Y-71073227D01*
X125683227Y-70853877D01*
X125730000Y-70783876D01*
X125776773Y-70853877D01*
X125996123Y-71073227D01*
X126254052Y-71245570D01*
X126540648Y-71364282D01*
X126844896Y-71424800D01*
X127155104Y-71424800D01*
X127459352Y-71364282D01*
X127745948Y-71245570D01*
X128003877Y-71073227D01*
X128223227Y-70853877D01*
X128270000Y-70783876D01*
X128316773Y-70853877D01*
X128536123Y-71073227D01*
X128794052Y-71245570D01*
X129080648Y-71364282D01*
X129384896Y-71424800D01*
X129560930Y-71424800D01*
X129414430Y-71644052D01*
X129295718Y-71930648D01*
X129235200Y-72234896D01*
X129235200Y-72545104D01*
X129295718Y-72849352D01*
X129414430Y-73135948D01*
X129586773Y-73393877D01*
X129806123Y-73613227D01*
X129942714Y-73704495D01*
X129897129Y-73837524D01*
X130810000Y-74750395D01*
X131722871Y-73837524D01*
X131677286Y-73704495D01*
X131813877Y-73613227D01*
X132033227Y-73393877D01*
X132205570Y-73135948D01*
X132324282Y-72849352D01*
X132384800Y-72545104D01*
X132384800Y-72234896D01*
X132324282Y-71930648D01*
X132205570Y-71644052D01*
X132033227Y-71386123D01*
X131813877Y-71166773D01*
X131555948Y-70994430D01*
X131269352Y-70875718D01*
X130965104Y-70815200D01*
X130789070Y-70815200D01*
X130935570Y-70595948D01*
X131054282Y-70309352D01*
X131114800Y-70005104D01*
X131114800Y-69694896D01*
X131054282Y-69390648D01*
X130935570Y-69104052D01*
X130763227Y-68846123D01*
X130543877Y-68626773D01*
X130285948Y-68454430D01*
X129999352Y-68335718D01*
X129695104Y-68275200D01*
X129384896Y-68275200D01*
X129080648Y-68335718D01*
X128794052Y-68454430D01*
X128536123Y-68626773D01*
X128316773Y-68846123D01*
X128270000Y-68916124D01*
X128223227Y-68846123D01*
X128003877Y-68626773D01*
X127745948Y-68454430D01*
X127459352Y-68335718D01*
X127155104Y-68275200D01*
X126844896Y-68275200D01*
X126540648Y-68335718D01*
X126254052Y-68454430D01*
X125996123Y-68626773D01*
X125776773Y-68846123D01*
X125730000Y-68916124D01*
X125683227Y-68846123D01*
X125463877Y-68626773D01*
X125205948Y-68454430D01*
X124919352Y-68335718D01*
X124615104Y-68275200D01*
X124304896Y-68275200D01*
X124000648Y-68335718D01*
X123714052Y-68454430D01*
X123456123Y-68626773D01*
X123236773Y-68846123D01*
X123190000Y-68916124D01*
X123143227Y-68846123D01*
X122923877Y-68626773D01*
X122665948Y-68454430D01*
X122379352Y-68335718D01*
X122075104Y-68275200D01*
X121764896Y-68275200D01*
X121460648Y-68335718D01*
X121174052Y-68454430D01*
X120916123Y-68626773D01*
X120696773Y-68846123D01*
X120650000Y-68916124D01*
X120603227Y-68846123D01*
X120383877Y-68626773D01*
X120125948Y-68454430D01*
X119839352Y-68335718D01*
X119535104Y-68275200D01*
X119224896Y-68275200D01*
X118920648Y-68335718D01*
X118634052Y-68454430D01*
X118376123Y-68626773D01*
X118156773Y-68846123D01*
X118110000Y-68916124D01*
X118063227Y-68846123D01*
X117843877Y-68626773D01*
X117585948Y-68454430D01*
X117299352Y-68335718D01*
X116995104Y-68275200D01*
X116684896Y-68275200D01*
X116380648Y-68335718D01*
X116094052Y-68454430D01*
X115836123Y-68626773D01*
X115616773Y-68846123D01*
X115444430Y-69104052D01*
X115325718Y-69390648D01*
X115265200Y-69694896D01*
X115265200Y-70005104D01*
X115325718Y-70309352D01*
X115444430Y-70595948D01*
X115590930Y-70815200D01*
X115414896Y-70815200D01*
X115110648Y-70875718D01*
X114824052Y-70994430D01*
X114566123Y-71166773D01*
X114346773Y-71386123D01*
X114174430Y-71644052D01*
X114055718Y-71930648D01*
X113995200Y-72234896D01*
X107662313Y-72234896D01*
X107735134Y-72175134D01*
X107920706Y-71949014D01*
X108058599Y-71691034D01*
X108143513Y-71411111D01*
X108172185Y-71120000D01*
X108143513Y-70828889D01*
X108058599Y-70548966D01*
X107920706Y-70290986D01*
X107735134Y-70064866D01*
X107509014Y-69879294D01*
X107454209Y-69850000D01*
X107509014Y-69820706D01*
X107735134Y-69635134D01*
X107920706Y-69409014D01*
X108058599Y-69151034D01*
X108143513Y-68871111D01*
X108172185Y-68580000D01*
X108143513Y-68288889D01*
X108058599Y-68008966D01*
X107920706Y-67750986D01*
X107735134Y-67524866D01*
X107705313Y-67500393D01*
X107774180Y-67479502D01*
X107884494Y-67420537D01*
X107981185Y-67341185D01*
X108060537Y-67244494D01*
X108119502Y-67134180D01*
X108155812Y-67014482D01*
X108168072Y-66890000D01*
X108168072Y-65190000D01*
X108155812Y-65065518D01*
X108119502Y-64945820D01*
X108060537Y-64835506D01*
X107981185Y-64738815D01*
X107884494Y-64659463D01*
X107774180Y-64600498D01*
X107654482Y-64564188D01*
X107530000Y-64551928D01*
X105830000Y-64551928D01*
X105705518Y-64564188D01*
X105585820Y-64600498D01*
X105475506Y-64659463D01*
X105378815Y-64738815D01*
X105299463Y-64835506D01*
X105240498Y-64945820D01*
X105204188Y-65065518D01*
X105191928Y-65190000D01*
X105191928Y-66890000D01*
X105204188Y-67014482D01*
X105240498Y-67134180D01*
X105299463Y-67244494D01*
X105378815Y-67341185D01*
X105475506Y-67420537D01*
X105585820Y-67479502D01*
X105654687Y-67500393D01*
X105624866Y-67524866D01*
X105439294Y-67750986D01*
X105301401Y-68008966D01*
X105216487Y-68288889D01*
X105187815Y-68580000D01*
X101822185Y-68580000D01*
X101793513Y-68288889D01*
X101708599Y-68008966D01*
X101570706Y-67750986D01*
X101385134Y-67524866D01*
X101355313Y-67500393D01*
X101424180Y-67479502D01*
X101534494Y-67420537D01*
X101631185Y-67341185D01*
X101710537Y-67244494D01*
X101769502Y-67134180D01*
X101805812Y-67014482D01*
X101818072Y-66890000D01*
X101818072Y-65190000D01*
X101805812Y-65065518D01*
X101769502Y-64945820D01*
X101710537Y-64835506D01*
X101631185Y-64738815D01*
X101534494Y-64659463D01*
X101424180Y-64600498D01*
X101304482Y-64564188D01*
X101180000Y-64551928D01*
X99480000Y-64551928D01*
X99355518Y-64564188D01*
X99235820Y-64600498D01*
X99125506Y-64659463D01*
X99028815Y-64738815D01*
X98949463Y-64835506D01*
X98890498Y-64945820D01*
X98854188Y-65065518D01*
X98841928Y-65190000D01*
X98841928Y-66890000D01*
X98854188Y-67014482D01*
X98890498Y-67134180D01*
X98949463Y-67244494D01*
X99028815Y-67341185D01*
X99125506Y-67420537D01*
X99235820Y-67479502D01*
X99304687Y-67500393D01*
X99274866Y-67524866D01*
X99089294Y-67750986D01*
X98951401Y-68008966D01*
X98866487Y-68288889D01*
X98837815Y-68580000D01*
X75863380Y-68580000D01*
X81728283Y-62715097D01*
X112932131Y-62715097D01*
X112960803Y-63006208D01*
X113045717Y-63286131D01*
X113183610Y-63544111D01*
X113369182Y-63770231D01*
X113595302Y-63955803D01*
X113853282Y-64093696D01*
X114133205Y-64178610D01*
X114351366Y-64200097D01*
X114497266Y-64200097D01*
X114715427Y-64178610D01*
X114995350Y-64093696D01*
X115134333Y-64019408D01*
X115132833Y-64095797D01*
X115154822Y-64218933D01*
X115200412Y-64335413D01*
X115267849Y-64440761D01*
X115354544Y-64530928D01*
X115457163Y-64602449D01*
X115571763Y-64652577D01*
X117188559Y-65177905D01*
X117310737Y-65204711D01*
X117435797Y-65207167D01*
X117558933Y-65185178D01*
X117675413Y-65139588D01*
X117780761Y-65072151D01*
X117870928Y-64985456D01*
X117942449Y-64882837D01*
X117992577Y-64768237D01*
X118517905Y-63151441D01*
X118544711Y-63029263D01*
X118547167Y-62904203D01*
X118525178Y-62781067D01*
X118479588Y-62664587D01*
X118412151Y-62559239D01*
X118325456Y-62469072D01*
X118222837Y-62397551D01*
X118108237Y-62347423D01*
X116491441Y-61822095D01*
X116369263Y-61795289D01*
X116244203Y-61792833D01*
X116121067Y-61814822D01*
X116004587Y-61860412D01*
X115899239Y-61927849D01*
X115809072Y-62014544D01*
X115766407Y-62075761D01*
X115665022Y-61886083D01*
X115479450Y-61659963D01*
X115253330Y-61474391D01*
X114995350Y-61336498D01*
X114715427Y-61251584D01*
X114497266Y-61230097D01*
X114351366Y-61230097D01*
X114133205Y-61251584D01*
X113853282Y-61336498D01*
X113595302Y-61474391D01*
X113369182Y-61659963D01*
X113183610Y-61886083D01*
X113045717Y-62144063D01*
X112960803Y-62423986D01*
X112932131Y-62715097D01*
X81728283Y-62715097D01*
X86633381Y-57810000D01*
X124186620Y-57810000D01*
X139040000Y-72663381D01*
M02*
