M48
INCH,TZ
T1C0.0157
T2C0.0315
T3C0.0354
T4C0.0394
T5C0.0400
%
G90
G05
T1
X30500Y-42000
X33600Y-25200
X34500Y-41000
X37000Y-26000
X39000Y-38600
X40000Y-47000
X52300Y-29500
T2
X38000Y-41500
X38000Y-44500
X39000Y-41500
X39000Y-44500
X40000Y-41500
X40000Y-44500
X41000Y-41500
X41000Y-44500
X42000Y-41500
X42000Y-44500
X43000Y-41500
X43000Y-44500
X44000Y-41500
X44000Y-44500
T3
X35000Y-35500
X35000Y-36500
X35000Y-37500
T4
X53000Y-36500
X53000Y-37500
X39500Y-26000
X39500Y-27000
X39500Y-28000
X33000Y-36000
X33000Y-37000
X44500Y-47500
X45451Y-47191
X32000Y-43500
X32588Y-44309
X45049Y-24691
X46000Y-25000
X36000Y-37500
X37000Y-37500
X36000Y-32500
X37000Y-32500
X31500Y-29309
X32088Y-28500
X36000Y-38500
X37000Y-38500
X34000Y-32500
X34000Y-33500
X42000Y-26000
X42000Y-27000
X42000Y-28000
T5
X45500Y-28500
X45500Y-29500
X45500Y-30500
X45500Y-31500
X45500Y-32500
X45500Y-33500
X45500Y-34500
X45500Y-35500
X45500Y-36500
X45500Y-37500
X45500Y-38500
X45500Y-39500
X46000Y-27500
X47000Y-27500
X48000Y-27500
X49000Y-27500
X50000Y-27500
X50375Y-31938
X50375Y-32938
X50375Y-36062
X50375Y-37062
X51000Y-27500
X51500Y-28500
X51500Y-29500
X51500Y-30500
X51500Y-31500
X51500Y-32500
X51500Y-33500
X51500Y-34500
X51500Y-35500
X51500Y-36500
X51500Y-37500
X51500Y-38500
X51500Y-39500
T0
M30
